<?xml version="1.0" encoding="UTF-8"?>
<svg width="19px" height="18px" viewBox="0 0 19 18" version="1.1" xmlns="http://www.w3.org/2000/svg" xmlns:xlink="http://www.w3.org/1999/xlink">
    <!-- Generator: Sketch 51.2 (57519) - http://www.bohemiancoding.com/sketch -->
    <title>Arrow-pagination-right</title>
    <desc>Created with Sketch.</desc>
    <defs></defs>
    <g id="Symbols" stroke="none" stroke-width="1" fill="none" fill-rule="evenodd">
        <g id="Panigation" transform="translate(-164.000000, -12.000000)" fill="#FFFFFF">
            <g id="Arrow-right">
                <g transform="translate(156.000000, 4.000000)">
                    <g id="Arrow-pagination-right" transform="translate(8.000000, 7.000000)">
                        <path d="M18.911,10.405 C18.861,10.534 18.787,10.657 18.683,10.761 L10.731,18.714 C10.331,19.113 9.684,19.113 9.285,18.714 C8.886,18.314 8.886,17.668 9.285,17.268 L15.553,11 L1,11 C0.448,11 0,10.552 0,10 C0,9.448 0.448,9 1,9 L15.555,9 L9.285,2.729 C8.886,2.33 8.886,1.683 9.285,1.283 C9.684,0.883 10.331,0.883 10.731,1.283 L18.683,9.236 C18.789,9.341 18.862,9.465 18.912,9.597 C18.967,9.72 19,9.856 19,10 C19,10.145 18.966,10.28 18.911,10.405 L18.911,10.405 Z" id="Shape"></path>
                    </g>
                </g>
            </g>
        </g>
    </g>
</svg>