<?xml version="1.0" encoding="UTF-8"?>
<svg width="17px" height="17px" viewBox="0 0 17 17" version="1.1" xmlns="http://www.w3.org/2000/svg" xmlns:xlink="http://www.w3.org/1999/xlink">
    <!-- Generator: Sketch 51.2 (57519) - http://www.bohemiancoding.com/sketch -->
    <title>Search-white</title>
    <desc>Created with Sketch.</desc>
    <defs>
        <path d="M1206.17441,3.6746007 C1204.10298,1.60316321 1200.74604,1.60316321 1198.6746,3.6746007 C1196.60316,5.74603818 1196.60316,9.10297604 1198.6746,11.1744135 C1200.74604,13.245851 1204.10298,13.245851 1206.17441,11.1744135 C1208.24585,9.10297604 1208.24585,5.74603818 1206.17441,3.6746007 M1211.68976,16.6897617 C1211.27505,17.1034128 1210.60366,17.1034128 1210.18895,16.6897617 L1206.84898,13.3487335 C1203.9407,15.5230534 1199.81691,15.3172885 1197.17485,12.674164 C1194.27505,9.77542426 1194.27505,5.07465061 1197.17485,2.17485026 C1200.07359,-0.724950087 1204.77542,-0.724950087 1207.67416,2.17485026 C1210.31729,4.81691415 1210.52305,8.94069753 1208.34873,11.848983 L1211.68976,15.1900112 C1212.10341,15.6036623 1212.10341,16.2750499 1211.68976,16.6897617" id="path-1"></path>
    </defs>
    <g id="Symbols" stroke="none" stroke-width="1" fill="none" fill-rule="evenodd">
        <g id="Header" transform="translate(-1229.000000, -32.000000)">
            <g id="Head">
                <g transform="translate(34.000000, 32.000000)">
                    <mask id="mask-2" fill="white">
                        <use xlink:href="#path-1"></use>
                    </mask>
                    <use id="Search-white" fill="#FFFFFF" xlink:href="#path-1"></use>
                </g>
            </g>
        </g>
    </g>
</svg>