<?xml version="1.0" encoding="UTF-8"?>
<svg width="18px" height="18px" viewBox="0 0 18 18" version="1.1" xmlns="http://www.w3.org/2000/svg" xmlns:xlink="http://www.w3.org/1999/xlink">
    <!-- Generator: Sketch 51.2 (57519) - http://www.bohemiancoding.com/sketch -->
    <title>Search</title>
    <desc>Created with Sketch.</desc>
    <defs>
        <path d="M464.268316,20.7054797 C462.179472,18.6166352 458.794324,18.6166352 456.70548,20.7054797 C454.616635,22.7943242 454.616635,26.1794716 456.70548,28.2683162 C458.794324,30.3571607 462.179472,30.3571607 464.268316,28.2683162 C466.357161,26.1794716 466.357161,22.7943242 464.268316,20.7054797 M469.830012,33.8300118 C469.411815,34.2471389 468.734786,34.2471389 468.316589,33.8300118 L464.948554,30.4609077 C462.015829,32.6534992 457.857392,32.4460052 455.193126,29.7806695 C452.268958,26.8575707 452.268958,22.1172947 455.193126,19.1931263 C458.116225,16.2689579 462.857571,16.2689579 465.78067,19.1931263 C468.446005,21.8573924 468.653499,26.0158294 466.460908,28.9485543 L469.830012,32.3176584 C470.247139,32.7347856 470.247139,33.411815 469.830012,33.8300118" id="path-1"></path>
    </defs>
    <g id="Symbols" stroke="none" stroke-width="1" fill="none" fill-rule="evenodd">
        <g id="Shear" transform="translate(-453.000000, -17.000000)">
            <g>
                <mask id="mask-2" fill="white">
                    <use xlink:href="#path-1"></use>
                </mask>
                <use id="Search" fill="#212121" xlink:href="#path-1"></use>
            </g>
        </g>
    </g>
</svg>