<?xml version="1.0" encoding="UTF-8"?>
<svg width="60px" height="60px" viewBox="0 0 60 60" version="1.1" xmlns="http://www.w3.org/2000/svg" xmlns:xlink="http://www.w3.org/1999/xlink">
    <!-- Generator: Sketch 51.2 (57519) - http://www.bohemiancoding.com/sketch -->
    <title>Bulb</title>
    <desc>Created with Sketch.</desc>
    <defs></defs>
    <g id="Page-1" stroke="none" stroke-width="1" fill="none" fill-rule="evenodd">
        <g id="Style-Guide-/-UI-Kit" transform="translate(-38.000000, -4612.000000)">
            <rect fill="#FEFEFE" x="0" y="0" width="1350" height="5001"></rect>
            <g id="07.-Icons-🎲" transform="translate(38.000000, 4548.000000)" fill="#353535">
                <g id="Icon-Samples" transform="translate(0.000000, 64.000000)">
                    <g id="Bulb" transform="translate(14.000000, 8.000000)">
                        <path d="M26.232,28.086 C24.817,29.578 24.248,31.517 24.022,32.887 L23.883,33.718 L8.119,33.709 L7.98,32.881 C7.753,31.524 7.187,29.596 5.784,28.112 L5.719,28.037 C2.067,24.972 0,20.559 0,15.878 C0,7.123 7.176,0 15.996,0 C24.822,0 32.002,7.123 32.002,15.878 C32.002,20.578 29.9,25.024 26.232,28.086 L26.232,28.086 Z M15.996,1.984 C8.278,1.984 1.999,8.217 1.999,15.878 C1.999,20.002 3.833,23.89 7.032,26.544 C7.126,26.611 7.212,26.708 7.279,26.795 C8.721,28.339 9.434,30.21 9.786,31.727 L22.214,31.733 C22.573,30.174 23.312,28.247 24.825,26.676 L24.906,26.6 C28.145,23.916 30.003,20.008 30.003,15.878 C30.003,8.217 23.72,1.984 15.996,1.984 L15.996,1.984 Z M9.005,37.248 L22.997,37.248 C23.549,37.248 23.996,37.692 23.996,38.24 C23.996,38.787 23.549,39.231 22.997,39.231 L9.005,39.231 C8.454,39.231 8.006,38.787 8.006,38.24 C8.006,37.692 8.454,37.248 9.005,37.248 L9.005,37.248 Z M11.371,43.033 L20.631,43.033 C21.183,43.033 21.63,43.477 21.63,44.025 C21.63,44.573 21.183,45.017 20.631,45.017 L11.371,45.017 C10.82,45.017 10.372,44.573 10.372,44.025 C10.372,43.477 10.82,43.033 11.371,43.033 L11.371,43.033 Z" id="Shape"></path>
                    </g>
                </g>
            </g>
        </g>
    </g>
</svg>