<?xml version="1.0" encoding="UTF-8"?>
<svg width="60px" height="60px" viewBox="0 0 60 60" version="1.1" xmlns="http://www.w3.org/2000/svg" xmlns:xlink="http://www.w3.org/1999/xlink">
    <!-- Generator: Sketch 51.2 (57519) - http://www.bohemiancoding.com/sketch -->
    <title>Clock</title>
    <desc>Created with Sketch.</desc>
    <defs></defs>
    <g id="Page-1" stroke="none" stroke-width="1" fill="none" fill-rule="evenodd">
        <g id="Style-Guide-/-UI-Kit" transform="translate(-38.000000, -4706.000000)">
            <rect fill="#FEFEFE" x="0" y="0" width="1350" height="5001"></rect>
            <g id="07.-Icons-🎲" transform="translate(38.000000, 4548.000000)" fill="#353535">
                <g id="Icon-Samples" transform="translate(0.000000, 65.000000)">
                    <g id="Clock" transform="translate(8.000000, 100.000000)">
                        <path d="M43.36,9.38162502 C43.163,9.57762502 42.905,9.67462502 42.647,9.67462502 C42.389,9.67462502 42.131,9.57762502 41.934,9.38162502 C41.54,8.99062502 41.54,8.35762502 41.934,7.96662502 C42.599,7.30662502 42.966,6.42862502 42.966,5.49462502 C42.966,4.56062502 42.599,3.68262502 41.934,3.02262502 C40.56,1.66062502 38.325,1.66062502 36.951,3.02262502 C36.557,3.41362502 35.919,3.41362502 35.525,3.02262502 C35.131,2.63162502 35.131,1.99762502 35.525,1.60762502 C37.685,-0.536374978 41.2,-0.535374978 43.36,1.60762502 C44.406,2.64562502 44.983,4.02562502 44.983,5.49462502 C44.983,6.96362502 44.406,8.34362502 43.36,9.38162502 L43.36,9.38162502 Z M43.209,22.778625 C43.209,29.977625 39.511,36.334625 33.903,40.081625 L37.605,43.754625 C37.999,44.145625 37.999,44.778625 37.605,45.169625 C37.408,45.364625 37.15,45.462625 36.891,45.462625 C36.633,45.462625 36.375,45.364625 36.178,45.169625 L32.382,41.403625 C32.296,41.317625 32.237,41.217625 32.189,41.114625 C29.216,42.715625 25.813,43.626625 22.199,43.626625 C18.425,43.626625 14.89,42.620625 11.825,40.885625 C11.778,40.976625 11.729,41.068625 11.651,41.145625 L7.596,45.169625 C7.399,45.364625 7.141,45.462625 6.883,45.462625 C6.625,45.462625 6.367,45.364625 6.17,45.169625 C5.776,44.778625 5.776,44.145625 6.17,43.754625 L10.135,39.819625 C4.733,36.043625 1.188,29.818625 1.188,22.778625 C1.188,11.282625 10.613,1.93162502 22.199,1.93162502 C33.784,1.93162502 43.209,11.282625 43.209,22.778625 L43.209,22.778625 Z M22.199,3.93262502 C11.725,3.93262502 3.205,12.386625 3.205,22.778625 C3.205,33.169625 11.725,41.624625 22.199,41.624625 C32.671,41.624625 41.191,33.169625 41.191,22.778625 C41.191,12.386625 32.671,3.93262502 22.199,3.93262502 L22.199,3.93262502 Z M31.391,23.778625 L25.182,23.778625 C24.968,23.778625 24.78,23.697625 24.617,23.584625 C24.278,24.558625 23.355,25.263625 22.258,25.263625 C20.874,25.263625 19.753,24.150625 19.753,22.778625 C19.753,21.582625 20.604,20.584625 21.739,20.346625 C21.417,20.179625 21.19,19.855625 21.19,19.470625 L21.19,9.35562502 C21.19,8.80362502 21.641,8.35562502 22.198,8.35562502 C22.755,8.35562502 23.207,8.80362502 23.207,9.35562502 L23.207,19.470625 C23.207,19.847625 22.988,20.163625 22.678,20.333625 C23.588,20.487625 24.322,21.124625 24.617,21.971625 C24.78,21.858625 24.968,21.777625 25.182,21.777625 L31.391,21.777625 C31.948,21.777625 32.399,22.225625 32.399,22.778625 C32.399,23.331625 31.948,23.778625 31.391,23.778625 L31.391,23.778625 Z M8.031,3.02262502 C6.658,1.66062502 4.423,1.66062502 3.049,3.02262502 C2.384,3.68262502 2.017,4.56062502 2.017,5.49462502 C2.017,6.42862502 2.384,7.30662502 3.049,7.96662502 C3.443,8.35762502 3.443,8.99062502 3.049,9.38162502 C2.852,9.57762502 2.594,9.67462502 2.336,9.67462502 C2.078,9.67462502 1.82,9.57762502 1.623,9.38162502 C0.576,8.34362502 0,6.96362502 0,5.49462502 C0,4.02562502 0.576,2.64562502 1.623,1.60762502 C3.783,-0.535374978 7.297,-0.535374978 9.458,1.60762502 C9.852,1.99762502 9.852,2.63162502 9.458,3.02262502 C9.064,3.41362502 8.425,3.41362502 8.031,3.02262502 L8.031,3.02262502 Z" id="Shape"></path>
                    </g>
                </g>
            </g>
        </g>
    </g>
</svg>