<?xml version="1.0" encoding="UTF-8"?>
<svg width="60px" height="60px" viewBox="0 0 60 60" version="1.1" xmlns="http://www.w3.org/2000/svg" xmlns:xlink="http://www.w3.org/1999/xlink">
    <!-- Generator: Sketch 51.2 (57519) - http://www.bohemiancoding.com/sketch -->
    <title>Mouse 2</title>
    <desc>Created with Sketch.</desc>
    <defs></defs>
    <g id="Page-1" stroke="none" stroke-width="1" fill="none" fill-rule="evenodd">
        <g id="Style-Guide-/-UI-Kit" transform="translate(-338.000000, -4613.000000)">
            <rect fill="#FEFEFE" x="0" y="0" width="1350" height="5001"></rect>
            <g id="07.-Icons-🎲" transform="translate(43.000000, 4548.000000)" fill="#353535">
                <g id="Icon-Samples" transform="translate(3.000000, 65.000000)">
                    <g id="Mouse-2" transform="translate(306.000000, 6.000000)">
                        <path d="M16,47 C7.178,47 0,39.822 0,31 L0,16 C0,7.178 7.178,0 16,0 C24.822,0 32,7.178 32,16 L32,31 C32,39.822 24.822,47 16,47 L16,47 Z M30,16 C30,8.28 23.72,2 16,2 C8.28,2 2,8.28 2,16 L2,31 C2,38.72 8.28,45 16,45 C23.72,45 30,38.72 30,31 L30,16 L30,16 Z M16,15.668 C15.448,15.668 15,15.22 15,14.668 L15,8.501 C15,7.949 15.448,7.501 16,7.501 C16.552,7.501 17,7.949 17,8.501 L17,14.668 C17,15.22 16.552,15.668 16,15.668 L16,15.668 Z" id="Shape"></path>
                    </g>
                </g>
            </g>
        </g>
    </g>
</svg>