<?xml version="1.0" encoding="UTF-8"?>
<svg width="60px" height="60px" viewBox="0 0 60 60" version="1.1" xmlns="http://www.w3.org/2000/svg" xmlns:xlink="http://www.w3.org/1999/xlink">
    <!-- Generator: Sketch 51.2 (57519) - http://www.bohemiancoding.com/sketch -->
    <title>Option</title>
    <desc>Created with Sketch.</desc>
    <defs></defs>
    <g id="Page-1" stroke="none" stroke-width="1" fill="none" fill-rule="evenodd">
        <g id="Style-Guide-/-UI-Kit" transform="translate(-452.000000, -4705.000000)">
            <rect fill="#FEFEFE" x="0" y="0" width="1350" height="5001"></rect>
            <g id="07.-Icons-🎲" transform="translate(38.000000, 4548.000000)" fill="#353535">
                <g id="Icon-Samples" transform="translate(0.000000, 65.000000)">
                    <g id="Option" transform="translate(421.000000, 100.000000)">
                        <g id="Shape">
                            <path d="M42.35,28.05 L40.307,28.971 C39.937,29.141 39.759,29.558 39.898,29.942 L40.687,31.993 C41.396,33.884 41.139,35.924 39.983,37.596 C38.758,39.276 36.858,40.266 34.884,40.266 C34.183,40.266 33.441,40.122 32.679,39.839 L30.565,39.023 C30.506,38.999 30.428,38.98 30.308,38.98 C30.01,38.98 29.735,39.157 29.609,39.431 L28.669,41.446 C27.651,43.648 25.491,45.016 23.034,45.016 C20.576,45.016 18.415,43.648 17.397,41.444 L16.46,39.434 C16.337,39.155 16.059,38.98 15.759,38.98 C15.625,38.98 15.57,38.995 15.534,39.011 L13.386,39.811 C12.685,40.075 11.943,40.21 11.183,40.21 C9.136,40.21 7.23,39.223 6.085,37.569 C4.919,35.963 4.656,33.927 5.376,32.001 L6.175,29.924 C6.307,29.559 6.129,29.14 5.755,28.968 L3.715,28.049 C1.425,27.024 0,24.911 0,22.536 C0,20.119 1.391,17.995 3.632,16.994 L5.675,16.073 C6.044,15.904 6.221,15.484 6.082,15.099 L5.294,13.05 C4.582,11.185 4.839,9.154 5.999,7.477 C7.205,5.815 9.106,4.835 11.097,4.835 C11.852,4.835 12.594,4.969 13.302,5.234 L15.404,6.016 C15.475,6.045 15.553,6.064 15.673,6.064 C15.972,6.064 16.247,5.886 16.373,5.611 L17.312,3.595 C18.324,1.412 20.57,0 23.034,0 C25.491,0 27.651,1.368 28.67,3.571 L29.607,5.582 C29.73,5.861 30.009,6.036 30.308,6.036 C30.442,6.036 30.497,6.021 30.533,6.005 L32.679,5.205 C33.389,4.94 34.131,4.806 34.884,4.806 C36.931,4.806 38.837,5.793 39.982,7.446 C41.149,9.054 41.411,11.09 40.69,13.015 L39.892,15.091 C39.759,15.457 39.937,15.875 40.312,16.047 L42.352,16.967 C44.59,17.967 45.982,20.09 45.982,22.508 C45.982,24.925 44.59,27.049 42.35,28.05 L42.35,28.05 Z M41.514,18.772 L39.465,17.848 C38.135,17.239 37.506,15.761 37.998,14.407 L38.799,12.321 C39.283,11.03 39.113,9.663 38.326,8.581 C37.257,7.037 35.186,6.394 33.394,7.06 L31.292,7.844 C31.024,7.958 30.697,8.02 30.308,8.02 C29.201,8.02 28.202,7.381 27.764,6.391 L26.835,4.395 C26.146,2.908 24.689,1.984 23.034,1.984 C21.359,1.984 19.834,2.941 19.148,4.42 L18.21,6.433 C17.757,7.413 16.761,8.048 15.673,8.048 C15.413,8.048 15.024,8.014 14.646,7.855 L12.587,7.089 C10.844,6.437 8.779,7.063 7.654,8.611 C6.882,9.729 6.705,11.098 7.183,12.35 L7.977,14.417 C8.473,15.79 7.843,17.268 6.521,17.874 L4.47,18.799 C2.956,19.475 2.018,20.907 2.018,22.536 C2.018,24.123 2.989,25.544 4.553,26.244 L6.602,27.167 C7.93,27.776 8.559,29.253 8.07,30.608 L7.267,32.694 C6.783,33.986 6.956,35.352 7.741,36.434 C8.522,37.563 9.804,38.226 11.183,38.226 C11.694,38.226 12.194,38.135 12.668,37.956 L14.777,37.172 C15.044,37.057 15.37,36.995 15.759,36.995 C16.867,36.995 17.865,37.635 18.303,38.625 L19.232,40.621 C19.921,42.108 21.377,43.031 23.034,43.031 C24.689,43.031 26.146,42.108 26.834,40.623 L27.772,38.608 C28.223,37.63 29.219,36.995 30.308,36.995 C30.568,36.995 30.957,37.029 31.335,37.189 L33.405,37.987 C33.926,38.181 34.428,38.282 34.884,38.282 C36.209,38.282 37.497,37.601 38.328,36.46 C39.099,35.345 39.274,33.962 38.796,32.687 L38.004,30.626 C37.506,29.255 38.135,27.777 39.46,27.17 L41.511,26.245 C43.026,25.568 43.964,24.136 43.964,22.508 C43.964,20.879 43.026,19.447 41.514,18.772 L41.514,18.772 Z M22.991,31.918 C17.713,31.918 13.42,27.697 13.42,22.508 C13.42,17.319 17.713,13.097 22.991,13.097 C28.268,13.097 32.562,17.319 32.562,22.508 C32.562,27.697 28.268,31.918 22.991,31.918 L22.991,31.918 Z M22.991,15.081 C18.826,15.081 15.438,18.413 15.438,22.508 C15.438,26.602 18.826,29.934 22.991,29.934 C27.155,29.934 30.544,26.602 30.544,22.508 C30.544,18.413 27.155,15.081 22.991,15.081 L22.991,15.081 Z"></path>
                        </g>
                    </g>
                </g>
            </g>
        </g>
    </g>
</svg>