<?xml version="1.0" encoding="UTF-8"?>
<svg width="60px" height="60px" viewBox="0 0 60 60" version="1.1" xmlns="http://www.w3.org/2000/svg" xmlns:xlink="http://www.w3.org/1999/xlink">
    <!-- Generator: Sketch 51.2 (57519) - http://www.bohemiancoding.com/sketch -->
    <title>Pen</title>
    <desc>Created with Sketch.</desc>
    <defs></defs>
    <g id="Page-1" stroke="none" stroke-width="1" fill="none" fill-rule="evenodd">
        <g id="Style-Guide-/-UI-Kit" transform="translate(-134.000000, -4613.000000)">
            <rect fill="#FEFEFE" x="0" y="0" width="1350" height="5001"></rect>
            <g id="07.-Icons-🎲" transform="translate(43.000000, 4548.000000)" fill="#353535">
                <g id="Icon-Samples" transform="translate(3.000000, 65.000000)">
                    <g id="Pen" transform="translate(99.000000, 8.000000)">
                        <path d="M41.9456643,9.92400012 L12.1396643,39.4180001 C11.2926643,40.2590001 3.4496643,42.6320001 1.5196643,42.6320001 C1.2006643,42.6320001 0.736664299,42.5920001 0.390664299,42.2500001 C-0.0153357006,41.8490001 -0.475335701,41.3940001 1.1066643,36.1330001 C1.4466643,35.0020001 2.6046643,31.2620001 3.2496643,30.6230001 L33.0556643,1.12800012 C34.5766643,-0.376999875 37.2266643,-0.374999875 38.7446643,1.12800012 L41.9456643,4.29400012 C43.5136643,5.84800012 43.5136643,8.37300012 41.9456643,9.92400012 L41.9456643,9.92400012 Z M7.4296643,39.1910001 L3.4736643,35.2760001 C2.8526643,37.2100001 2.2296643,39.4600001 2.0576643,40.5970001 C3.2846643,40.4260001 5.5186643,39.8020001 7.4296643,39.1910001 L7.4296643,39.1910001 Z M40.5226643,5.70100012 L37.3226643,2.53600012 C36.5616643,1.78300012 35.2376643,1.78300012 34.4776643,2.53500012 L4.7196643,31.9830001 C4.5916643,32.1900001 4.4066643,32.6230001 4.1956643,33.1820001 C4.2016643,33.1870001 4.2086643,33.1890001 4.2136643,33.1940001 L9.5466643,38.4720001 C10.1366643,38.2550001 10.5806643,38.0730001 10.7646643,37.9640001 L40.5236643,8.51700012 C41.3076643,7.74100012 41.3066643,6.47800012 40.5226643,5.70100012 L40.5226643,5.70100012 Z M13.3536643,30.8280001 C13.1576643,31.0220001 12.8996643,31.1200001 12.6426643,31.1200001 C12.3856643,31.1200001 12.1276643,31.0220001 11.9316643,30.8280001 C11.5386643,30.4390001 11.5386643,29.8090001 11.9316643,29.4210001 L32.6746643,8.89400012 C33.0676643,8.50500012 33.7036643,8.50500012 34.0966643,8.89400012 C34.4896643,9.28300012 34.4896643,9.91300012 34.0966643,10.3010001 L13.3536643,30.8280001 L13.3536643,30.8280001 Z" id="Shape"></path>
                    </g>
                </g>
            </g>
        </g>
    </g>
</svg>