<?xml version="1.0" encoding="UTF-8"?>
<svg width="60px" height="60px" viewBox="0 0 60 60" version="1.1" xmlns="http://www.w3.org/2000/svg" xmlns:xlink="http://www.w3.org/1999/xlink">
    <!-- Generator: Sketch 51.2 (57519) - http://www.bohemiancoding.com/sketch -->
    <title>Pencil</title>
    <desc>Created with Sketch.</desc>
    <defs></defs>
    <g id="Page-1" stroke="none" stroke-width="1" fill="none" fill-rule="evenodd">
        <g id="Style-Guide-/-UI-Kit" transform="translate(-241.000000, -4613.000000)">
            <rect fill="#FEFEFE" x="0" y="0" width="1350" height="5001"></rect>
            <g id="07.-Icons-🎲" transform="translate(43.000000, 4548.000000)" fill="#353535">
                <g id="Icon-Samples" transform="translate(3.000000, 65.000000)">
                    <g id="Pencil" transform="translate(203.000000, 8.000000)">
                        <path d="M41.38366,10.038 L37.63766,13.824 C37.63766,13.824 37.63766,13.825 37.63666,13.825 C37.63666,13.826 37.63566,13.826 37.63566,13.827 L11.97766,39.756 C11.13966,40.603 3.40266003,42.995 1.49866003,42.995 C1.18466003,42.995 0.726660028,42.954 0.384660028,42.61 C-0.0153399722,42.205 -0.468339972,41.747 1.09166003,36.445 C1.42666003,35.306 2.56966003,31.537 3.20766003,30.893 L32.61366,1.175 C33.36366,0.417 34.36066,0 35.41966,0 C36.47966,0 37.47566,0.418 38.22566,1.175 L41.38366,4.366 C42.13366,5.123 42.54666,6.131 42.54666,7.202 C42.54666,8.274 42.13366,9.281 41.38366,10.038 L41.38366,10.038 Z M2.03066003,40.943 C3.24066003,40.771 5.44466003,40.142 7.33066003,39.527 L3.42766003,35.582 C2.81466003,37.531 2.19966003,39.798 2.03066003,40.943 L2.03066003,40.943 Z M4.14166003,33.468 L9.41966003,38.802 C10.00166,38.584 10.43966,38.4 10.62166,38.29 L35.53166,13.116 L29.56766,7.089 L4.65766003,32.264 C4.53066003,32.472 4.34966003,32.907 4.14166003,33.468 L4.14166003,33.468 Z M39.98066,5.784 L36.82266,2.593 C36.07266,1.835 34.76666,1.836 34.01666,2.593 L30.97066,5.671 L36.93466,11.698 L39.98066,8.62 C40.35566,8.241 40.56266,7.738 40.56266,7.202 C40.56266,6.667 40.35566,6.163 39.98066,5.784 L39.98066,5.784 Z M38.36566,15.671 C38.75366,15.279 39.38066,15.279 39.76866,15.671 C40.15666,16.063 40.15666,16.697 39.76866,17.089 L31.06166,25.888 C30.86766,26.084 30.61366,26.182 30.35966,26.182 C30.10566,26.182 29.85166,26.084 29.65866,25.888 C29.27066,25.496 29.27066,24.862 29.65866,24.47 L38.36566,15.671 L38.36566,15.671 Z" id="Shape"></path>
                    </g>
                </g>
            </g>
        </g>
    </g>
</svg>