<?xml version="1.0" encoding="UTF-8"?>
<svg width="60px" height="60px" viewBox="0 0 60 60" version="1.1" xmlns="http://www.w3.org/2000/svg" xmlns:xlink="http://www.w3.org/1999/xlink">
    <!-- Generator: Sketch 51.2 (57519) - http://www.bohemiancoding.com/sketch -->
    <title>Phone</title>
    <desc>Created with Sketch.</desc>
    <defs></defs>
    <g id="Page-1" stroke="none" stroke-width="1" fill="none" fill-rule="evenodd">
        <g id="Style-Guide-/-UI-Kit" transform="translate(-134.000000, -4705.000000)">
            <rect fill="#FEFEFE" x="0" y="0" width="1350" height="5001"></rect>
            <g id="07.-Icons-🎲" transform="translate(38.000000, 4548.000000)" fill="#353535">
                <g id="Icon-Samples" transform="translate(0.000000, 65.000000)">
                    <g id="Phone" transform="translate(116.000000, 94.000000)">
                        <path d="M29.983,10.374 C29.428,10.374 28.978,9.926 28.978,9.375 C28.978,5.307 25.648,1.998 21.553,1.998 C20.998,1.998 20.548,1.551 20.548,0.999 C20.548,0.447 20.998,-8.8817842e-16 21.553,-8.8817842e-16 C26.756,-8.8817842e-16 30.989,4.205 30.989,9.375 C30.989,9.926 30.539,10.374 29.983,10.374 L29.983,10.374 Z M26.03,11.027 C26.03,11.579 25.58,12.026 25.024,12.026 C24.468,12.026 24.018,11.579 24.018,11.027 C24.018,8.962 22.327,7.282 20.249,7.282 C19.693,7.282 19.244,6.835 19.244,6.283 C19.244,5.731 19.693,5.284 20.249,5.284 C23.437,5.284 26.03,7.86 26.03,11.027 L26.03,11.027 Z M21.255,15.038 L21.255,52.006 C21.255,54.76 18.777,57.001 15.731,57.001 L-3.476,57.001 C-6.522,57.001 -9,54.76 -9,52.006 L-9,15.038 C-9,12.284 -6.522,10.042 -3.476,10.042 L15.731,10.042 C18.777,10.042 21.255,12.284 21.255,15.038 L21.255,15.038 Z M19.244,15.038 C19.244,13.385 17.667,12.041 15.731,12.041 L-3.476,12.041 C-5.412,12.041 -6.988,13.385 -6.988,15.038 L-6.988,43.993 L19.244,43.993 L19.244,15.038 L19.244,15.038 Z M19.244,45.992 L-6.988,45.992 L-6.988,52.006 C-6.988,53.659 -5.412,55.003 -3.476,55.003 L15.731,55.003 C17.667,55.003 19.244,53.659 19.244,52.006 L19.244,45.992 L19.244,45.992 Z M6.127,52.555 C5.026,52.555 4.133,51.668 4.133,50.574 C4.133,49.481 5.026,48.594 6.127,48.594 C7.228,48.594 8.121,49.481 8.121,50.574 C8.121,51.668 7.228,52.555 6.127,52.555 L6.127,52.555 Z" id="Shape"></path>
                    </g>
                </g>
            </g>
        </g>
    </g>
</svg>