<?xml version="1.0" encoding="UTF-8"?>
<svg width="60px" height="60px" viewBox="0 0 60 60" version="1.1" xmlns="http://www.w3.org/2000/svg" xmlns:xlink="http://www.w3.org/1999/xlink">
    <!-- Generator: Sketch 51.2 (57519) - http://www.bohemiancoding.com/sketch -->
    <title>Timer</title>
    <desc>Created with Sketch.</desc>
    <defs></defs>
    <g id="Page-1" stroke="none" stroke-width="1" fill="none" fill-rule="evenodd">
        <g id="Style-Guide-/-UI-Kit" transform="translate(-436.000000, -4613.000000)">
            <rect fill="#FEFEFE" x="0" y="0" width="1350" height="5001"></rect>
            <g id="07.-Icons-🎲" transform="translate(43.000000, 4548.000000)" fill="#353535">
                <g id="Icon-Samples" transform="translate(3.000000, 65.000000)">
                    <g id="Timer" transform="translate(399.000000, 9.000000)">
                        <path d="M20.994,41.985 C9.418,41.985 0,32.567 0,20.992 C0,15.125 2.483,9.483 6.812,5.515 C7.223,5.139 7.86,5.166 8.236,5.577 C8.612,5.987 8.584,6.624 8.174,7.001 C4.26,10.588 2.016,15.688 2.016,20.992 C2.016,31.457 10.529,39.969 20.994,39.969 C31.457,39.969 39.97,31.457 39.97,20.992 C39.97,10.868 31.995,2.594 22,2.066 L22,7.313 C22,7.87 21.55,8.321 20.993,8.321 C20.436,8.321 19.985,7.87 19.985,7.313 L19.985,1.1 C19.985,1.082 19.994,1.068 19.995,1.051 C19.994,1.036 19.986,1.023 19.986,1.008 C19.986,0.451 20.437,0 20.994,0 C32.569,0 41.985,9.417 41.985,20.992 C41.985,32.567 32.569,41.985 20.994,41.985 L20.994,41.985 Z M22.514,21.705 C22.317,21.902 22.059,22 21.802,22 C21.544,22 21.286,21.902 21.089,21.705 L13.329,13.946 C12.935,13.552 12.935,12.914 13.329,12.521 C13.723,12.127 14.36,12.127 14.754,12.521 L22.514,20.28 C22.908,20.673 22.908,21.311 22.514,21.705 L22.514,21.705 Z" id="Shape"></path>
                    </g>
                </g>
            </g>
        </g>
    </g>
</svg>