<?xml version="1.0" encoding="UTF-8"?>
<svg width="60px" height="60px" viewBox="0 0 60 60" version="1.1" xmlns="http://www.w3.org/2000/svg" xmlns:xlink="http://www.w3.org/1999/xlink">
    <!-- Generator: Sketch 51.2 (57519) - http://www.bohemiancoding.com/sketch -->
    <title>Timer 2</title>
    <desc>Created with Sketch.</desc>
    <defs></defs>
    <g id="Page-1" stroke="none" stroke-width="1" fill="none" fill-rule="evenodd">
        <g id="Style-Guide-/-UI-Kit" transform="translate(-541.000000, -4613.000000)">
            <rect fill="#FEFEFE" x="0" y="0" width="1350" height="5001"></rect>
            <g id="07.-Icons-🎲" transform="translate(43.000000, 4548.000000)" fill="#353535">
                <g id="Icon-Samples" transform="translate(3.000000, 65.000000)">
                    <g id="Timer-2" transform="translate(502.000000, 6.000000)">
                        <path d="M41.339,11.51 C41.081,11.51 40.823,11.413 40.626,11.217 L36.593,7.214 C36.199,6.823 36.199,6.19 36.593,5.8 C36.986,5.409 37.624,5.409 38.018,5.8 L42.051,9.803 C42.445,10.194 42.445,10.827 42.051,11.217 C41.854,11.413 41.596,11.51 41.339,11.51 L41.339,11.51 Z M28.634,2 L15.336,2 C14.779,2 14.328,1.552 14.328,1 C14.328,0.448 14.78,0 15.336,0 L28.634,0 C29.191,0 29.641,0.448 29.641,1 C29.641,1.553 29.19,2 28.634,2 L28.634,2 Z M42.977,25.167 C42.977,36.654 33.561,46 21.986,46 C10.41,46 0.992,36.654 0.992,25.167 C0.992,13.68 10.41,4.334 21.986,4.334 C33.561,4.334 42.977,13.68 42.977,25.167 L42.977,25.167 Z M3.008,25.167 C3.008,35.552 11.522,44 21.986,44 C32.449,44 40.962,35.552 40.962,25.167 C40.962,14.782 32.449,6.334 21.986,6.334 C11.522,6.334 3.008,14.782 3.008,25.167 L3.008,25.167 Z M22.992,12.566 L22.992,24.167 L29.418,24.167 C29.975,24.167 30.426,24.615 30.426,25.167 C30.426,25.719 29.974,26.167 29.418,26.167 L22.045,26.166 C22.035,26.166 22.026,26.161 22.016,26.161 C22.005,26.161 21.996,26.167 21.985,26.167 C21.428,26.167 20.977,25.719 20.977,25.167 L20.977,12.566 C20.977,12.014 21.428,11.566 21.985,11.566 C22.542,11.566 22.992,12.014 22.992,12.566 L22.992,12.566 Z" id="Shape"></path>
                    </g>
                </g>
            </g>
        </g>
    </g>
</svg>