<?xml version="1.0" encoding="UTF-8"?>
<svg width="1280px" height="445px" viewBox="0 0 1280 445" version="1.1" xmlns="http://www.w3.org/2000/svg" xmlns:xlink="http://www.w3.org/1999/xlink">
    <!-- Generator: Sketch 51.2 (57519) - http://www.bohemiancoding.com/sketch -->
    <title>BG-image</title>
    <desc>Created with Sketch.</desc>
    <defs>
        <polygon id="path-1" points="0.06 0.559980796 15.5695531 0.559980796 15.5695531 19.1379477 0.06 19.1379477"></polygon>
        <polygon id="path-3" points="0.06 0.470316916 268.514276 0.470316916 268.514276 268 0.06 268"></polygon>
        <polygon id="path-5" points="0.06 0.520861021 229.175477 0.520861021 229.175477 175 0.06 175"></polygon>
        <polygon id="path-7" points="0.06 0.0985261413 79.2705795 0.0985261413 79.2705795 45.1109431 0.06 45.1109431"></polygon>
        <polygon id="path-9" points="0.06 0.559980796 15.5695531 0.559980796 15.5695531 19.1379477 0.06 19.1379477"></polygon>
        <polygon id="path-11" points="0.06 0.470316916 268.514276 0.470316916 268.514276 268 0.06 268"></polygon>
        <polygon id="path-13" points="0.06 0.520861021 229.175477 0.520861021 229.175477 175 0.06 175"></polygon>
        <polygon id="path-15" points="0.06 0.0985261413 79.2705795 0.0985261413 79.2705795 45.1109431 0.06 45.1109431"></polygon>
    </defs>
    <g id="Page-1" stroke="none" stroke-width="1" fill="none" fill-rule="evenodd">
        <g id="404---Desktop" transform="translate(0.000000, -473.000000)">
            <g id="BG-image" transform="translate(0.000000, 473.000000)">
                <g id="145749-OTPW0S-360">
                    <path d="M32.341,212.525 C32.791,213.744 33.37,214.775 34.093,215.398 C37.611,218.428 35.977,209.258 35.684,208.193 C35.251,206.619 34.737,205.066 34.146,203.545 C33.256,201.256 31.244,201.108 31.072,203.671 C30.932,205.742 31.281,209.654 32.341,212.525" id="Fill-97" fill="#4D565A"></path>
                    <path d="M21.875,214.459 C22.455,215.622 23.141,216.585 23.928,217.127 C27.752,219.758 25.138,210.818 24.731,209.791 C24.131,208.273 23.453,206.786 22.701,205.337 C21.569,203.157 19.553,203.229 19.658,205.794 C19.743,207.868 20.512,211.72 21.875,214.459" id="Fill-98" fill="#4D565A"></path>
                    <g id="Group-102" transform="translate(0.000000, 206.000000)">
                        <mask id="mask-2" fill="white">
                            <use xlink:href="#path-1"></use>
                        </mask>
                        <g id="Clip-100"></g>
                        <path d="M11.337,11.113 C12.014,12.222 12.78,13.122 13.611,13.594 C17.647,15.887 14.274,7.205 13.781,6.217 C13.052,4.756 12.248,3.332 11.375,1.953 C10.06,-0.121 8.057,0.123 8.382,2.671 C8.646,4.729 9.743,8.501 11.337,11.113" id="Fill-99" fill="#4D565A" mask="url(#mask-2)"></path>
                        <path d="M0.818,16.585 C1.592,17.629 2.436,18.456 3.306,18.852 C7.532,20.772 3.392,12.429 2.812,11.489 C1.955,10.1 1.026,8.754 0.031,7.459 C-1.465,5.512 -3.438,5.935 -2.884,8.442 C-2.437,10.47 -1.005,14.127 0.818,16.585" id="Fill-101" fill="#4D565A" mask="url(#mask-2)"></path>
                    </g>
                    <path d="M43.192,210.278 C43.723,211.465 44.369,212.455 45.132,213.028 C48.844,215.815 46.602,206.775 46.239,205.732 C45.701,204.19 45.085,202.677 44.394,201.197 C43.353,198.973 41.335,198.961 41.334,201.528 C41.333,203.604 41.943,207.484 43.192,210.278" id="Fill-103" fill="#4D565A"></path>
                    <path d="M54.127,206.005 C54.835,207.095 55.626,207.974 56.47,208.422 C60.569,210.6 56.953,202.017 56.433,201.043 C55.663,199.603 54.819,198.202 53.907,196.849 C52.534,194.812 50.539,195.112 50.936,197.649 C51.257,199.7 52.46,203.438 54.127,206.005" id="Fill-104" fill="#4D565A"></path>
                    <path d="M203.789,231.425 C209.937,229.808 215.451,225.891 219.001,220.617 C221.622,216.724 223.074,211.269 220.302,207.481 C217.814,204.083 213.031,203.456 208.821,203.563 C205.111,203.656 201.41,204.093 197.779,204.863 C194.401,205.581 191.038,206.608 188.123,208.461 C185.208,210.313 182.758,213.068 181.814,216.39 C177.906,230.139 194.009,233.996 203.789,231.425" id="Fill-105" fill="#5F6A6E"></path>
                    <path d="M189.532,177.614 C194.241,182.659 196.025,190.087 200.493,195.479 C203.042,198.557 206.666,201.453 206.594,205.45 C206.553,207.704 205.277,209.744 203.867,211.504 C198.804,217.822 191.364,222.19 183.379,223.532 C181.102,223.915 178.739,224.057 176.502,223.482 C174.266,222.907 172.157,221.54 171.087,219.493 C170.141,217.683 170.079,215.54 169.357,213.63 C167.811,209.539 163.577,207.183 159.534,205.516 C155.729,203.947 151.628,202.508 148.587,199.603 C145.641,196.786 146.881,190.79 147.722,187.22 C148.972,181.915 151.189,176.341 154.937,172.292 C157.258,169.784 159.353,168.552 162.761,168.89 C166.936,169.303 171.087,169.946 175.191,170.824 C179.788,171.807 184.483,173.164 188.064,176.209 C188.584,176.652 189.072,177.122 189.532,177.614" id="Fill-106" fill="#B8C2C6"></path>
                    <path d="M53.747,154.502 C51.975,158.188 51.613,162.398 51.75,166.486 C52.014,174.371 54.014,182.097 56.408,189.614 C59.375,198.928 62.967,208.048 67.289,216.814 C69.378,221.054 71.706,225.299 75.221,228.459 C79.654,232.446 85.58,234.346 91.438,235.457 C100.342,237.146 109.669,237.238 118.358,234.659 C121.028,233.866 123.665,232.804 125.852,231.079 C129.391,228.29 131.456,223.991 132.548,219.62 C133.595,215.432 133.846,210.989 132.798,206.801 C130.471,197.494 122.386,190.998 116.368,183.526 C108.752,174.072 104.194,162.526 97.227,152.584 C94.156,148.201 90.479,144.03 85.656,141.712 C74.988,136.584 58.768,144.062 53.747,154.502" id="Fill-107" fill="#75848A"></path>
                    <path d="M163.36,122.077 C162.378,122.098 161.019,122.278 160.763,121.33 C160.675,121.004 160.785,120.662 160.879,120.338 C161.432,118.437 161.349,116.088 159.81,114.844 C158.347,113.661 156.231,113.952 154.378,114.274 C154.021,114.336 153.645,114.396 153.302,114.277 C152.157,113.88 152.452,112.218 152.211,111.03 C151.808,109.041 149.275,108.072 147.35,108.716 C145.426,109.361 144.092,111.123 143.186,112.938 C141.89,115.537 141.236,118.432 141.255,121.323 C139.862,120.843 138.452,120.853 137.358,121.818 C136.734,122.368 136.361,123.138 135.966,123.869 C133.644,128.167 129.928,131.827 125.325,133.46 C120.754,135.082 117.802,132.956 113.518,132.918 C109.166,132.881 109.042,138.316 110.238,141.691 C111.527,145.331 114.453,148.151 117.567,150.434 C123.329,154.658 130.406,157.575 137.513,156.841 C144.076,156.163 150.223,152.231 153.593,146.558 C154.439,145.133 155.126,143.577 155.294,141.928 C155.361,141.28 155.345,140.635 155.266,139.996 C159.091,139.268 162.442,136.821 164.954,133.832 C166.564,131.917 167.935,129.6 167.88,127.099 C167.826,124.597 165.861,122.025 163.36,122.077" id="Fill-108" fill="#C7D2D4"></path>
                    <path d="M137.244,232.441 C138.263,232.94 139.154,233.525 139.535,234.208 C139.821,234.719 139.759,235.345 139.693,235.926 C139.27,239.693 139.064,243.626 140.438,247.159 C142.771,253.161 149.555,256.763 155.981,256.348 C162.408,255.933 168.274,252.022 172.104,246.845 C175.934,241.667 177.923,235.335 178.966,228.979 C179.703,224.485 179.994,219.837 178.935,215.406 C177.21,208.19 171.924,202.107 165.426,198.525 C155.904,193.276 146.34,193.342 136.826,198.476 C131.863,201.153 127.357,204.593 122.568,207.568 C118.745,209.944 114.68,212.071 111.542,215.298 C110.616,216.25 109.749,217.358 109.547,218.67 C109.319,220.157 110.011,221.677 111.069,222.745 C112.127,223.814 113.513,224.495 114.915,225.041 C118.122,226.289 121.526,226.929 124.845,227.839 C127.755,228.638 130.607,229.647 133.372,230.858 C134.279,231.255 135.877,231.771 137.244,232.441" id="Fill-109" fill="#C7D2D4"></path>
                    <path d="M70.68,158.123 C64.071,153.688 57.678,158.564 57.211,165.656 C56.424,177.61 61.532,189.037 65.503,200.34 C69.045,210.421 72.915,223.182 83.368,228.088 C85.693,229.18 88.372,229.961 90.811,229.155 C93.428,228.29 95.207,225.707 95.756,223.006 C96.304,220.305 95.804,217.5 95.052,214.848 C93.295,208.648 89.784,203.247 87.727,197.204 C85.59,190.926 83.129,184.759 81.25,178.395 C80.146,174.658 79.24,170.846 77.701,167.266 C76.162,163.687 73.915,160.294 70.68,158.123" id="Fill-110" fill="#8A979D"></path>
                    <path d="M140.808,149.401 C140.061,149.253 139.316,149.094 138.575,148.915 C134.513,147.932 130.582,146.342 126.431,145.852 C126.311,145.838 126.178,145.827 126.077,145.896 C125.822,146.068 126.038,146.46 126.26,146.672 C128.037,148.363 129.708,150.188 131.777,151.486 C133.899,152.817 136.084,154.091 138.464,154.907 C140.3,155.536 142.379,156.001 144.328,155.832 C145.25,155.751 145.517,155.362 146.057,154.74 C146.734,153.961 147.548,153.323 148.192,152.505 C148.478,152.142 148.754,151.667 148.57,151.243 C148.43,150.921 148.071,150.758 147.732,150.667 C145.496,150.068 143.09,149.853 140.808,149.401" id="Fill-111" fill="#B8C2C6"></path>
                    <path d="M80.966,182.576 C83.124,192.312 86.529,202.004 92.794,209.762 C99.059,217.52 108.561,223.127 118.528,222.843 C125.135,222.655 131.5,219.924 136.794,215.968 C142.089,212.012 146.396,206.876 150.197,201.47 C154.507,195.34 158.231,188.799 161.304,181.964 C163.374,177.361 165.178,172.279 164.076,167.354 C162.848,161.866 158.184,157.713 153.084,155.343 C147.985,152.972 142.362,152.028 136.938,150.54 C131.516,149.052 126.027,146.855 122.308,142.637 C118.911,138.783 117.312,133.601 113.897,129.762 C108.859,124.099 100.148,122.307 93.045,124.955 C71.438,133.007 77.167,165.44 80.966,182.576" id="Fill-112" fill="#C7D2D4"></path>
                    <path d="M108.127,150.04 C111.1,148.885 114.019,147.263 115.893,144.683 C117.767,142.102 118.353,138.393 116.626,135.712 C115.415,133.832 113.308,132.733 111.211,131.954 C102.294,128.638 90.419,129.596 82.976,135.96 C74.373,143.315 80.918,151.052 89.906,152.206 C96.033,152.993 102.364,152.278 108.127,150.04" id="Fill-113" fill="#B8C2C6"></path>
                    <path d="M142.779,186.927 C138.232,192.247 132.722,196.677 126.778,200.343 C120.552,204.182 113.477,206.607 106.997,210.115 C104.947,211.226 102.893,212.41 101.286,214.1 C100.834,214.574 100.403,215.126 100.327,215.777 C100.262,216.339 100.47,216.896 100.723,217.4 C102.623,221.207 107.128,223.222 111.381,223.095 C117.287,222.919 123.209,219.242 127.799,215.813 C135.912,209.749 143.747,203.197 150.195,195.386 C156.643,187.575 161.682,178.414 163.592,168.467 C164.213,165.237 164.44,161.664 162.686,158.881 C161.409,156.858 157.061,154.567 154.956,156.786 C153.363,158.464 153.899,164.121 153.364,166.439 C151.619,174.005 147.808,181.043 142.779,186.927" id="Fill-114" fill="#A0ACB0"></path>
                    <path d="M117.421,154.205 C118.901,153.136 120.506,152.108 122.319,151.893 C124.76,151.603 127.113,152.832 129.158,154.195 C133.238,156.913 136.848,160.333 139.782,164.26 C140.925,165.79 142.017,167.661 141.526,169.506 C141.144,170.95 139.888,171.97 138.68,172.849 C134.497,175.894 130.004,178.512 125.292,180.65 C124.315,181.093 123.303,181.522 122.231,181.583 C120.682,181.669 119.19,180.973 117.903,180.106 C115.41,178.427 113.472,176.108 111.573,173.813 C109.951,171.851 106.788,169.444 106.021,167.005 C105.228,164.479 108.075,162.554 109.65,160.929 C112.037,158.466 114.641,156.213 117.421,154.205" id="Fill-115" fill="#75848A"></path>
                    <path d="M68.748,64.105 C62.587,67.308 57.048,71.607 53.008,76.109 C47.691,82.035 44.737,89.771 43.314,97.604 C41.629,106.889 41.995,116.676 45.374,125.486 C48.753,134.297 55.311,142.042 63.91,145.931 C72.098,149.634 81.477,149.679 90.394,148.558 C95.927,147.863 101.443,146.734 106.599,144.611 C120.751,138.782 131.363,125.107 133.498,109.952 C135.194,97.905 131.632,85.21 123.918,75.804 C116.763,67.08 107.304,63.007 96.786,59.817 C87.915,57.126 77.679,59.463 68.748,64.105" id="Fill-116" fill="#D5E0E0"></path>
                    <path d="M93.994,193.913 C98.756,198.593 105.86,201.108 112.334,199.475 C113.867,199.088 115.448,198.396 116.259,197.039 C117.042,195.729 116.932,194.031 116.323,192.632 C115.715,191.232 114.668,190.074 113.603,188.981 C107.924,183.162 101.149,178.415 93.74,175.066 C92.387,174.455 90.949,173.878 89.467,173.98 C80.595,174.591 91.221,191.188 93.994,193.913" id="Fill-117" fill="#B8C2C6"></path>
                    <path d="M136.476,190.523 C135.926,191.169 135.362,191.838 135.106,192.647 C134.512,194.529 135.746,196.494 137.14,197.893 C138.605,199.362 140.319,200.584 142.188,201.489 C143.211,201.984 144.329,202.393 145.459,202.277 C147.024,202.118 148.309,201.001 149.389,199.858 C151.685,197.432 153.591,194.639 155.014,191.617 C155.892,189.753 156.599,187.692 156.253,185.661 C155.727,182.565 152.949,180.396 150.224,178.834 C147.055,177.019 144.325,179.932 142.633,182.528 C140.77,185.386 138.702,187.911 136.476,190.523" id="Fill-118" fill="#5F6A6E"></path>
                    <path d="M119.537,157.801 C120.333,157.243 121.178,156.693 122.139,156.542 C123.417,156.341 124.729,156.895 125.687,157.766 C125.951,158.007 126.203,158.289 126.284,158.637 C126.457,159.38 125.813,160.04 125.231,160.533 C122.431,162.901 119.631,165.269 116.831,167.637 C115.47,168.788 113.726,170.213 111.816,169.61 C110.162,169.088 109.728,167.714 110.361,166.203 C111.754,162.882 116.689,159.793 119.537,157.801" id="Fill-119" fill="#5F6A6E"></path>
                    <path d="M142.476,181.345 C141.707,180.735 140.544,180.008 140.951,179.114 C141.091,178.807 141.394,178.613 141.673,178.423 C143.311,177.311 144.744,175.448 144.351,173.508 C143.978,171.665 142.162,170.54 140.529,169.607 C140.214,169.428 139.886,169.234 139.698,168.924 C139.068,167.888 140.355,166.795 140.927,165.726 C141.884,163.937 140.55,161.575 138.656,160.845 C136.762,160.116 134.611,160.622 132.756,161.444 C130.102,162.62 127.752,164.435 125.924,166.674 C125.156,165.417 124.064,164.525 122.606,164.571 C121.775,164.598 120.996,164.953 120.226,165.265 C115.697,167.096 110.501,167.548 105.913,165.873 C100.162,163.772 99.298,155.765 91.996,159.941 C89.677,161.268 87.979,163.498 86.849,165.917 C83.492,173.107 85.188,182.339 90.883,187.864 C97.215,194.007 110.964,196.983 119.346,193.983 C120.907,193.424 122.428,192.664 123.608,191.5 C124.073,191.042 124.472,190.536 124.818,189.993 C128.23,191.87 132.372,192.121 136.212,191.419 C138.674,190.969 141.207,190.058 142.759,188.095 C144.311,186.132 144.437,182.899 142.476,181.345" id="Fill-120" fill="#E4EDED"></path>
                    <path d="M84.089,79.952 C76.077,84.712 68.072,90.973 64.281,99.729 C60.613,108.199 60.223,118.226 64.059,126.71 C68.121,135.693 77.063,142.477 86.911,143.576 C97.566,144.765 109.279,139.533 117.019,132.46 C124.93,125.231 130.259,114.963 130.568,104.25 C130.877,93.539 125.813,82.584 116.865,76.688 C114.251,74.965 111.324,73.668 108.234,73.167 C103.758,72.442 99.105,73.348 95.04,75.235 C91.393,76.927 87.629,77.849 84.089,79.952" id="Fill-121" fill="#C7D2D4"></path>
                    <path d="M83.281,84.695 C72.554,91.991 64.617,103.124 66.091,116.671 C66.889,124 71.701,130.618 78.118,134.246 C84.535,137.875 92.368,138.639 99.558,137.012 C109.044,134.865 117.513,128.568 122.3,120.102 C128.782,108.638 129.079,91.385 118.533,82.125 C108.69,73.483 92.9,78.153 83.281,84.695" id="Fill-122" fill="#2A629F"></path>
                    <path d="M101.761,91.607 C101.277,92.362 100.869,93.202 100.83,94.098 C100.715,96.732 103.542,98.335 105.564,100.029 C108.446,102.444 110.183,106.171 110.179,109.932 C110.176,112.345 109.608,115.118 111.248,116.89 C112.78,118.545 115.558,118.336 117.489,117.171 C120.853,115.143 122.373,110.973 122.513,107.047 C122.737,100.731 119.484,94.924 116.099,89.833 C112.498,84.417 104.812,86.841 101.761,91.607" id="Fill-123" fill="#24B5D8"></path>
                    <path d="M81.623,98.521 C82.5,99.308 83.82,99.295 84.987,99.138 C88.01,98.731 90.941,97.652 93.506,96.001 C98.669,92.677 94.796,85.47 89.226,86.791 C85.879,87.585 77.458,94.785 81.623,98.521" id="Fill-124" fill="#24B5D8"></path>
                    <path d="M126.27,188.982 C126.606,190.473 126.858,192.385 125.571,193.21 C124.604,193.831 123.237,193.363 122.506,192.476 C121.775,191.588 121.532,190.406 121.355,189.271 C120.608,184.458 120.643,179.563 120.679,174.693 C120.697,172.248 120.72,169.77 121.365,167.411 C121.79,165.858 123.802,161.66 126.029,163.16 C127.83,164.372 126.068,168.663 125.808,170.165 C124.729,176.385 124.879,182.823 126.27,188.982" id="Fill-125" fill="#A0ACB0"></path>
                    <path d="M149.846,128.785 C152.058,130.793 154.302,132.898 155.886,135.457 C157.001,137.256 159.39,139.759 158.514,142.021 C157.98,143.4 156.152,144.225 154.9,143.439 C153.787,142.741 153.208,141.167 152.329,140.202 C151.284,139.057 150.132,138.053 149.166,136.822 C147.187,134.302 145.608,132.133 143.263,130.012 C140.764,127.752 138.491,125.37 135.769,123.348 C135.506,123.153 135.224,122.937 135.134,122.621 C135.051,122.33 135.152,122.018 135.285,121.746 C135.846,120.599 137.029,119.781 138.3,119.66 C140.281,119.472 142.05,120.844 143.459,122.249 C145.644,124.427 147.532,126.684 149.846,128.785" id="Fill-126" fill="#A0ACB0"></path>
                    <path d="M48.054,106.149 C48.083,101.678 49.29,97.099 52.122,93.638 C52.854,92.742 54.164,91.884 55.062,92.614 C55.773,93.192 55.601,94.302 55.37,95.189 C53.579,102.073 52.27,109.367 54.064,116.25 C54.373,117.434 54.774,118.617 54.76,119.84 C54.754,120.357 54.658,120.904 54.312,121.288 C53.75,121.91 52.707,121.859 52.002,121.404 C49.938,120.072 49.587,116.69 49.089,114.519 C48.458,111.774 48.035,108.971 48.054,106.149" id="Fill-127" fill="#B8C2C6"></path>
                    <path d="M95.384,179.648 C95.421,181.513 95.85,183.575 97.367,184.661 C105.147,190.229 105.589,180.337 106.196,175.077 C106.291,174.254 106.383,173.404 106.14,172.613 C105.335,169.992 100.634,168.862 98.363,170.173 C95.641,171.744 95.331,176.931 95.384,179.648" id="Fill-128" fill="#2A629F"></path>
                    <path d="M40.815,116.948 C39.567,117.132 38.199,117.458 37.487,118.499 C36.842,119.442 36.938,120.721 37.327,121.795 C38.711,125.621 43.002,127.475 46.951,128.455 C51.255,129.523 55.69,130.064 60.125,130.06 C61.275,130.059 62.463,130.013 63.507,129.529 C65.71,128.507 66.661,125.649 65.985,123.316 C65.31,120.983 63.33,119.204 61.118,118.203 C58.26,116.91 55.55,116.912 52.526,116.907 C48.553,116.9 44.806,116.36 40.815,116.948" id="Fill-129" fill="#75848A"></path>
                    <path d="M59.479,126.473 C59.955,126.917 60.566,127.274 61.215,127.241 C61.885,127.207 62.473,126.76 62.874,126.224 C64.471,124.085 63.231,119.982 60.135,120.485 C57.12,120.975 57.777,124.885 59.479,126.473" id="Fill-130" fill="#5F6A6E"></path>
                    <path d="M153.01,223.175 C152.384,223.771 151.765,224.504 151.77,225.369 C151.774,226.392 152.704,227.228 153.702,227.448 C154.701,227.668 155.739,227.409 156.709,227.086 C159.326,226.216 161.767,224.88 164.079,223.377 C166.244,221.97 176.666,213.183 169.118,212.563 C166.114,212.316 164.391,214.185 162.327,216.008 C159.384,218.604 155.848,220.466 153.01,223.175" id="Fill-131" fill="#B8C2C6"></path>
                    <g id="Group-135" transform="translate(0.000000, 177.000000)">
                        <mask id="mask-4" fill="white">
                            <use xlink:href="#path-3"></use>
                        </mask>
                        <g id="Clip-133"></g>
                        <path d="M178.813,6.871 C178.2,8.248 177.681,9.79 178.094,11.24 C178.194,11.593 178.357,11.942 178.637,12.179 C179.081,12.555 179.746,12.575 180.288,12.364 C180.83,12.152 181.271,11.746 181.671,11.324 C183.208,9.708 187.358,3.431 185.331,1.155 C182.729,-1.765 179.415,5.516 178.813,6.871" id="Fill-132" fill="#A0ACB0" mask="url(#mask-4)"></path>
                        <path d="M41.745,98.551 C49.221,99.897 58.026,101.776 63.533,96.544 C65.102,95.053 66.208,93.104 67.898,91.751 C71.01,89.259 75.382,89.28 79.361,89.533 C95.691,90.568 111.9,93.483 127.568,98.201 C130.411,99.057 133.622,100.344 134.501,103.179 C135.218,105.491 134.069,108.025 134.563,110.396 C135.199,113.45 138.258,115.272 141.021,116.721 C149.233,121.024 157.445,125.327 165.658,129.63 C168.851,131.304 172.239,133.022 175.84,132.856 C179.253,132.7 182.441,130.85 185.858,130.843 C190.596,130.833 194.543,134.278 197.998,137.52 C205.416,144.478 212.833,151.436 220.251,158.394 C221.919,159.958 223.682,161.696 224.035,163.956 C224.274,165.484 223.821,167.027 223.714,168.571 C223.323,174.218 227.434,179.036 231.022,183.414 C233.577,186.53 234.417,190.179 237.645,192.906 C241.818,196.434 249.186,196.741 252.854,200.989 C255.106,203.598 256.072,208.013 257.367,211.153 C259.155,215.489 260.942,219.824 262.73,224.16 C264.539,228.547 266.35,232.939 267.771,237.467 C268.349,239.308 268.859,241.313 268.214,243.132 C267.367,245.519 264.848,246.804 263.112,248.647 C259.72,252.252 259.112,258.345 260.067,262.995 C261.225,268.631 260.963,274.125 260.408,279.921 C260.044,283.72 259.173,288.04 255.855,289.927 C254.181,290.879 252.179,291.007 250.254,291.109 C174.736,295.114 99.04,292.715 23.456,290.211 C18.328,290.041 12.739,289.695 8.914,286.273 C6.319,283.953 4.972,280.563 3.953,277.234 C1.417,268.949 0.38,260.289 -0.577,251.677 C-5.6,206.511 -8.75,161.137 -10.018,115.708 C-10.672,92.245 26.173,95.746 41.745,98.551" id="Fill-134" fill="#2A629F" mask="url(#mask-4)"></path>
                    </g>
                    <path d="M76.067,343.295 C74.407,350.142 78.595,357.407 83.394,362.811 C98.57,379.896 121.773,389.528 144.588,388.212 C150.341,387.88 156.409,386.726 160.645,382.818 C162.038,381.534 163.17,379.999 164.072,378.329 C163.24,376.907 162.259,375.555 161.069,374.28 C140.854,350.571 105.526,329.753 76.067,343.295" id="Fill-136" fill="#1D476A"></path>
                    <path d="M157.063,342.929 C139.812,325.047 102.731,317.412 82.671,333.99 C80.074,336.137 77.678,338.691 76.506,341.851 C76.329,342.329 76.184,342.812 76.067,343.295 C105.526,329.753 140.854,350.571 161.069,374.28 C162.259,375.555 163.24,376.907 164.072,378.329 C164.772,377.03 165.334,375.649 165.769,374.241 C169.125,363.381 164.955,351.109 157.063,342.929" id="Fill-137" fill="#225283"></path>
                    <path d="M210.905,335.783 C212.828,337.892 214.824,340.263 214.976,343.113 C215.004,343.647 214.956,344.214 214.66,344.66 C214.104,345.501 212.915,345.611 211.917,345.474 C208.993,345.07 206.442,343.325 204.132,341.487 C198.113,336.699 192.877,330.928 188.697,324.471 C187.398,322.466 184.834,318.6 187.305,316.625 C189.701,314.711 192.484,317.228 194.138,318.726 C200.033,324.063 205.55,329.909 210.905,335.783" id="Fill-138" fill="#225283"></path>
                    <g id="Group-147" transform="translate(0.000000, 270.000000)">
                        <mask id="mask-6" fill="white">
                            <use xlink:href="#path-5"></use>
                        </mask>
                        <g id="Clip-140"></g>
                        <path d="M80.515,0.576 C77.78,0.728 74.786,1.178 72.98,3.236 C72.61,3.658 72.294,4.169 72.288,4.729 C72.275,5.936 73.596,6.656 74.726,7.082 C86.47,11.515 98.958,13.966 111.506,14.302 C115.057,14.397 118.691,14.311 122.026,13.087 C122.631,12.864 123.252,12.583 123.635,12.063 C124.373,11.061 123.883,9.545 122.92,8.755 C121.957,7.966 120.674,7.716 119.449,7.492 C111.975,6.129 103.967,5.412 96.673,3.295 C90.887,1.616 86.868,0.223 80.515,0.576" id="Fill-139" fill="#225283" mask="url(#mask-6)"></path>
                        <path d="M54.584,180.78 C53.464,175.736 51.782,171.253 49.54,166.77 C47.579,163.127 45.618,160.044 43.096,156.962 C38.612,151.357 34.409,146.594 28.804,142.391 C16.054,132.931 1.945,126.646 -12.746,124.965 C-14.49,130.783 -13.022,135.935 -12.512,142.906 C-11.719,153.76 -9.761,164.528 -6.68,174.966 C-4.091,183.737 -0.56,192.517 5.775,199.114 C13.44,207.097 24.828,211.124 35.877,210.494 C42.629,210.109 49.213,208.059 55.134,204.772 C55.513,201.615 55.706,198.577 55.706,195.353 C55.706,190.588 55.706,185.824 54.584,180.78" id="Fill-141" fill="#1D476A" mask="url(#mask-6)"></path>
                        <path d="M76.748,170.237 C76.306,157.377 70.368,145.053 61.656,135.581 C52.945,126.11 41.608,119.33 29.638,114.605 C21.921,111.56 13.178,108.821 4.781,109.044 C-1.272,109.205 -7.085,114.537 -10.184,119.458 C-11.407,121.399 -12.221,123.212 -12.746,124.965 C1.945,126.646 16.054,132.931 28.804,142.391 C34.409,146.594 38.612,151.357 43.096,156.962 C45.618,160.044 47.579,163.127 49.54,166.77 C51.782,171.253 53.464,175.736 54.584,180.78 C55.706,185.824 55.706,190.588 55.706,195.353 C55.706,198.577 55.513,201.615 55.134,204.772 C58.901,202.682 62.401,200.091 65.502,197.107 C69.546,193.216 73,188.598 74.901,183.317 C76.402,179.149 76.901,174.665 76.748,170.237" id="Fill-142" fill="#225283" mask="url(#mask-6)"></path>
                        <path d="M195.256,164.527 C193.014,162.847 190.772,161.165 188.25,160.604 C177.299,157.578 165.31,158.11 154.685,161.893 C153.24,163.606 151.902,165.409 150.688,167.295 C146.171,174.308 143.377,182.395 142.449,190.676 C141.928,195.316 140.58,206.728 144.675,209.979 C146.858,211.714 152.203,211.797 154.876,212.231 C158.938,212.892 163.032,213.347 167.139,213.596 C183.11,214.566 199.277,212.438 214.421,207.261 C215.862,206.769 217.32,206.227 218.729,205.593 C214.99,190.084 207.514,175.65 195.256,164.527" id="Fill-143" fill="#1D476A" mask="url(#mask-6)"></path>
                        <path d="M226.438,173.204 C225.083,168.671 223.409,164.168 220.703,160.287 C217.847,156.191 213.953,152.944 210.004,149.888 C206.54,147.206 202.89,144.577 198.666,143.415 C194.726,142.332 190.533,142.6 186.514,143.333 C174.184,145.581 162.753,152.319 154.685,161.893 C165.31,158.11 177.299,157.578 188.25,160.604 C190.772,161.165 193.014,162.847 195.256,164.527 C207.514,175.65 214.99,190.084 218.729,205.593 C221.903,204.163 224.821,202.264 226.691,199.385 C228.65,196.368 229.194,192.639 229.175,189.041 C229.147,183.666 227.978,178.355 226.438,173.204" id="Fill-144" fill="#225283" mask="url(#mask-6)"></path>
                        <path d="M40.803,53.594 C39.852,45.299 34.042,38.027 26.69,34.072 C19.336,30.116 10.64,29.19 2.342,30.125 C-4.514,30.896 -16.004,32.446 -21.4,37.049 C-23.011,38.423 -24.295,40.133 -25.315,42.031 C-10.716,37.028 6.499,39.269 18.156,50.478 C20.117,52.438 21.799,54.681 22.079,57.203 C23.382,69.424 17.863,80.224 9.764,89.161 C12.066,88.402 14.316,87.487 16.467,86.479 C23.068,83.383 29.384,79.371 34.059,73.775 C38.734,68.181 41.633,60.838 40.803,53.594" id="Fill-145" fill="#225283" mask="url(#mask-6)"></path>
                        <path d="M22.079,57.203 C21.799,54.681 20.117,52.438 18.156,50.478 C6.499,39.269 -10.716,37.028 -25.315,42.031 C-27.644,46.368 -28.583,51.69 -28.822,56.257 C-29.151,62.543 -28.562,68.965 -26.245,74.818 C-23.928,80.672 -19.764,85.93 -14.16,88.798 C-6.83,92.55 1.784,91.794 9.764,89.161 C17.863,80.224 23.382,69.424 22.079,57.203" id="Fill-146" fill="#1D476A" mask="url(#mask-6)"></path>
                    </g>
                    <path d="M29.051,368.752 C28.956,373.628 33.388,377.887 38.238,378.397 C43.088,378.907 47.913,376.189 50.776,372.241 C52.083,370.438 53.067,368.264 52.862,366.046 C52.751,364.855 52.305,363.72 51.769,362.651 C45.621,350.382 29.305,355.635 29.051,368.752" id="Fill-148" fill="#225283"></path>
                    <path d="M98.663,415.071 C95.806,419.098 93.819,423.98 94.302,428.894 C94.915,435.134 99.786,440.667 105.843,442.288 C111.9,443.91 118.759,441.65 122.847,436.896 C126.936,432.144 128.167,425.17 126.179,419.224 C124.345,413.738 119.153,408.245 113.647,406.228 C107.913,404.126 101.652,410.858 98.663,415.071" id="Fill-149" fill="#225283"></path>
                    <path d="M192.745,389.066 C193.303,391.921 195.459,394.32 198.093,395.555 C200.727,396.79 203.777,396.947 206.635,396.408 C210.109,395.752 213.657,393.782 214.802,390.438 C217.064,383.83 211.75,375.006 204.568,374.702 C198.063,374.427 191.529,382.851 192.745,389.066" id="Fill-150" fill="#225283"></path>
                    <path d="M49.918,296.255 C49.986,296.322 50.054,296.39 50.122,296.455 C53.235,299.468 56.309,301.359 60.093,303.185 C63.618,304.885 65.125,308.435 68.093,310.873 C70.322,312.705 73.309,313.658 76.162,313.229 C79.015,312.799 81.661,310.921 82.811,308.273 C87.586,297.279 72.669,289.216 63.926,289.783 C59.844,290.049 55.79,290.757 51.861,291.893 C50.489,292.289 48.848,293.129 48.951,294.554 C48.999,295.22 49.441,295.771 49.918,296.255" id="Fill-151" fill="#4382B7"></path>
                    <path d="M135.393,312.341 C133.947,307.096 123.722,302.865 119.061,301.392 C114.621,299.987 108.622,302.963 104.991,305.246 C104.296,305.683 103.545,306.256 103.483,307.074 C103.396,308.245 104.723,308.97 105.857,309.275 C110.546,310.537 115.613,309.996 120.219,311.535 C123.799,312.73 126.865,315.106 130.338,316.582 C131.125,316.916 131.97,317.208 132.817,317.102 C134.849,316.846 135.938,314.314 135.393,312.341" id="Fill-152" fill="#4382B7"></path>
                    <path d="M187.702,348.983 C186.077,348.928 184.446,349.729 183.498,351.051 C182.689,352.179 182.39,353.584 182.15,354.951 C181.8,356.954 181.538,358.973 181.364,360.999 C181.14,363.617 181.104,366.415 182.443,368.676 C183.026,369.66 183.939,370.54 185.072,370.694 C186.168,370.843 187.231,370.292 188.164,369.698 C189.863,368.617 191.462,367.288 192.469,365.545 C194.232,362.492 193.923,358.717 193.56,355.21 C193.255,352.259 190.941,349.094 187.702,348.983" id="Fill-153" fill="#4382B7"></path>
                    <path d="M229.103,414.626 C231.308,420.104 228.912,426.873 231.957,431.934 C232.452,432.756 233.397,433.583 234.262,433.168 C234.647,432.982 234.888,432.594 235.082,432.213 C236.225,429.979 236.499,427.414 236.753,424.917 C237.45,418.089 239.001,406.063 231.214,402.285 C228.647,401.041 224.394,401.765 223.406,404.939 C222.375,408.249 227.868,411.56 229.103,414.626" id="Fill-154" fill="#4382B7"></path>
                    <path d="M249.392,411.166 C250.19,413.916 251.14,416.732 252.938,418.687 C254.354,420.227 256.876,420.932 257.996,419.072 C258.519,418.204 258.548,417.056 258.534,415.984 C258.457,409.935 257.617,403.902 256.085,398.14 C254.964,393.922 253.184,385.591 249.423,383.732 C240.354,379.25 248.24,407.198 249.392,411.166" id="Fill-155" fill="#225283"></path>
                    <path d="M131.724,394.601 C130.18,394.918 128.239,395.92 128.631,397.446 C128.754,397.924 129.103,398.31 129.471,398.639 C131.425,400.387 134.144,401.039 136.764,401.129 C139.385,401.219 141.996,400.81 144.616,400.728 C151.411,400.513 158.147,402.764 164.848,401.19 C165.758,400.978 166.83,400.519 166.915,399.589 C167.006,398.596 165.926,397.968 165.269,397.218 C163.78,395.515 164.463,392.825 165.667,390.91 C166.871,388.996 168.547,387.266 168.971,385.044 C169.026,384.753 169.045,384.414 168.838,384.202 C168.638,383.997 168.312,384 168.027,384.032 C165.607,384.305 163.458,385.634 161.356,386.863 C157.061,389.377 151.823,392.99 146.75,393.274 C141.668,393.559 136.811,393.554 131.724,394.601" id="Fill-156" fill="#225283"></path>
                    <g id="Group-160" transform="translate(0.000000, 330.000000)">
                        <mask id="mask-8" fill="white">
                            <use xlink:href="#path-7"></use>
                        </mask>
                        <g id="Clip-158"></g>
                        <path d="M74.518,31.252 C76.209,35.278 78.697,39.08 79.236,43.414 C79.281,43.772 79.308,44.153 79.147,44.478 C78.789,45.202 77.749,45.217 76.982,44.958 C74.546,44.134 72.979,41.786 71.848,39.477 C68.739,33.131 65.648,26.886 62.228,20.666 C61.355,19.078 60.457,17.397 60.48,15.585 C60.503,13.773 61.814,11.841 63.626,11.817 C64.524,11.807 65.402,12.252 66.292,12.127 C67.429,11.967 68.221,10.947 68.859,9.992 C70.525,7.498 72.013,4.885 73.308,2.18 C73.789,1.174 74.533,-0.02 75.64,0.108 C77.09,0.276 77.208,2.368 76.714,3.741 C75.113,8.187 72.393,11.552 72.015,16.396 C71.621,21.446 72.551,26.571 74.518,31.252" id="Fill-157" fill="#225283" mask="url(#mask-8)"></path>
                        <path d="M1.783,37.116 C7.459,36.255 13.023,34.654 18.29,32.368 C19.386,31.893 20.505,31.379 21.698,31.339 C22.892,31.3 24.197,31.869 24.624,32.984 C25.341,34.851 23.348,36.586 21.569,37.499 C11.968,42.428 -0.547,44.64 -11.315,43.816 C-15.515,43.495 -18.134,39.3 -13.281,37.468 C-8.899,35.814 -2.888,37.825 1.783,37.116" id="Fill-159" fill="#225283" mask="url(#mask-8)"></path>
                    </g>
                    <path d="M234.986,292.782 C253.847,301.489 267.856,266.83 241.668,268.11 C227.861,268.786 221.395,283.462 231.774,290.896 C232.855,291.67 233.928,292.295 234.986,292.782" id="Fill-161" fill="#2A629F"></path>
                    <path d="M322.135,382.454 C340.996,391.16 355.006,356.501 328.816,357.781 C315.01,358.457 308.544,373.133 318.923,380.566 C320.005,381.341 321.077,381.966 322.135,382.454" id="Fill-162" fill="#1E2A4A"></path>
                    <path d="M197.026,144.293 C207.979,149.35 216.116,129.222 200.906,129.965 C192.888,130.357 189.133,138.88 195.161,143.198 C195.789,143.647 196.412,144.01 197.026,144.293" id="Fill-163" fill="#1E2A4A"></path>
                    <path d="M23.551,103.759 C34.505,108.815 42.641,88.687 27.432,89.431 C19.414,89.823 15.658,98.346 21.686,102.663 C22.314,103.113 22.938,103.475 23.551,103.759" id="Fill-164" fill="#1E2A4A"></path>
                    <path d="M82.529,24.484 C88.031,27.024 92.118,16.914 84.478,17.287 C80.451,17.484 78.565,21.765 81.592,23.934 C81.908,24.16 82.221,24.342 82.529,24.484" id="Fill-165" fill="#1E2A4A"></path>
                    <path d="M202.184,269.959 C207.686,272.499 211.773,262.388 204.133,262.762 C200.106,262.959 198.22,267.24 201.247,269.408 C201.563,269.635 201.876,269.816 202.184,269.959" id="Fill-166" fill="#1E2A4A"></path>
                    <path d="M304.185,312.553 C309.688,315.093 313.773,304.981 306.134,305.355 C302.106,305.553 300.221,309.834 303.248,312.002 C303.563,312.229 303.877,312.41 304.185,312.553" id="Fill-167" fill="#1E2A4A"></path>
                    <path d="M16.594,168.963 C29.524,174.932 39.129,151.171 21.175,152.049 C11.709,152.512 7.276,162.573 14.392,167.669 C15.133,168.2 15.869,168.628 16.594,168.963" id="Fill-168" fill="#2A629F"></path>
                    <path d="M186.635,48.792 C193.096,51.774 197.894,39.903 188.924,40.341 C184.194,40.573 181.979,45.6 185.535,48.146 C185.905,48.411 186.273,48.625 186.635,48.792" id="Fill-169" fill="#2A629F"></path>
                    <path d="M215.712,82.518 C216.067,82.432 216.475,83.006 217.057,83.601 C218.896,85.481 220.924,87.92 223.677,88.296 C225.479,88.542 227.455,88.052 229.04,88.945 C229.172,89.019 229.308,89.112 229.36,89.255 C229.462,89.535 229.2,89.804 228.966,89.988 C226.636,91.817 223.84,93.907 223.069,96.954 C222.744,98.254 222.38,99.626 222.489,100.943 C222.545,101.625 222.805,103.703 221.687,103.74 C221.367,103.75 221.14,103.444 220.965,103.177 C219.973,101.662 218.856,100.511 217.58,99.25 C217.098,98.774 216.782,98.153 216.17,97.81 C215.875,97.644 215.545,97.553 215.22,97.462 C213.109,96.878 210.641,96.651 208.688,95.629 C208.392,95.474 208.132,95.138 208.248,94.824 C208.292,94.702 208.386,94.606 208.479,94.515 C209.459,93.559 210.614,92.8 211.645,91.898 C213.36,90.396 214.076,88.637 214.567,86.474 C214.792,85.484 214.812,84.457 215.116,83.48 C215.313,82.845 215.504,82.567 215.712,82.518" id="Fill-170" fill="#2A629F"></path>
                    <path d="M24.789,35.066 C25.022,35.01 25.29,35.387 25.671,35.777 C26.878,37.011 28.209,38.611 30.016,38.858 C31.198,39.02 32.495,38.698 33.535,39.284 C33.622,39.332 33.71,39.394 33.745,39.488 C33.812,39.671 33.64,39.848 33.486,39.968 C31.957,41.169 30.123,42.54 29.617,44.539 C29.403,45.393 29.165,46.293 29.236,47.157 C29.273,47.604 29.443,48.968 28.709,48.993 C28.499,49 28.351,48.799 28.236,48.623 C27.585,47.629 26.852,46.874 26.015,46.046 C25.698,45.734 25.491,45.326 25.089,45.101 C24.896,44.993 24.68,44.933 24.466,44.873 C23.081,44.49 21.461,44.341 20.18,43.67 C19.985,43.568 19.815,43.348 19.891,43.142 C19.92,43.062 19.982,42.998 20.042,42.94 C20.686,42.311 21.443,41.814 22.12,41.222 C23.246,40.236 23.715,39.082 24.038,37.662 C24.185,37.013 24.199,36.339 24.397,35.698 C24.527,35.281 24.652,35.099 24.789,35.066" id="Fill-171" fill="#2A629F"></path>
                    <path d="M273.306,339.949 C273.476,340.118 273.296,340.543 273.165,341.073 C272.75,342.749 272.088,344.722 272.828,346.389 C273.313,347.479 274.268,348.413 274.315,349.605 C274.32,349.705 274.314,349.813 274.253,349.892 C274.132,350.045 273.892,349.992 273.708,349.925 C271.884,349.255 269.752,348.415 267.785,349.036 C266.947,349.303 266.056,349.573 265.358,350.089 C264.997,350.355 263.927,351.217 263.521,350.605 C263.404,350.431 263.497,350.199 263.586,350.009 C264.09,348.933 264.346,347.912 264.609,346.765 C264.709,346.331 264.947,345.94 264.928,345.48 C264.918,345.259 264.855,345.043 264.794,344.83 C264.392,343.451 263.667,341.994 263.563,340.552 C263.548,340.333 263.646,340.072 263.861,340.028 C263.944,340.011 264.03,340.03 264.113,340.051 C264.985,340.268 265.807,340.65 266.666,340.915 C268.097,341.354 269.325,341.147 270.702,340.675 C271.332,340.459 271.912,340.116 272.563,339.948 C272.984,339.839 273.206,339.85 273.306,339.949" id="Fill-172" fill="#2A629F"></path>
                    <path d="M278.63,200.959 C278.8,201.128 278.62,201.553 278.489,202.083 C278.074,203.759 277.412,205.731 278.152,207.398 C278.637,208.489 279.592,209.423 279.64,210.615 C279.645,210.715 279.639,210.823 279.577,210.901 C279.456,211.055 279.216,211.002 279.032,210.935 C277.208,210.265 275.076,209.425 273.109,210.046 C272.271,210.313 271.38,210.583 270.683,211.099 C270.321,211.365 269.251,212.227 268.845,211.615 C268.729,211.44 268.821,211.209 268.91,211.019 C269.414,209.942 269.67,208.922 269.934,207.774 C270.033,207.341 270.271,206.95 270.252,206.49 C270.242,206.269 270.18,206.053 270.118,205.84 C269.716,204.461 268.991,203.004 268.888,201.562 C268.872,201.343 268.97,201.082 269.186,201.038 C269.269,201.021 269.354,201.04 269.438,201.061 C270.31,201.278 271.131,201.661 271.99,201.925 C273.421,202.364 274.649,202.157 276.026,201.685 C276.656,201.469 277.236,201.126 277.887,200.958 C278.309,200.85 278.53,200.859 278.63,200.959" id="Fill-173" fill="#2A629F"></path>
                    <path d="M144.403,6.485 C144.573,6.654 144.394,7.079 144.263,7.609 C143.848,9.285 143.186,11.258 143.926,12.924 C144.41,14.015 145.365,14.949 145.414,16.142 C145.418,16.241 145.413,16.349 145.351,16.427 C145.23,16.581 144.99,16.528 144.806,16.46 C142.981,15.79 140.85,14.951 138.883,15.572 C138.045,15.839 137.154,16.109 136.457,16.625 C136.095,16.891 135.025,17.753 134.618,17.141 C134.502,16.967 134.595,16.735 134.684,16.545 C135.188,15.468 135.444,14.448 135.708,13.3 C135.807,12.867 136.045,12.477 136.025,12.016 C136.016,11.794 135.954,11.579 135.891,11.366 C135.489,9.987 134.765,8.53 134.661,7.088 C134.646,6.869 134.744,6.608 134.959,6.564 C135.042,6.547 135.128,6.566 135.211,6.586 C136.083,6.804 136.905,7.186 137.764,7.451 C139.194,7.89 140.423,7.683 141.8,7.21 C142.43,6.994 143.01,6.652 143.66,6.484 C144.083,6.375 144.304,6.386 144.403,6.485" id="Fill-174" fill="#2A629F"></path>
                    <path d="M234.635,152.201 C234.805,152.369 234.625,152.794 234.494,153.325 C234.079,155 233.417,156.973 234.157,158.64 C234.642,159.73 235.597,160.665 235.646,161.857 C235.649,161.957 235.644,162.064 235.583,162.143 C235.461,162.296 235.221,162.243 235.038,162.176 C233.213,161.506 231.082,160.667 229.115,161.287 C228.277,161.554 227.385,161.825 226.688,162.34 C226.327,162.606 225.256,163.468 224.85,162.857 C224.734,162.682 224.826,162.45 224.915,162.26 C225.419,161.184 225.676,160.164 225.939,159.016 C226.039,158.582 226.277,158.192 226.257,157.731 C226.248,157.51 226.185,157.294 226.123,157.082 C225.721,155.702 224.996,154.245 224.893,152.803 C224.877,152.584 224.975,152.323 225.19,152.279 C225.274,152.262 225.36,152.282 225.442,152.302 C226.314,152.519 227.136,152.902 227.996,153.166 C229.426,153.605 230.654,153.398 232.032,152.926 C232.662,152.71 233.242,152.367 233.892,152.2 C234.314,152.091 234.535,152.101 234.635,152.201" id="Fill-175" fill="#1E2A4A"></path>
                    <path d="M53.331,0.88 C53.501,1.049 53.322,1.475 53.19,2.005 C52.775,3.68 52.114,5.653 52.853,7.32 C53.338,8.411 54.293,9.345 54.342,10.537 C54.346,10.637 54.34,10.745 54.279,10.823 C54.158,10.976 53.917,10.923 53.734,10.856 C51.909,10.186 49.778,9.347 47.811,9.967 C46.973,10.234 46.082,10.505 45.384,11.02 C45.023,11.287 43.953,12.148 43.546,11.537 C43.43,11.362 43.522,11.13 43.611,10.94 C44.115,9.864 44.372,8.843 44.635,7.696 C44.735,7.262 44.973,6.872 44.953,6.412 C44.944,6.19 44.881,5.975 44.819,5.762 C44.417,4.382 43.692,2.925 43.589,1.483 C43.573,1.264 43.671,1.003 43.887,0.959 C43.97,0.942 44.056,0.961 44.139,0.982 C45.011,1.199 45.832,1.582 46.692,1.846 C48.123,2.286 49.351,2.079 50.728,1.606 C51.358,1.39 51.938,1.047 52.588,0.88 C53.011,0.771 53.231,0.781 53.331,0.88" id="Fill-176" fill="#1E2A4A"></path>
                    <path d="M44.644,246.636 C44.814,246.804 44.635,247.229 44.504,247.76 C44.089,249.435 43.427,251.408 44.167,253.074 C44.651,254.165 45.606,255.1 45.655,256.292 C45.659,256.392 45.653,256.499 45.592,256.577 C45.471,256.73 45.23,256.678 45.047,256.61 C43.222,255.941 41.091,255.102 39.125,255.722 C38.286,255.989 37.395,256.26 36.697,256.774 C36.336,257.041 35.266,257.903 34.859,257.292 C34.743,257.117 34.836,256.885 34.925,256.695 C35.428,255.618 35.685,254.599 35.949,253.45 C36.048,253.017 36.286,252.627 36.267,252.166 C36.257,251.944 36.194,251.729 36.132,251.517 C35.73,250.137 35.005,248.68 34.902,247.238 C34.886,247.019 34.984,246.758 35.2,246.714 C35.283,246.697 35.369,246.717 35.452,246.737 C36.324,246.954 37.146,247.337 38.005,247.601 C39.435,248.04 40.664,247.833 42.041,247.36 C42.671,247.145 43.251,246.802 43.901,246.635 C44.324,246.525 44.544,246.536 44.644,246.636" id="Fill-177" fill="#1E2A4A"></path>
                    <path d="M298.525,411.966 C298.695,412.135 298.517,412.561 298.385,413.091 C297.97,414.766 297.308,416.739 298.048,418.405 C298.532,419.496 299.487,420.431 299.536,421.623 C299.54,421.723 299.535,421.83 299.473,421.908 C299.353,422.062 299.111,422.009 298.929,421.941 C297.104,421.271 294.973,420.433 293.006,421.053 C292.167,421.32 291.276,421.591 290.579,422.105 C290.217,422.372 289.147,423.234 288.74,422.623 C288.624,422.448 288.717,422.216 288.806,422.026 C289.31,420.949 289.566,419.929 289.83,418.781 C289.93,418.348 290.167,417.958 290.147,417.497 C290.138,417.275 290.075,417.061 290.014,416.848 C289.611,415.468 288.887,414.011 288.783,412.569 C288.768,412.35 288.865,412.089 289.081,412.045 C289.164,412.028 289.25,412.047 289.333,412.067 C290.205,412.285 291.026,412.668 291.886,412.932 C293.316,413.371 294.545,413.164 295.922,412.691 C296.552,412.476 297.133,412.133 297.782,411.966 C298.205,411.856 298.426,411.867 298.525,411.966" id="Fill-178" fill="#1E2A4A"></path>
                </g>
                <g id="145749-OTPW0S-360" transform="translate(1108.000000, 223.000000) scale(-1, 1) translate(-1108.000000, -223.000000) translate(936.000000, 0.000000)">
                    <path d="M32.341,212.525 C32.791,213.744 33.37,214.775 34.093,215.398 C37.611,218.428 35.977,209.258 35.684,208.193 C35.251,206.619 34.737,205.066 34.146,203.545 C33.256,201.256 31.244,201.108 31.072,203.671 C30.932,205.742 31.281,209.654 32.341,212.525" id="Fill-97" fill="#4D565A"></path>
                    <path d="M21.875,214.459 C22.455,215.622 23.141,216.585 23.928,217.127 C27.752,219.758 25.138,210.818 24.731,209.791 C24.131,208.273 23.453,206.786 22.701,205.337 C21.569,203.157 19.553,203.229 19.658,205.794 C19.743,207.868 20.512,211.72 21.875,214.459" id="Fill-98" fill="#4D565A"></path>
                    <g id="Group-102" transform="translate(0.000000, 206.000000)">
                        <mask id="mask-10" fill="white">
                            <use xlink:href="#path-9"></use>
                        </mask>
                        <g id="Clip-100"></g>
                        <path d="M11.337,11.113 C12.014,12.222 12.78,13.122 13.611,13.594 C17.647,15.887 14.274,7.205 13.781,6.217 C13.052,4.756 12.248,3.332 11.375,1.953 C10.06,-0.121 8.057,0.123 8.382,2.671 C8.646,4.729 9.743,8.501 11.337,11.113" id="Fill-99" fill="#4D565A" mask="url(#mask-10)"></path>
                        <path d="M0.818,16.585 C1.592,17.629 2.436,18.456 3.306,18.852 C7.532,20.772 3.392,12.429 2.812,11.489 C1.955,10.1 1.026,8.754 0.031,7.459 C-1.465,5.512 -3.438,5.935 -2.884,8.442 C-2.437,10.47 -1.005,14.127 0.818,16.585" id="Fill-101" fill="#4D565A" mask="url(#mask-10)"></path>
                    </g>
                    <path d="M43.192,210.278 C43.723,211.465 44.369,212.455 45.132,213.028 C48.844,215.815 46.602,206.775 46.239,205.732 C45.701,204.19 45.085,202.677 44.394,201.197 C43.353,198.973 41.335,198.961 41.334,201.528 C41.333,203.604 41.943,207.484 43.192,210.278" id="Fill-103" fill="#4D565A"></path>
                    <path d="M54.127,206.005 C54.835,207.095 55.626,207.974 56.47,208.422 C60.569,210.6 56.953,202.017 56.433,201.043 C55.663,199.603 54.819,198.202 53.907,196.849 C52.534,194.812 50.539,195.112 50.936,197.649 C51.257,199.7 52.46,203.438 54.127,206.005" id="Fill-104" fill="#4D565A"></path>
                    <path d="M203.789,231.425 C209.937,229.808 215.451,225.891 219.001,220.617 C221.622,216.724 223.074,211.269 220.302,207.481 C217.814,204.083 213.031,203.456 208.821,203.563 C205.111,203.656 201.41,204.093 197.779,204.863 C194.401,205.581 191.038,206.608 188.123,208.461 C185.208,210.313 182.758,213.068 181.814,216.39 C177.906,230.139 194.009,233.996 203.789,231.425" id="Fill-105" fill="#5F6A6E"></path>
                    <path d="M189.532,177.614 C194.241,182.659 196.025,190.087 200.493,195.479 C203.042,198.557 206.666,201.453 206.594,205.45 C206.553,207.704 205.277,209.744 203.867,211.504 C198.804,217.822 191.364,222.19 183.379,223.532 C181.102,223.915 178.739,224.057 176.502,223.482 C174.266,222.907 172.157,221.54 171.087,219.493 C170.141,217.683 170.079,215.54 169.357,213.63 C167.811,209.539 163.577,207.183 159.534,205.516 C155.729,203.947 151.628,202.508 148.587,199.603 C145.641,196.786 146.881,190.79 147.722,187.22 C148.972,181.915 151.189,176.341 154.937,172.292 C157.258,169.784 159.353,168.552 162.761,168.89 C166.936,169.303 171.087,169.946 175.191,170.824 C179.788,171.807 184.483,173.164 188.064,176.209 C188.584,176.652 189.072,177.122 189.532,177.614" id="Fill-106" fill="#B8C2C6"></path>
                    <path d="M53.747,154.502 C51.975,158.188 51.613,162.398 51.75,166.486 C52.014,174.371 54.014,182.097 56.408,189.614 C59.375,198.928 62.967,208.048 67.289,216.814 C69.378,221.054 71.706,225.299 75.221,228.459 C79.654,232.446 85.58,234.346 91.438,235.457 C100.342,237.146 109.669,237.238 118.358,234.659 C121.028,233.866 123.665,232.804 125.852,231.079 C129.391,228.29 131.456,223.991 132.548,219.62 C133.595,215.432 133.846,210.989 132.798,206.801 C130.471,197.494 122.386,190.998 116.368,183.526 C108.752,174.072 104.194,162.526 97.227,152.584 C94.156,148.201 90.479,144.03 85.656,141.712 C74.988,136.584 58.768,144.062 53.747,154.502" id="Fill-107" fill="#75848A"></path>
                    <path d="M163.36,122.077 C162.378,122.098 161.019,122.278 160.763,121.33 C160.675,121.004 160.785,120.662 160.879,120.338 C161.432,118.437 161.349,116.088 159.81,114.844 C158.347,113.661 156.231,113.952 154.378,114.274 C154.021,114.336 153.645,114.396 153.302,114.277 C152.157,113.88 152.452,112.218 152.211,111.03 C151.808,109.041 149.275,108.072 147.35,108.716 C145.426,109.361 144.092,111.123 143.186,112.938 C141.89,115.537 141.236,118.432 141.255,121.323 C139.862,120.843 138.452,120.853 137.358,121.818 C136.734,122.368 136.361,123.138 135.966,123.869 C133.644,128.167 129.928,131.827 125.325,133.46 C120.754,135.082 117.802,132.956 113.518,132.918 C109.166,132.881 109.042,138.316 110.238,141.691 C111.527,145.331 114.453,148.151 117.567,150.434 C123.329,154.658 130.406,157.575 137.513,156.841 C144.076,156.163 150.223,152.231 153.593,146.558 C154.439,145.133 155.126,143.577 155.294,141.928 C155.361,141.28 155.345,140.635 155.266,139.996 C159.091,139.268 162.442,136.821 164.954,133.832 C166.564,131.917 167.935,129.6 167.88,127.099 C167.826,124.597 165.861,122.025 163.36,122.077" id="Fill-108" fill="#C7D2D4"></path>
                    <path d="M137.244,232.441 C138.263,232.94 139.154,233.525 139.535,234.208 C139.821,234.719 139.759,235.345 139.693,235.926 C139.27,239.693 139.064,243.626 140.438,247.159 C142.771,253.161 149.555,256.763 155.981,256.348 C162.408,255.933 168.274,252.022 172.104,246.845 C175.934,241.667 177.923,235.335 178.966,228.979 C179.703,224.485 179.994,219.837 178.935,215.406 C177.21,208.19 171.924,202.107 165.426,198.525 C155.904,193.276 146.34,193.342 136.826,198.476 C131.863,201.153 127.357,204.593 122.568,207.568 C118.745,209.944 114.68,212.071 111.542,215.298 C110.616,216.25 109.749,217.358 109.547,218.67 C109.319,220.157 110.011,221.677 111.069,222.745 C112.127,223.814 113.513,224.495 114.915,225.041 C118.122,226.289 121.526,226.929 124.845,227.839 C127.755,228.638 130.607,229.647 133.372,230.858 C134.279,231.255 135.877,231.771 137.244,232.441" id="Fill-109" fill="#C7D2D4"></path>
                    <path d="M70.68,158.123 C64.071,153.688 57.678,158.564 57.211,165.656 C56.424,177.61 61.532,189.037 65.503,200.34 C69.045,210.421 72.915,223.182 83.368,228.088 C85.693,229.18 88.372,229.961 90.811,229.155 C93.428,228.29 95.207,225.707 95.756,223.006 C96.304,220.305 95.804,217.5 95.052,214.848 C93.295,208.648 89.784,203.247 87.727,197.204 C85.59,190.926 83.129,184.759 81.25,178.395 C80.146,174.658 79.24,170.846 77.701,167.266 C76.162,163.687 73.915,160.294 70.68,158.123" id="Fill-110" fill="#8A979D"></path>
                    <path d="M140.808,149.401 C140.061,149.253 139.316,149.094 138.575,148.915 C134.513,147.932 130.582,146.342 126.431,145.852 C126.311,145.838 126.178,145.827 126.077,145.896 C125.822,146.068 126.038,146.46 126.26,146.672 C128.037,148.363 129.708,150.188 131.777,151.486 C133.899,152.817 136.084,154.091 138.464,154.907 C140.3,155.536 142.379,156.001 144.328,155.832 C145.25,155.751 145.517,155.362 146.057,154.74 C146.734,153.961 147.548,153.323 148.192,152.505 C148.478,152.142 148.754,151.667 148.57,151.243 C148.43,150.921 148.071,150.758 147.732,150.667 C145.496,150.068 143.09,149.853 140.808,149.401" id="Fill-111" fill="#B8C2C6"></path>
                    <path d="M80.966,182.576 C83.124,192.312 86.529,202.004 92.794,209.762 C99.059,217.52 108.561,223.127 118.528,222.843 C125.135,222.655 131.5,219.924 136.794,215.968 C142.089,212.012 146.396,206.876 150.197,201.47 C154.507,195.34 158.231,188.799 161.304,181.964 C163.374,177.361 165.178,172.279 164.076,167.354 C162.848,161.866 158.184,157.713 153.084,155.343 C147.985,152.972 142.362,152.028 136.938,150.54 C131.516,149.052 126.027,146.855 122.308,142.637 C118.911,138.783 117.312,133.601 113.897,129.762 C108.859,124.099 100.148,122.307 93.045,124.955 C71.438,133.007 77.167,165.44 80.966,182.576" id="Fill-112" fill="#C7D2D4"></path>
                    <path d="M108.127,150.04 C111.1,148.885 114.019,147.263 115.893,144.683 C117.767,142.102 118.353,138.393 116.626,135.712 C115.415,133.832 113.308,132.733 111.211,131.954 C102.294,128.638 90.419,129.596 82.976,135.96 C74.373,143.315 80.918,151.052 89.906,152.206 C96.033,152.993 102.364,152.278 108.127,150.04" id="Fill-113" fill="#B8C2C6"></path>
                    <path d="M142.779,186.927 C138.232,192.247 132.722,196.677 126.778,200.343 C120.552,204.182 113.477,206.607 106.997,210.115 C104.947,211.226 102.893,212.41 101.286,214.1 C100.834,214.574 100.403,215.126 100.327,215.777 C100.262,216.339 100.47,216.896 100.723,217.4 C102.623,221.207 107.128,223.222 111.381,223.095 C117.287,222.919 123.209,219.242 127.799,215.813 C135.912,209.749 143.747,203.197 150.195,195.386 C156.643,187.575 161.682,178.414 163.592,168.467 C164.213,165.237 164.44,161.664 162.686,158.881 C161.409,156.858 157.061,154.567 154.956,156.786 C153.363,158.464 153.899,164.121 153.364,166.439 C151.619,174.005 147.808,181.043 142.779,186.927" id="Fill-114" fill="#A0ACB0"></path>
                    <path d="M117.421,154.205 C118.901,153.136 120.506,152.108 122.319,151.893 C124.76,151.603 127.113,152.832 129.158,154.195 C133.238,156.913 136.848,160.333 139.782,164.26 C140.925,165.79 142.017,167.661 141.526,169.506 C141.144,170.95 139.888,171.97 138.68,172.849 C134.497,175.894 130.004,178.512 125.292,180.65 C124.315,181.093 123.303,181.522 122.231,181.583 C120.682,181.669 119.19,180.973 117.903,180.106 C115.41,178.427 113.472,176.108 111.573,173.813 C109.951,171.851 106.788,169.444 106.021,167.005 C105.228,164.479 108.075,162.554 109.65,160.929 C112.037,158.466 114.641,156.213 117.421,154.205" id="Fill-115" fill="#75848A"></path>
                    <path d="M68.748,64.105 C62.587,67.308 57.048,71.607 53.008,76.109 C47.691,82.035 44.737,89.771 43.314,97.604 C41.629,106.889 41.995,116.676 45.374,125.486 C48.753,134.297 55.311,142.042 63.91,145.931 C72.098,149.634 81.477,149.679 90.394,148.558 C95.927,147.863 101.443,146.734 106.599,144.611 C120.751,138.782 131.363,125.107 133.498,109.952 C135.194,97.905 131.632,85.21 123.918,75.804 C116.763,67.08 107.304,63.007 96.786,59.817 C87.915,57.126 77.679,59.463 68.748,64.105" id="Fill-116" fill="#D5E0E0"></path>
                    <path d="M93.994,193.913 C98.756,198.593 105.86,201.108 112.334,199.475 C113.867,199.088 115.448,198.396 116.259,197.039 C117.042,195.729 116.932,194.031 116.323,192.632 C115.715,191.232 114.668,190.074 113.603,188.981 C107.924,183.162 101.149,178.415 93.74,175.066 C92.387,174.455 90.949,173.878 89.467,173.98 C80.595,174.591 91.221,191.188 93.994,193.913" id="Fill-117" fill="#B8C2C6"></path>
                    <path d="M136.476,190.523 C135.926,191.169 135.362,191.838 135.106,192.647 C134.512,194.529 135.746,196.494 137.14,197.893 C138.605,199.362 140.319,200.584 142.188,201.489 C143.211,201.984 144.329,202.393 145.459,202.277 C147.024,202.118 148.309,201.001 149.389,199.858 C151.685,197.432 153.591,194.639 155.014,191.617 C155.892,189.753 156.599,187.692 156.253,185.661 C155.727,182.565 152.949,180.396 150.224,178.834 C147.055,177.019 144.325,179.932 142.633,182.528 C140.77,185.386 138.702,187.911 136.476,190.523" id="Fill-118" fill="#5F6A6E"></path>
                    <path d="M119.537,157.801 C120.333,157.243 121.178,156.693 122.139,156.542 C123.417,156.341 124.729,156.895 125.687,157.766 C125.951,158.007 126.203,158.289 126.284,158.637 C126.457,159.38 125.813,160.04 125.231,160.533 C122.431,162.901 119.631,165.269 116.831,167.637 C115.47,168.788 113.726,170.213 111.816,169.61 C110.162,169.088 109.728,167.714 110.361,166.203 C111.754,162.882 116.689,159.793 119.537,157.801" id="Fill-119" fill="#5F6A6E"></path>
                    <path d="M142.476,181.345 C141.707,180.735 140.544,180.008 140.951,179.114 C141.091,178.807 141.394,178.613 141.673,178.423 C143.311,177.311 144.744,175.448 144.351,173.508 C143.978,171.665 142.162,170.54 140.529,169.607 C140.214,169.428 139.886,169.234 139.698,168.924 C139.068,167.888 140.355,166.795 140.927,165.726 C141.884,163.937 140.55,161.575 138.656,160.845 C136.762,160.116 134.611,160.622 132.756,161.444 C130.102,162.62 127.752,164.435 125.924,166.674 C125.156,165.417 124.064,164.525 122.606,164.571 C121.775,164.598 120.996,164.953 120.226,165.265 C115.697,167.096 110.501,167.548 105.913,165.873 C100.162,163.772 99.298,155.765 91.996,159.941 C89.677,161.268 87.979,163.498 86.849,165.917 C83.492,173.107 85.188,182.339 90.883,187.864 C97.215,194.007 110.964,196.983 119.346,193.983 C120.907,193.424 122.428,192.664 123.608,191.5 C124.073,191.042 124.472,190.536 124.818,189.993 C128.23,191.87 132.372,192.121 136.212,191.419 C138.674,190.969 141.207,190.058 142.759,188.095 C144.311,186.132 144.437,182.899 142.476,181.345" id="Fill-120" fill="#E4EDED"></path>
                    <path d="M84.089,79.952 C76.077,84.712 68.072,90.973 64.281,99.729 C60.613,108.199 60.223,118.226 64.059,126.71 C68.121,135.693 77.063,142.477 86.911,143.576 C97.566,144.765 109.279,139.533 117.019,132.46 C124.93,125.231 130.259,114.963 130.568,104.25 C130.877,93.539 125.813,82.584 116.865,76.688 C114.251,74.965 111.324,73.668 108.234,73.167 C103.758,72.442 99.105,73.348 95.04,75.235 C91.393,76.927 87.629,77.849 84.089,79.952" id="Fill-121" fill="#C7D2D4"></path>
                    <path d="M83.281,84.695 C72.554,91.991 64.617,103.124 66.091,116.671 C66.889,124 71.701,130.618 78.118,134.246 C84.535,137.875 92.368,138.639 99.558,137.012 C109.044,134.865 117.513,128.568 122.3,120.102 C128.782,108.638 129.079,91.385 118.533,82.125 C108.69,73.483 92.9,78.153 83.281,84.695" id="Fill-122" fill="#2A629F"></path>
                    <path d="M101.761,91.607 C101.277,92.362 100.869,93.202 100.83,94.098 C100.715,96.732 103.542,98.335 105.564,100.029 C108.446,102.444 110.183,106.171 110.179,109.932 C110.176,112.345 109.608,115.118 111.248,116.89 C112.78,118.545 115.558,118.336 117.489,117.171 C120.853,115.143 122.373,110.973 122.513,107.047 C122.737,100.731 119.484,94.924 116.099,89.833 C112.498,84.417 104.812,86.841 101.761,91.607" id="Fill-123" fill="#24B5D8"></path>
                    <path d="M81.623,98.521 C82.5,99.308 83.82,99.295 84.987,99.138 C88.01,98.731 90.941,97.652 93.506,96.001 C98.669,92.677 94.796,85.47 89.226,86.791 C85.879,87.585 77.458,94.785 81.623,98.521" id="Fill-124" fill="#24B5D8"></path>
                    <path d="M126.27,188.982 C126.606,190.473 126.858,192.385 125.571,193.21 C124.604,193.831 123.237,193.363 122.506,192.476 C121.775,191.588 121.532,190.406 121.355,189.271 C120.608,184.458 120.643,179.563 120.679,174.693 C120.697,172.248 120.72,169.77 121.365,167.411 C121.79,165.858 123.802,161.66 126.029,163.16 C127.83,164.372 126.068,168.663 125.808,170.165 C124.729,176.385 124.879,182.823 126.27,188.982" id="Fill-125" fill="#A0ACB0"></path>
                    <path d="M149.846,128.785 C152.058,130.793 154.302,132.898 155.886,135.457 C157.001,137.256 159.39,139.759 158.514,142.021 C157.98,143.4 156.152,144.225 154.9,143.439 C153.787,142.741 153.208,141.167 152.329,140.202 C151.284,139.057 150.132,138.053 149.166,136.822 C147.187,134.302 145.608,132.133 143.263,130.012 C140.764,127.752 138.491,125.37 135.769,123.348 C135.506,123.153 135.224,122.937 135.134,122.621 C135.051,122.33 135.152,122.018 135.285,121.746 C135.846,120.599 137.029,119.781 138.3,119.66 C140.281,119.472 142.05,120.844 143.459,122.249 C145.644,124.427 147.532,126.684 149.846,128.785" id="Fill-126" fill="#A0ACB0"></path>
                    <path d="M48.054,106.149 C48.083,101.678 49.29,97.099 52.122,93.638 C52.854,92.742 54.164,91.884 55.062,92.614 C55.773,93.192 55.601,94.302 55.37,95.189 C53.579,102.073 52.27,109.367 54.064,116.25 C54.373,117.434 54.774,118.617 54.76,119.84 C54.754,120.357 54.658,120.904 54.312,121.288 C53.75,121.91 52.707,121.859 52.002,121.404 C49.938,120.072 49.587,116.69 49.089,114.519 C48.458,111.774 48.035,108.971 48.054,106.149" id="Fill-127" fill="#B8C2C6"></path>
                    <path d="M95.384,179.648 C95.421,181.513 95.85,183.575 97.367,184.661 C105.147,190.229 105.589,180.337 106.196,175.077 C106.291,174.254 106.383,173.404 106.14,172.613 C105.335,169.992 100.634,168.862 98.363,170.173 C95.641,171.744 95.331,176.931 95.384,179.648" id="Fill-128" fill="#2A629F"></path>
                    <path d="M40.815,116.948 C39.567,117.132 38.199,117.458 37.487,118.499 C36.842,119.442 36.938,120.721 37.327,121.795 C38.711,125.621 43.002,127.475 46.951,128.455 C51.255,129.523 55.69,130.064 60.125,130.06 C61.275,130.059 62.463,130.013 63.507,129.529 C65.71,128.507 66.661,125.649 65.985,123.316 C65.31,120.983 63.33,119.204 61.118,118.203 C58.26,116.91 55.55,116.912 52.526,116.907 C48.553,116.9 44.806,116.36 40.815,116.948" id="Fill-129" fill="#75848A"></path>
                    <path d="M59.479,126.473 C59.955,126.917 60.566,127.274 61.215,127.241 C61.885,127.207 62.473,126.76 62.874,126.224 C64.471,124.085 63.231,119.982 60.135,120.485 C57.12,120.975 57.777,124.885 59.479,126.473" id="Fill-130" fill="#5F6A6E"></path>
                    <path d="M153.01,223.175 C152.384,223.771 151.765,224.504 151.77,225.369 C151.774,226.392 152.704,227.228 153.702,227.448 C154.701,227.668 155.739,227.409 156.709,227.086 C159.326,226.216 161.767,224.88 164.079,223.377 C166.244,221.97 176.666,213.183 169.118,212.563 C166.114,212.316 164.391,214.185 162.327,216.008 C159.384,218.604 155.848,220.466 153.01,223.175" id="Fill-131" fill="#B8C2C6"></path>
                    <g id="Group-135" transform="translate(0.000000, 177.000000)">
                        <mask id="mask-12" fill="white">
                            <use xlink:href="#path-11"></use>
                        </mask>
                        <g id="Clip-133"></g>
                        <path d="M178.813,6.871 C178.2,8.248 177.681,9.79 178.094,11.24 C178.194,11.593 178.357,11.942 178.637,12.179 C179.081,12.555 179.746,12.575 180.288,12.364 C180.83,12.152 181.271,11.746 181.671,11.324 C183.208,9.708 187.358,3.431 185.331,1.155 C182.729,-1.765 179.415,5.516 178.813,6.871" id="Fill-132" fill="#A0ACB0" mask="url(#mask-12)"></path>
                        <path d="M41.745,98.551 C49.221,99.897 58.026,101.776 63.533,96.544 C65.102,95.053 66.208,93.104 67.898,91.751 C71.01,89.259 75.382,89.28 79.361,89.533 C95.691,90.568 111.9,93.483 127.568,98.201 C130.411,99.057 133.622,100.344 134.501,103.179 C135.218,105.491 134.069,108.025 134.563,110.396 C135.199,113.45 138.258,115.272 141.021,116.721 C149.233,121.024 157.445,125.327 165.658,129.63 C168.851,131.304 172.239,133.022 175.84,132.856 C179.253,132.7 182.441,130.85 185.858,130.843 C190.596,130.833 194.543,134.278 197.998,137.52 C205.416,144.478 212.833,151.436 220.251,158.394 C221.919,159.958 223.682,161.696 224.035,163.956 C224.274,165.484 223.821,167.027 223.714,168.571 C223.323,174.218 227.434,179.036 231.022,183.414 C233.577,186.53 234.417,190.179 237.645,192.906 C241.818,196.434 249.186,196.741 252.854,200.989 C255.106,203.598 256.072,208.013 257.367,211.153 C259.155,215.489 260.942,219.824 262.73,224.16 C264.539,228.547 266.35,232.939 267.771,237.467 C268.349,239.308 268.859,241.313 268.214,243.132 C267.367,245.519 264.848,246.804 263.112,248.647 C259.72,252.252 259.112,258.345 260.067,262.995 C261.225,268.631 260.963,274.125 260.408,279.921 C260.044,283.72 259.173,288.04 255.855,289.927 C254.181,290.879 252.179,291.007 250.254,291.109 C174.736,295.114 99.04,292.715 23.456,290.211 C18.328,290.041 12.739,289.695 8.914,286.273 C6.319,283.953 4.972,280.563 3.953,277.234 C1.417,268.949 0.38,260.289 -0.577,251.677 C-5.6,206.511 -8.75,161.137 -10.018,115.708 C-10.672,92.245 26.173,95.746 41.745,98.551" id="Fill-134" fill="#2A629F" mask="url(#mask-12)"></path>
                    </g>
                    <path d="M76.067,343.295 C74.407,350.142 78.595,357.407 83.394,362.811 C98.57,379.896 121.773,389.528 144.588,388.212 C150.341,387.88 156.409,386.726 160.645,382.818 C162.038,381.534 163.17,379.999 164.072,378.329 C163.24,376.907 162.259,375.555 161.069,374.28 C140.854,350.571 105.526,329.753 76.067,343.295" id="Fill-136" fill="#1D476A"></path>
                    <path d="M157.063,342.929 C139.812,325.047 102.731,317.412 82.671,333.99 C80.074,336.137 77.678,338.691 76.506,341.851 C76.329,342.329 76.184,342.812 76.067,343.295 C105.526,329.753 140.854,350.571 161.069,374.28 C162.259,375.555 163.24,376.907 164.072,378.329 C164.772,377.03 165.334,375.649 165.769,374.241 C169.125,363.381 164.955,351.109 157.063,342.929" id="Fill-137" fill="#225283"></path>
                    <path d="M210.905,335.783 C212.828,337.892 214.824,340.263 214.976,343.113 C215.004,343.647 214.956,344.214 214.66,344.66 C214.104,345.501 212.915,345.611 211.917,345.474 C208.993,345.07 206.442,343.325 204.132,341.487 C198.113,336.699 192.877,330.928 188.697,324.471 C187.398,322.466 184.834,318.6 187.305,316.625 C189.701,314.711 192.484,317.228 194.138,318.726 C200.033,324.063 205.55,329.909 210.905,335.783" id="Fill-138" fill="#225283"></path>
                    <g id="Group-147" transform="translate(0.000000, 270.000000)">
                        <mask id="mask-14" fill="white">
                            <use xlink:href="#path-13"></use>
                        </mask>
                        <g id="Clip-140"></g>
                        <path d="M80.515,0.576 C77.78,0.728 74.786,1.178 72.98,3.236 C72.61,3.658 72.294,4.169 72.288,4.729 C72.275,5.936 73.596,6.656 74.726,7.082 C86.47,11.515 98.958,13.966 111.506,14.302 C115.057,14.397 118.691,14.311 122.026,13.087 C122.631,12.864 123.252,12.583 123.635,12.063 C124.373,11.061 123.883,9.545 122.92,8.755 C121.957,7.966 120.674,7.716 119.449,7.492 C111.975,6.129 103.967,5.412 96.673,3.295 C90.887,1.616 86.868,0.223 80.515,0.576" id="Fill-139" fill="#225283" mask="url(#mask-14)"></path>
                        <path d="M54.584,180.78 C53.464,175.736 51.782,171.253 49.54,166.77 C47.579,163.127 45.618,160.044 43.096,156.962 C38.612,151.357 34.409,146.594 28.804,142.391 C16.054,132.931 1.945,126.646 -12.746,124.965 C-14.49,130.783 -13.022,135.935 -12.512,142.906 C-11.719,153.76 -9.761,164.528 -6.68,174.966 C-4.091,183.737 -0.56,192.517 5.775,199.114 C13.44,207.097 24.828,211.124 35.877,210.494 C42.629,210.109 49.213,208.059 55.134,204.772 C55.513,201.615 55.706,198.577 55.706,195.353 C55.706,190.588 55.706,185.824 54.584,180.78" id="Fill-141" fill="#1D476A" mask="url(#mask-14)"></path>
                        <path d="M76.748,170.237 C76.306,157.377 70.368,145.053 61.656,135.581 C52.945,126.11 41.608,119.33 29.638,114.605 C21.921,111.56 13.178,108.821 4.781,109.044 C-1.272,109.205 -7.085,114.537 -10.184,119.458 C-11.407,121.399 -12.221,123.212 -12.746,124.965 C1.945,126.646 16.054,132.931 28.804,142.391 C34.409,146.594 38.612,151.357 43.096,156.962 C45.618,160.044 47.579,163.127 49.54,166.77 C51.782,171.253 53.464,175.736 54.584,180.78 C55.706,185.824 55.706,190.588 55.706,195.353 C55.706,198.577 55.513,201.615 55.134,204.772 C58.901,202.682 62.401,200.091 65.502,197.107 C69.546,193.216 73,188.598 74.901,183.317 C76.402,179.149 76.901,174.665 76.748,170.237" id="Fill-142" fill="#225283" mask="url(#mask-14)"></path>
                        <path d="M195.256,164.527 C193.014,162.847 190.772,161.165 188.25,160.604 C177.299,157.578 165.31,158.11 154.685,161.893 C153.24,163.606 151.902,165.409 150.688,167.295 C146.171,174.308 143.377,182.395 142.449,190.676 C141.928,195.316 140.58,206.728 144.675,209.979 C146.858,211.714 152.203,211.797 154.876,212.231 C158.938,212.892 163.032,213.347 167.139,213.596 C183.11,214.566 199.277,212.438 214.421,207.261 C215.862,206.769 217.32,206.227 218.729,205.593 C214.99,190.084 207.514,175.65 195.256,164.527" id="Fill-143" fill="#1D476A" mask="url(#mask-14)"></path>
                        <path d="M226.438,173.204 C225.083,168.671 223.409,164.168 220.703,160.287 C217.847,156.191 213.953,152.944 210.004,149.888 C206.54,147.206 202.89,144.577 198.666,143.415 C194.726,142.332 190.533,142.6 186.514,143.333 C174.184,145.581 162.753,152.319 154.685,161.893 C165.31,158.11 177.299,157.578 188.25,160.604 C190.772,161.165 193.014,162.847 195.256,164.527 C207.514,175.65 214.99,190.084 218.729,205.593 C221.903,204.163 224.821,202.264 226.691,199.385 C228.65,196.368 229.194,192.639 229.175,189.041 C229.147,183.666 227.978,178.355 226.438,173.204" id="Fill-144" fill="#225283" mask="url(#mask-14)"></path>
                        <path d="M40.803,53.594 C39.852,45.299 34.042,38.027 26.69,34.072 C19.336,30.116 10.64,29.19 2.342,30.125 C-4.514,30.896 -16.004,32.446 -21.4,37.049 C-23.011,38.423 -24.295,40.133 -25.315,42.031 C-10.716,37.028 6.499,39.269 18.156,50.478 C20.117,52.438 21.799,54.681 22.079,57.203 C23.382,69.424 17.863,80.224 9.764,89.161 C12.066,88.402 14.316,87.487 16.467,86.479 C23.068,83.383 29.384,79.371 34.059,73.775 C38.734,68.181 41.633,60.838 40.803,53.594" id="Fill-145" fill="#225283" mask="url(#mask-14)"></path>
                        <path d="M22.079,57.203 C21.799,54.681 20.117,52.438 18.156,50.478 C6.499,39.269 -10.716,37.028 -25.315,42.031 C-27.644,46.368 -28.583,51.69 -28.822,56.257 C-29.151,62.543 -28.562,68.965 -26.245,74.818 C-23.928,80.672 -19.764,85.93 -14.16,88.798 C-6.83,92.55 1.784,91.794 9.764,89.161 C17.863,80.224 23.382,69.424 22.079,57.203" id="Fill-146" fill="#1D476A" mask="url(#mask-14)"></path>
                    </g>
                    <path d="M29.051,368.752 C28.956,373.628 33.388,377.887 38.238,378.397 C43.088,378.907 47.913,376.189 50.776,372.241 C52.083,370.438 53.067,368.264 52.862,366.046 C52.751,364.855 52.305,363.72 51.769,362.651 C45.621,350.382 29.305,355.635 29.051,368.752" id="Fill-148" fill="#225283"></path>
                    <path d="M98.663,415.071 C95.806,419.098 93.819,423.98 94.302,428.894 C94.915,435.134 99.786,440.667 105.843,442.288 C111.9,443.91 118.759,441.65 122.847,436.896 C126.936,432.144 128.167,425.17 126.179,419.224 C124.345,413.738 119.153,408.245 113.647,406.228 C107.913,404.126 101.652,410.858 98.663,415.071" id="Fill-149" fill="#225283"></path>
                    <path d="M192.745,389.066 C193.303,391.921 195.459,394.32 198.093,395.555 C200.727,396.79 203.777,396.947 206.635,396.408 C210.109,395.752 213.657,393.782 214.802,390.438 C217.064,383.83 211.75,375.006 204.568,374.702 C198.063,374.427 191.529,382.851 192.745,389.066" id="Fill-150" fill="#225283"></path>
                    <path d="M49.918,296.255 C49.986,296.322 50.054,296.39 50.122,296.455 C53.235,299.468 56.309,301.359 60.093,303.185 C63.618,304.885 65.125,308.435 68.093,310.873 C70.322,312.705 73.309,313.658 76.162,313.229 C79.015,312.799 81.661,310.921 82.811,308.273 C87.586,297.279 72.669,289.216 63.926,289.783 C59.844,290.049 55.79,290.757 51.861,291.893 C50.489,292.289 48.848,293.129 48.951,294.554 C48.999,295.22 49.441,295.771 49.918,296.255" id="Fill-151" fill="#4382B7"></path>
                    <path d="M135.393,312.341 C133.947,307.096 123.722,302.865 119.061,301.392 C114.621,299.987 108.622,302.963 104.991,305.246 C104.296,305.683 103.545,306.256 103.483,307.074 C103.396,308.245 104.723,308.97 105.857,309.275 C110.546,310.537 115.613,309.996 120.219,311.535 C123.799,312.73 126.865,315.106 130.338,316.582 C131.125,316.916 131.97,317.208 132.817,317.102 C134.849,316.846 135.938,314.314 135.393,312.341" id="Fill-152" fill="#4382B7"></path>
                    <path d="M187.702,348.983 C186.077,348.928 184.446,349.729 183.498,351.051 C182.689,352.179 182.39,353.584 182.15,354.951 C181.8,356.954 181.538,358.973 181.364,360.999 C181.14,363.617 181.104,366.415 182.443,368.676 C183.026,369.66 183.939,370.54 185.072,370.694 C186.168,370.843 187.231,370.292 188.164,369.698 C189.863,368.617 191.462,367.288 192.469,365.545 C194.232,362.492 193.923,358.717 193.56,355.21 C193.255,352.259 190.941,349.094 187.702,348.983" id="Fill-153" fill="#4382B7"></path>
                    <path d="M229.103,414.626 C231.308,420.104 228.912,426.873 231.957,431.934 C232.452,432.756 233.397,433.583 234.262,433.168 C234.647,432.982 234.888,432.594 235.082,432.213 C236.225,429.979 236.499,427.414 236.753,424.917 C237.45,418.089 239.001,406.063 231.214,402.285 C228.647,401.041 224.394,401.765 223.406,404.939 C222.375,408.249 227.868,411.56 229.103,414.626" id="Fill-154" fill="#4382B7"></path>
                    <path d="M249.392,411.166 C250.19,413.916 251.14,416.732 252.938,418.687 C254.354,420.227 256.876,420.932 257.996,419.072 C258.519,418.204 258.548,417.056 258.534,415.984 C258.457,409.935 257.617,403.902 256.085,398.14 C254.964,393.922 253.184,385.591 249.423,383.732 C240.354,379.25 248.24,407.198 249.392,411.166" id="Fill-155" fill="#225283"></path>
                    <path d="M131.724,394.601 C130.18,394.918 128.239,395.92 128.631,397.446 C128.754,397.924 129.103,398.31 129.471,398.639 C131.425,400.387 134.144,401.039 136.764,401.129 C139.385,401.219 141.996,400.81 144.616,400.728 C151.411,400.513 158.147,402.764 164.848,401.19 C165.758,400.978 166.83,400.519 166.915,399.589 C167.006,398.596 165.926,397.968 165.269,397.218 C163.78,395.515 164.463,392.825 165.667,390.91 C166.871,388.996 168.547,387.266 168.971,385.044 C169.026,384.753 169.045,384.414 168.838,384.202 C168.638,383.997 168.312,384 168.027,384.032 C165.607,384.305 163.458,385.634 161.356,386.863 C157.061,389.377 151.823,392.99 146.75,393.274 C141.668,393.559 136.811,393.554 131.724,394.601" id="Fill-156" fill="#225283"></path>
                    <g id="Group-160" transform="translate(0.000000, 330.000000)">
                        <mask id="mask-16" fill="white">
                            <use xlink:href="#path-15"></use>
                        </mask>
                        <g id="Clip-158"></g>
                        <path d="M74.518,31.252 C76.209,35.278 78.697,39.08 79.236,43.414 C79.281,43.772 79.308,44.153 79.147,44.478 C78.789,45.202 77.749,45.217 76.982,44.958 C74.546,44.134 72.979,41.786 71.848,39.477 C68.739,33.131 65.648,26.886 62.228,20.666 C61.355,19.078 60.457,17.397 60.48,15.585 C60.503,13.773 61.814,11.841 63.626,11.817 C64.524,11.807 65.402,12.252 66.292,12.127 C67.429,11.967 68.221,10.947 68.859,9.992 C70.525,7.498 72.013,4.885 73.308,2.18 C73.789,1.174 74.533,-0.02 75.64,0.108 C77.09,0.276 77.208,2.368 76.714,3.741 C75.113,8.187 72.393,11.552 72.015,16.396 C71.621,21.446 72.551,26.571 74.518,31.252" id="Fill-157" fill="#225283" mask="url(#mask-16)"></path>
                        <path d="M1.783,37.116 C7.459,36.255 13.023,34.654 18.29,32.368 C19.386,31.893 20.505,31.379 21.698,31.339 C22.892,31.3 24.197,31.869 24.624,32.984 C25.341,34.851 23.348,36.586 21.569,37.499 C11.968,42.428 -0.547,44.64 -11.315,43.816 C-15.515,43.495 -18.134,39.3 -13.281,37.468 C-8.899,35.814 -2.888,37.825 1.783,37.116" id="Fill-159" fill="#225283" mask="url(#mask-16)"></path>
                    </g>
                    <path d="M234.986,292.782 C253.847,301.489 267.856,266.83 241.668,268.11 C227.861,268.786 221.395,283.462 231.774,290.896 C232.855,291.67 233.928,292.295 234.986,292.782" id="Fill-161" fill="#2A629F"></path>
                    <path d="M322.135,382.454 C340.996,391.16 355.006,356.501 328.816,357.781 C315.01,358.457 308.544,373.133 318.923,380.566 C320.005,381.341 321.077,381.966 322.135,382.454" id="Fill-162" fill="#1E2A4A"></path>
                    <path d="M197.026,144.293 C207.979,149.35 216.116,129.222 200.906,129.965 C192.888,130.357 189.133,138.88 195.161,143.198 C195.789,143.647 196.412,144.01 197.026,144.293" id="Fill-163" fill="#1E2A4A"></path>
                    <path d="M23.551,103.759 C34.505,108.815 42.641,88.687 27.432,89.431 C19.414,89.823 15.658,98.346 21.686,102.663 C22.314,103.113 22.938,103.475 23.551,103.759" id="Fill-164" fill="#1E2A4A"></path>
                    <path d="M82.529,24.484 C88.031,27.024 92.118,16.914 84.478,17.287 C80.451,17.484 78.565,21.765 81.592,23.934 C81.908,24.16 82.221,24.342 82.529,24.484" id="Fill-165" fill="#1E2A4A"></path>
                    <path d="M202.184,269.959 C207.686,272.499 211.773,262.388 204.133,262.762 C200.106,262.959 198.22,267.24 201.247,269.408 C201.563,269.635 201.876,269.816 202.184,269.959" id="Fill-166" fill="#1E2A4A"></path>
                    <path d="M304.185,312.553 C309.688,315.093 313.773,304.981 306.134,305.355 C302.106,305.553 300.221,309.834 303.248,312.002 C303.563,312.229 303.877,312.41 304.185,312.553" id="Fill-167" fill="#1E2A4A"></path>
                    <path d="M16.594,168.963 C29.524,174.932 39.129,151.171 21.175,152.049 C11.709,152.512 7.276,162.573 14.392,167.669 C15.133,168.2 15.869,168.628 16.594,168.963" id="Fill-168" fill="#2A629F"></path>
                    <path d="M186.635,48.792 C193.096,51.774 197.894,39.903 188.924,40.341 C184.194,40.573 181.979,45.6 185.535,48.146 C185.905,48.411 186.273,48.625 186.635,48.792" id="Fill-169" fill="#2A629F"></path>
                    <path d="M215.712,82.518 C216.067,82.432 216.475,83.006 217.057,83.601 C218.896,85.481 220.924,87.92 223.677,88.296 C225.479,88.542 227.455,88.052 229.04,88.945 C229.172,89.019 229.308,89.112 229.36,89.255 C229.462,89.535 229.2,89.804 228.966,89.988 C226.636,91.817 223.84,93.907 223.069,96.954 C222.744,98.254 222.38,99.626 222.489,100.943 C222.545,101.625 222.805,103.703 221.687,103.74 C221.367,103.75 221.14,103.444 220.965,103.177 C219.973,101.662 218.856,100.511 217.58,99.25 C217.098,98.774 216.782,98.153 216.17,97.81 C215.875,97.644 215.545,97.553 215.22,97.462 C213.109,96.878 210.641,96.651 208.688,95.629 C208.392,95.474 208.132,95.138 208.248,94.824 C208.292,94.702 208.386,94.606 208.479,94.515 C209.459,93.559 210.614,92.8 211.645,91.898 C213.36,90.396 214.076,88.637 214.567,86.474 C214.792,85.484 214.812,84.457 215.116,83.48 C215.313,82.845 215.504,82.567 215.712,82.518" id="Fill-170" fill="#2A629F"></path>
                    <path d="M24.789,35.066 C25.022,35.01 25.29,35.387 25.671,35.777 C26.878,37.011 28.209,38.611 30.016,38.858 C31.198,39.02 32.495,38.698 33.535,39.284 C33.622,39.332 33.71,39.394 33.745,39.488 C33.812,39.671 33.64,39.848 33.486,39.968 C31.957,41.169 30.123,42.54 29.617,44.539 C29.403,45.393 29.165,46.293 29.236,47.157 C29.273,47.604 29.443,48.968 28.709,48.993 C28.499,49 28.351,48.799 28.236,48.623 C27.585,47.629 26.852,46.874 26.015,46.046 C25.698,45.734 25.491,45.326 25.089,45.101 C24.896,44.993 24.68,44.933 24.466,44.873 C23.081,44.49 21.461,44.341 20.18,43.67 C19.985,43.568 19.815,43.348 19.891,43.142 C19.92,43.062 19.982,42.998 20.042,42.94 C20.686,42.311 21.443,41.814 22.12,41.222 C23.246,40.236 23.715,39.082 24.038,37.662 C24.185,37.013 24.199,36.339 24.397,35.698 C24.527,35.281 24.652,35.099 24.789,35.066" id="Fill-171" fill="#2A629F"></path>
                    <path d="M273.306,339.949 C273.476,340.118 273.296,340.543 273.165,341.073 C272.75,342.749 272.088,344.722 272.828,346.389 C273.313,347.479 274.268,348.413 274.315,349.605 C274.32,349.705 274.314,349.813 274.253,349.892 C274.132,350.045 273.892,349.992 273.708,349.925 C271.884,349.255 269.752,348.415 267.785,349.036 C266.947,349.303 266.056,349.573 265.358,350.089 C264.997,350.355 263.927,351.217 263.521,350.605 C263.404,350.431 263.497,350.199 263.586,350.009 C264.09,348.933 264.346,347.912 264.609,346.765 C264.709,346.331 264.947,345.94 264.928,345.48 C264.918,345.259 264.855,345.043 264.794,344.83 C264.392,343.451 263.667,341.994 263.563,340.552 C263.548,340.333 263.646,340.072 263.861,340.028 C263.944,340.011 264.03,340.03 264.113,340.051 C264.985,340.268 265.807,340.65 266.666,340.915 C268.097,341.354 269.325,341.147 270.702,340.675 C271.332,340.459 271.912,340.116 272.563,339.948 C272.984,339.839 273.206,339.85 273.306,339.949" id="Fill-172" fill="#2A629F"></path>
                    <path d="M278.63,200.959 C278.8,201.128 278.62,201.553 278.489,202.083 C278.074,203.759 277.412,205.731 278.152,207.398 C278.637,208.489 279.592,209.423 279.64,210.615 C279.645,210.715 279.639,210.823 279.577,210.901 C279.456,211.055 279.216,211.002 279.032,210.935 C277.208,210.265 275.076,209.425 273.109,210.046 C272.271,210.313 271.38,210.583 270.683,211.099 C270.321,211.365 269.251,212.227 268.845,211.615 C268.729,211.44 268.821,211.209 268.91,211.019 C269.414,209.942 269.67,208.922 269.934,207.774 C270.033,207.341 270.271,206.95 270.252,206.49 C270.242,206.269 270.18,206.053 270.118,205.84 C269.716,204.461 268.991,203.004 268.888,201.562 C268.872,201.343 268.97,201.082 269.186,201.038 C269.269,201.021 269.354,201.04 269.438,201.061 C270.31,201.278 271.131,201.661 271.99,201.925 C273.421,202.364 274.649,202.157 276.026,201.685 C276.656,201.469 277.236,201.126 277.887,200.958 C278.309,200.85 278.53,200.859 278.63,200.959" id="Fill-173" fill="#2A629F"></path>
                    <path d="M144.403,6.485 C144.573,6.654 144.394,7.079 144.263,7.609 C143.848,9.285 143.186,11.258 143.926,12.924 C144.41,14.015 145.365,14.949 145.414,16.142 C145.418,16.241 145.413,16.349 145.351,16.427 C145.23,16.581 144.99,16.528 144.806,16.46 C142.981,15.79 140.85,14.951 138.883,15.572 C138.045,15.839 137.154,16.109 136.457,16.625 C136.095,16.891 135.025,17.753 134.618,17.141 C134.502,16.967 134.595,16.735 134.684,16.545 C135.188,15.468 135.444,14.448 135.708,13.3 C135.807,12.867 136.045,12.477 136.025,12.016 C136.016,11.794 135.954,11.579 135.891,11.366 C135.489,9.987 134.765,8.53 134.661,7.088 C134.646,6.869 134.744,6.608 134.959,6.564 C135.042,6.547 135.128,6.566 135.211,6.586 C136.083,6.804 136.905,7.186 137.764,7.451 C139.194,7.89 140.423,7.683 141.8,7.21 C142.43,6.994 143.01,6.652 143.66,6.484 C144.083,6.375 144.304,6.386 144.403,6.485" id="Fill-174" fill="#2A629F"></path>
                    <path d="M234.635,152.201 C234.805,152.369 234.625,152.794 234.494,153.325 C234.079,155 233.417,156.973 234.157,158.64 C234.642,159.73 235.597,160.665 235.646,161.857 C235.649,161.957 235.644,162.064 235.583,162.143 C235.461,162.296 235.221,162.243 235.038,162.176 C233.213,161.506 231.082,160.667 229.115,161.287 C228.277,161.554 227.385,161.825 226.688,162.34 C226.327,162.606 225.256,163.468 224.85,162.857 C224.734,162.682 224.826,162.45 224.915,162.26 C225.419,161.184 225.676,160.164 225.939,159.016 C226.039,158.582 226.277,158.192 226.257,157.731 C226.248,157.51 226.185,157.294 226.123,157.082 C225.721,155.702 224.996,154.245 224.893,152.803 C224.877,152.584 224.975,152.323 225.19,152.279 C225.274,152.262 225.36,152.282 225.442,152.302 C226.314,152.519 227.136,152.902 227.996,153.166 C229.426,153.605 230.654,153.398 232.032,152.926 C232.662,152.71 233.242,152.367 233.892,152.2 C234.314,152.091 234.535,152.101 234.635,152.201" id="Fill-175" fill="#1E2A4A"></path>
                    <path d="M53.331,0.88 C53.501,1.049 53.322,1.475 53.19,2.005 C52.775,3.68 52.114,5.653 52.853,7.32 C53.338,8.411 54.293,9.345 54.342,10.537 C54.346,10.637 54.34,10.745 54.279,10.823 C54.158,10.976 53.917,10.923 53.734,10.856 C51.909,10.186 49.778,9.347 47.811,9.967 C46.973,10.234 46.082,10.505 45.384,11.02 C45.023,11.287 43.953,12.148 43.546,11.537 C43.43,11.362 43.522,11.13 43.611,10.94 C44.115,9.864 44.372,8.843 44.635,7.696 C44.735,7.262 44.973,6.872 44.953,6.412 C44.944,6.19 44.881,5.975 44.819,5.762 C44.417,4.382 43.692,2.925 43.589,1.483 C43.573,1.264 43.671,1.003 43.887,0.959 C43.97,0.942 44.056,0.961 44.139,0.982 C45.011,1.199 45.832,1.582 46.692,1.846 C48.123,2.286 49.351,2.079 50.728,1.606 C51.358,1.39 51.938,1.047 52.588,0.88 C53.011,0.771 53.231,0.781 53.331,0.88" id="Fill-176" fill="#1E2A4A"></path>
                    <path d="M44.644,246.636 C44.814,246.804 44.635,247.229 44.504,247.76 C44.089,249.435 43.427,251.408 44.167,253.074 C44.651,254.165 45.606,255.1 45.655,256.292 C45.659,256.392 45.653,256.499 45.592,256.577 C45.471,256.73 45.23,256.678 45.047,256.61 C43.222,255.941 41.091,255.102 39.125,255.722 C38.286,255.989 37.395,256.26 36.697,256.774 C36.336,257.041 35.266,257.903 34.859,257.292 C34.743,257.117 34.836,256.885 34.925,256.695 C35.428,255.618 35.685,254.599 35.949,253.45 C36.048,253.017 36.286,252.627 36.267,252.166 C36.257,251.944 36.194,251.729 36.132,251.517 C35.73,250.137 35.005,248.68 34.902,247.238 C34.886,247.019 34.984,246.758 35.2,246.714 C35.283,246.697 35.369,246.717 35.452,246.737 C36.324,246.954 37.146,247.337 38.005,247.601 C39.435,248.04 40.664,247.833 42.041,247.36 C42.671,247.145 43.251,246.802 43.901,246.635 C44.324,246.525 44.544,246.536 44.644,246.636" id="Fill-177" fill="#1E2A4A"></path>
                    <path d="M298.525,411.966 C298.695,412.135 298.517,412.561 298.385,413.091 C297.97,414.766 297.308,416.739 298.048,418.405 C298.532,419.496 299.487,420.431 299.536,421.623 C299.54,421.723 299.535,421.83 299.473,421.908 C299.353,422.062 299.111,422.009 298.929,421.941 C297.104,421.271 294.973,420.433 293.006,421.053 C292.167,421.32 291.276,421.591 290.579,422.105 C290.217,422.372 289.147,423.234 288.74,422.623 C288.624,422.448 288.717,422.216 288.806,422.026 C289.31,420.949 289.566,419.929 289.83,418.781 C289.93,418.348 290.167,417.958 290.147,417.497 C290.138,417.275 290.075,417.061 290.014,416.848 C289.611,415.468 288.887,414.011 288.783,412.569 C288.768,412.35 288.865,412.089 289.081,412.045 C289.164,412.028 289.25,412.047 289.333,412.067 C290.205,412.285 291.026,412.668 291.886,412.932 C293.316,413.371 294.545,413.164 295.922,412.691 C296.552,412.476 297.133,412.133 297.782,411.966 C298.205,411.856 298.426,411.867 298.525,411.966" id="Fill-178" fill="#1E2A4A"></path>
                </g>
            </g>
        </g>
    </g>
</svg>