<?xml version="1.0" encoding="UTF-8"?>
<svg width="12px" height="14px" viewBox="0 0 12 14" version="1.1" xmlns="http://www.w3.org/2000/svg" xmlns:xlink="http://www.w3.org/1999/xlink">
    <!-- Generator: Sketch 51.2 (57519) - http://www.bohemiancoding.com/sketch -->
    <title>best-icon</title>
    <desc>Created with Sketch.</desc>
    <defs></defs>
    <g id="Page-1" stroke="none" stroke-width="1" fill="none" fill-rule="evenodd">
        <g id="Битва-товаров.-Страница-товара---Desktop" transform="translate(-216.000000, -338.000000)" fill="#FFFFFF">
            <g id="Button" transform="translate(184.000000, 321.000000)">
                <g id="Group" transform="translate(32.000000, 16.000000)">
                    <g id="best-icon" transform="translate(0.000000, 1.000000)">
                        <path d="M8.988,8.663 C8.988,8.663 8.36,7.631 7.516,7.509 C6.672,7.387 3.014,8.218 3.014,8.218 C3.014,8.218 2.121,7.999 1.954,7.344 C1.945,7.309 1.935,7.271 1.926,7.234 L1.926,13.025 C1.926,13.563 1.495,14 0.963,14 C0.431,14 0,13.563 0,13.025 L0,0.974 C0,0.436 0.431,0 0.963,0 C1.495,0 1.926,0.436 1.926,0.974 L1.926,1.201 C2.525,1.542 3.44,1.829 4.795,1.727 C7.749,1.504 9.393,0.963 10.667,1.649 C11.942,2.337 12,3.011 12,3.011 L8.988,8.663 L8.988,8.663 Z" id="Shape"></path>
                    </g>
                </g>
            </g>
        </g>
    </g>
</svg>