<?xml version="1.0" encoding="UTF-8"?>
<svg width="13px" height="13px" viewBox="0 0 13 13" version="1.1" xmlns="http://www.w3.org/2000/svg" xmlns:xlink="http://www.w3.org/1999/xlink">
    <!-- Generator: Sketch 51.2 (57519) - http://www.bohemiancoding.com/sketch -->
    <title>close</title>
    <desc>Created with Sketch.</desc>
    <defs></defs>
    <g id="Symbols" stroke="none" stroke-width="1" fill="none" fill-rule="evenodd">
        <g id="Ðbsent" transform="translate(-11.000000, -11.000000)" fill="#FFFFFF">
            <g id="close">
                <path d="M19.8393552,17.1765314 L22.4456769,19.782853 C23.181095,20.5182711 23.181095,21.710629 22.4456769,22.4460471 C21.7102589,23.1814652 20.517901,23.1814652 19.784444,22.4460471 L17.1761612,19.8397254 L14.3482335,22.6676531 C13.5814376,23.434449 12.3400519,23.434449 11.5752171,22.6676531 C10.8084212,21.9028182 10.8084212,20.6594714 11.5752171,19.8946366 L14.4031448,17.0667089 L11.7968231,14.4584261 C11.061405,13.723008 11.061405,12.5306502 11.7968231,11.7971932 C12.5322411,11.0617751 13.7226379,11.0617751 14.458056,11.7971932 L17.0663388,14.4035149 L19.8942665,11.5736261 C20.6610624,10.8087913 21.9024481,10.8087913 22.6672829,11.5736261 C23.4340788,12.340422 23.4340788,13.5818078 22.6672829,14.3486037 L19.8393552,17.1765314 Z"></path>
            </g>
        </g>
    </g>
</svg>