<?xml version="1.0" encoding="UTF-8"?>
<svg width="18px" height="16px" viewBox="0 0 18 16" version="1.1" xmlns="http://www.w3.org/2000/svg" xmlns:xlink="http://www.w3.org/1999/xlink">
    <!-- Generator: Sketch 51.2 (57519) - http://www.bohemiancoding.com/sketch -->
    <title>dislike</title>
    <desc>Created with Sketch.</desc>
    <defs></defs>
    <g id="Symbols" stroke="none" stroke-width="1" fill="none" fill-rule="evenodd">
        <g id="Cart-product-info" transform="translate(-210.000000, -194.000000)" fill="#9FA3A7">
            <g id="Dislike">
                <g transform="translate(195.000000, 177.000000)">
                    <g id="dislike" transform="translate(16.000000, 17.000000)">
                        <path d="M1.85981823,2.77899014 L11.3045429,12.2237148 C10.0821195,13.2844023 9.1466218,14.4561868 9.008,14.998 C8.805,14.3 7.507,12.659 5.683,11.459 C3.802,10.222 0.978,9.065 0.999,5.971 C1.00810646,4.655234 1.33605588,3.58492475 1.85981823,2.77899014 Z M4.37630327,1.05283448 C6.07750993,0.751225785 7.98839849,1.69590182 8.996,4.058 C10.972,-0.603 16.962,0.289 17.001,5.937 C17.0168688,8.27500692 15.3882014,9.46355152 13.7948104,10.4713416 L4.37630327,1.05283448 Z" id="Combined-Shape"></path>
                        <path d="M0.5,1.5 L13,14" id="Line-3" stroke="#9FA3A7" stroke-width="2" stroke-linecap="square"></path>
                    </g>
                </g>
            </g>
        </g>
    </g>
</svg>