<?xml version="1.0" encoding="UTF-8"?>
<svg width="90px" height="35px" viewBox="0 0 90 35" version="1.1" xmlns="http://www.w3.org/2000/svg" xmlns:xlink="http://www.w3.org/1999/xlink">
    <!-- Generator: Sketch 51.2 (57519) - http://www.bohemiancoding.com/sketch -->
    <title>G+</title>
    <desc>Created with Sketch.</desc>
    <defs></defs>
    <g id="Page-1" stroke="none" stroke-width="1" fill="none" fill-rule="evenodd">
        <g id="Советы.-Страница-товара----Desktop" transform="translate(-950.000000, -5360.000000)">
            <g id="Social" transform="translate(750.000000, 5360.000000)">
                <g id="G+" transform="translate(200.000000, 0.000000)">
                    <rect id="Rectangle" fill="#F05638" x="0" y="0" width="90" height="35" rx="4"></rect>
                    <g id="G" transform="translate(12.000000, 10.000000)" fill="#FFFFFF">
                        <path d="M20.094,8.452 C20.087,9.075 20.085,9.696 20.082,10.318 C19.448,10.315 18.813,10.318 18.183,10.318 C18.176,9.696 18.176,9.075 18.17,8.455 C17.536,8.448 16.898,8.445 16.264,8.442 L16.264,6.585 C16.898,6.58 17.532,6.578 18.17,6.572 C18.173,5.952 18.179,5.33 18.186,4.708 L20.082,4.708 C20.085,5.33 20.09,5.952 20.094,6.572 C20.728,6.578 21.365,6.582 21.999,6.585 L21.999,8.442 C21.365,8.445 20.728,8.448 20.094,8.452 L20.094,8.452 Z M5.498,13.684 C2.861,12.837 0.942,10.238 1,7.514 C0.869,4.147 3.884,1.037 7.328,0.997 C9.083,0.851 10.79,1.518 12.12,2.605 C11.575,3.191 11.02,3.771 10.428,4.313 C9.257,3.618 7.85,3.087 6.483,3.559 C4.278,4.172 2.943,6.719 3.76,8.828 C4.434,11.033 7.174,12.242 9.322,11.316 C10.434,10.927 11.166,9.924 11.489,8.845 C10.214,8.82 8.939,8.835 7.666,8.801 C7.662,8.059 7.659,7.321 7.662,6.579 C9.787,6.575 11.916,6.57 14.044,6.588 C14.174,8.405 13.901,10.35 12.692,11.809 C11.04,13.891 7.984,14.502 5.498,13.684 L5.498,13.684 Z" id="Shape"></path>
                    </g>
                    <text id="Share" font-family="OpenSans, Open Sans" font-size="12" font-weight="normal" fill="#000000">
                        <tspan x="44" y="22">Share</tspan>
                    </text>
                </g>
            </g>
        </g>
    </g>
</svg>