<?xml version="1.0" encoding="UTF-8"?>
<svg width="17px" height="12px" viewBox="0 0 17 12" version="1.1" xmlns="http://www.w3.org/2000/svg" xmlns:xlink="http://www.w3.org/1999/xlink">
    <!-- Generator: Sketch 51.2 (57519) - http://www.bohemiancoding.com/sketch -->
    <title>Envelope</title>
    <desc>Created with Sketch.</desc>
    <defs></defs>
    <g id="Symbols" stroke="none" stroke-width="1" fill="none" fill-rule="evenodd">
        <g id="Footer" transform="translate(-1075.000000, -202.000000)" fill="#FFFFFF">
            <g id="4">
                <g transform="translate(869.000000, 149.000000)">
                    <g id="Input-Field" transform="translate(0.000000, 35.000000)">
                        <g id="Envelope" transform="translate(206.000000, 18.000000)">
                            <path d="M16,12 L1,12 C0.448,12 0,11.552 0,11 L0,1 C0,0.448 0.448,0 1,0 L16,0 C16.552,0 17,0.448 17,1 L17,11 C17,11.552 16.552,12 16,12 L16,12 Z M8.502,6.002 L12.504,2 L4.5,2 L8.502,6.002 L8.502,6.002 Z M9.572,7.907 L14.907,2.572 C15.021,2.457 15,10 15,10 L2,10 C2,10 2.072,2.4 2.174,2.502 L7.248,7.576 C7.427,7.756 9.375,8.104 9.572,7.907 L9.572,7.907 Z" id="Shape"></path>
                        </g>
                    </g>
                </g>
            </g>
        </g>
    </g>
</svg>