<?xml version="1.0" encoding="UTF-8"?>
<svg width="185px" height="16px" viewBox="0 0 185 16" version="1.1" xmlns="http://www.w3.org/2000/svg" xmlns:xlink="http://www.w3.org/1999/xlink">
    <!-- Generator: Sketch 51.2 (57519) - http://www.bohemiancoding.com/sketch -->
    <title>Logo-white</title>
    <desc>Created with Sketch.</desc>
    <defs></defs>
    <g id="Symbols" stroke="none" stroke-width="1" fill="none" fill-rule="evenodd">
        <g id="Footer" transform="translate(-39.000000, -77.000000)">
            <g id="Logo-white">
                <g transform="translate(39.000000, 77.000000)">
                    <path d="M11.5,12.4 L11.5,15 L0.66,15 L0.66,1 L11.24,1 L11.24,3.6 L3.88,3.6 L3.88,6.64 L10.38,6.64 L10.38,9.16 L3.88,9.16 L3.88,12.4 L11.5,12.4 Z M39.6400002,1 C40.8800064,1 41.9566623,1.2066646 42.8700002,1.62 C43.7833381,2.0333354 44.4866644,2.6199962 44.9800002,3.38 C45.473336,4.1400038 45.7200002,5.0399948 45.7200002,6.08 C45.7200002,7.1066718 45.473336,8.0033295 44.9800002,8.77 C44.4866644,9.5366705 43.7833381,10.1233313 42.8700002,10.53 C41.9566623,10.9366687 40.8800064,11.14 39.6400002,11.14 L36.8200002,11.14 L36.8200002,15 L33.5800002,15 L33.5800002,1 L39.6400002,1 Z M39.4600002,8.5 C40.4333384,8.5 41.173331,8.2900021 41.6800002,7.87 C42.1866694,7.4499979 42.4400002,6.8533372 42.4400002,6.08 C42.4400002,5.2933294 42.1866694,4.6900021 41.6800002,4.27 C41.173331,3.8499979 40.4333384,3.64 39.4600002,3.64 L36.8200002,3.64 L36.8200002,8.5 L39.4600002,8.5 Z M61.7600003,12.4 L61.7600003,15 L50.9200003,15 L50.9200003,1 L61.5000003,1 L61.5000003,3.6 L54.1400003,3.6 L54.1400003,6.64 L60.6400003,6.64 L60.6400003,9.16 L54.1400003,9.16 L54.1400003,12.4 L61.7600003,12.4 Z M76.1600004,15 L73.4600004,11.1 L70.4800004,11.1 L70.4800004,15 L67.2400004,15 L67.2400004,1 L73.3000004,1 C74.5400066,1 75.6166625,1.2066646 76.5300004,1.62 C77.4433383,2.0333354 78.1466646,2.6199962 78.6400004,3.38 C79.1333362,4.1400038 79.3800004,5.0399948 79.3800004,6.08 C79.3800004,7.1200052 79.1300029,8.0166629 78.6300004,8.77 C78.1299979,9.5233371 77.420005,10.099998 76.5000004,10.5 L79.6400004,15 L76.1600004,15 Z M76.1000004,6.08 C76.1000004,5.2933294 75.8466696,4.6900021 75.3400004,4.27 C74.8333312,3.8499979 74.0933386,3.64 73.1200004,3.64 L70.4800004,3.64 L70.4800004,8.52 L73.1200004,8.52 C74.0933386,8.52 74.8333312,8.3066688 75.3400004,7.88 C75.8466696,7.4533312 76.1000004,6.8533372 76.1000004,6.08 Z M87.5400005,3.64 L83.0600005,3.64 L83.0600005,1 L95.2600005,1 L95.2600005,3.64 L90.7800005,3.64 L90.7800005,15 L87.5400005,15 L87.5400005,3.64 Z M106.480001,15.24 C105.02666,15.24 103.716673,14.9266698 102.550001,14.3 C101.383328,13.6733302 100.470004,12.8100055 99.8100006,11.71 C99.1499973,10.6099945 98.8200006,9.3733402 98.8200006,8 C98.8200006,6.6266598 99.1499973,5.3900055 99.8100006,4.29 C100.470004,3.1899945 101.383328,2.3266698 102.550001,1.7 C103.716673,1.0733302 105.02666,0.76 106.480001,0.76 C107.933341,0.76 109.239995,1.0733302 110.400001,1.7 C111.560006,2.3266698 112.473331,3.1899945 113.140001,4.29 C113.806671,5.3900055 114.140001,6.6266598 114.140001,8 C114.140001,9.3733402 113.806671,10.6099945 113.140001,11.71 C112.473331,12.8100055 111.560006,13.6733302 110.400001,14.3 C109.239995,14.9266698 107.933341,15.24 106.480001,15.24 Z M106.480001,12.48 C107.306671,12.48 108.053331,12.2900019 108.720001,11.91 C109.386671,11.5299981 109.909999,11.0000034 110.290001,10.32 C110.670002,9.6399966 110.860001,8.866671 110.860001,8 C110.860001,7.133329 110.670002,6.3600034 110.290001,5.68 C109.909999,4.9999966 109.386671,4.4700019 108.720001,4.09 C108.053331,3.7099981 107.306671,3.52 106.480001,3.52 C105.65333,3.52 104.906671,3.7099981 104.240001,4.09 C103.573331,4.4700019 103.050002,4.9999966 102.670001,5.68 C102.289999,6.3600034 102.100001,7.133329 102.100001,8 C102.100001,8.866671 102.289999,9.6399966 102.670001,10.32 C103.050002,11.0000034 103.573331,11.5299981 104.240001,11.91 C104.906671,12.2900019 105.65333,12.48 106.480001,12.48 Z M119.480001,1 L122.720001,1 L122.720001,12.36 L129.740001,12.36 L129.740001,15 L119.480001,15 L119.480001,1 Z M141.000001,15.24 C139.54666,15.24 138.236673,14.9266698 137.070001,14.3 C135.903328,13.6733302 134.990004,12.8100055 134.330001,11.71 C133.669997,10.6099945 133.340001,9.3733402 133.340001,8 C133.340001,6.6266598 133.669997,5.3900055 134.330001,4.29 C134.990004,3.1899945 135.903328,2.3266698 137.070001,1.7 C138.236673,1.0733302 139.54666,0.76 141.000001,0.76 C142.453341,0.76 143.759995,1.0733302 144.920001,1.7 C146.080007,2.3266698 146.993331,3.1899945 147.660001,4.29 C148.326671,5.3900055 148.660001,6.6266598 148.660001,8 C148.660001,9.3733402 148.326671,10.6099945 147.660001,11.71 C146.993331,12.8100055 146.080007,13.6733302 144.920001,14.3 C143.759995,14.9266698 142.453341,15.24 141.000001,15.24 Z M141.000001,12.48 C141.826672,12.48 142.573331,12.2900019 143.240001,11.91 C143.906671,11.5299981 144.429999,11.0000034 144.810001,10.32 C145.190003,9.6399966 145.380001,8.866671 145.380001,8 C145.380001,7.133329 145.190003,6.3600034 144.810001,5.68 C144.429999,4.9999966 143.906671,4.4700019 143.240001,4.09 C142.573331,3.7099981 141.826672,3.52 141.000001,3.52 C140.17333,3.52 139.426671,3.7099981 138.760001,4.09 C138.093331,4.4700019 137.570003,4.9999966 137.190001,5.68 C136.809999,6.3600034 136.620001,7.133329 136.620001,8 C136.620001,8.866671 136.809999,9.6399966 137.190001,10.32 C137.570003,11.0000034 138.093331,11.5299981 138.760001,11.91 C139.426671,12.2900019 140.17333,12.48 141.000001,12.48 Z M163.460001,7.78 L166.420001,7.78 L166.420001,13.46 C165.659997,14.0333362 164.780006,14.4733318 163.780001,14.78 C162.779996,15.0866682 161.773339,15.24 160.760001,15.24 C159.30666,15.24 158.000007,14.9300031 156.840001,14.31 C155.679995,13.6899969 154.770004,12.8300055 154.110001,11.73 C153.449998,10.6299945 153.120001,9.3866736 153.120001,8 C153.120001,6.6133264 153.449998,5.3700055 154.110001,4.27 C154.770004,3.1699945 155.686662,2.3100031 156.860001,1.69 C158.03334,1.0699969 159.353327,0.76 160.820001,0.76 C162.046674,0.76 163.159996,0.9666646 164.160001,1.38 C165.160006,1.7933354 165.999997,2.3933294 166.680001,3.18 L164.600001,5.1 C163.599996,4.0466614 162.393341,3.52 160.980001,3.52 C160.086663,3.52 159.293338,3.7066648 158.600001,4.08 C157.906664,4.4533352 157.366669,4.9799966 156.980001,5.66 C156.593332,6.3400034 156.400001,7.1199956 156.400001,8 C156.400001,8.866671 156.593332,9.6399966 156.980001,10.32 C157.366669,11.0000034 157.903331,11.5299981 158.590001,11.91 C159.276671,12.2900019 160.059996,12.48 160.940001,12.48 C161.873339,12.48 162.71333,12.280002 163.460001,11.88 L163.460001,7.78 Z M179.040001,10.04 L179.040001,15 L175.800001,15 L175.800001,10 L170.380001,1 L173.820001,1 L177.560001,7.22 L181.300001,1 L184.480001,1 L179.040001,10.04 Z" id="EXPERTOLOGY" fill="#FFFFFF"></path>
                    <path d="M17.9600001,15 L14.2400001,15 L24.5600001,1 L28.0600001,1 L17.9600001,15 Z M18.7623703,7.08396488 L14.4284867,1.02357478 L18.1088175,1.02622081 L20.7234428,4.71268003 L18.7623703,7.08396488 Z M24.3521289,14.9822905 L21.66,11.1113596 L23.5974082,8.76 L28.0901742,14.991346 L24.3521289,14.9822905 Z" id="EXPERTOLOGY" fill="#F05638"></path>
                </g>
            </g>
        </g>
    </g>
</svg>