<?xml version="1.0" encoding="UTF-8"?>
<svg width="24px" height="24px" viewBox="0 0 24 24" version="1.1" xmlns="http://www.w3.org/2000/svg" xmlns:xlink="http://www.w3.org/1999/xlink">
    <!-- Generator: Sketch 51.2 (57519) - http://www.bohemiancoding.com/sketch -->
    <title>Option</title>
    <desc>Created with Sketch.</desc>
    <defs></defs>
    <g id="Symbols" stroke="none" stroke-width="1" fill="none" fill-rule="evenodd">
        <g id="Сharacteristic-item" transform="translate(-42.000000, -13.000000)" fill="#353535">
            <g id="Option">
                <g transform="translate(42.000000, 13.000000)">
                    <g id="Shape">
                        <path d="M22.0956522,14.6347826 L21.0297391,15.1153043 C20.8366957,15.204 20.7438261,15.4215652 20.8163478,15.621913 L21.228,16.692 C21.597913,17.6786087 21.4638261,18.7429565 20.8606957,19.6153043 C20.2215652,20.4918261 19.2302609,21.0083478 18.2003478,21.0083478 C17.8346087,21.0083478 17.4474783,20.9332174 17.049913,20.7855652 L15.9469565,20.3598261 C15.9161739,20.3473043 15.8754783,20.3373913 15.8128696,20.3373913 C15.6573913,20.3373913 15.513913,20.4297391 15.4481739,20.5726957 L14.9577391,21.624 C14.4266087,22.7728696 13.2996522,23.4866087 12.0177391,23.4866087 C10.7353043,23.4866087 9.60782609,22.7728696 9.07669565,21.6229565 L8.58782609,20.5742609 C8.52365217,20.4286957 8.3786087,20.3373913 8.22208696,20.3373913 C8.15217391,20.3373913 8.12347826,20.3452174 8.10469565,20.3535652 L6.984,20.7709565 C6.61826087,20.9086957 6.23113043,20.9791304 5.8346087,20.9791304 C4.7666087,20.9791304 3.77217391,20.4641739 3.17478261,19.6012174 C2.56643478,18.7633043 2.42921739,17.7010435 2.80486957,16.6961739 L3.22173913,15.6125217 C3.2906087,15.422087 3.19773913,15.2034783 3.0026087,15.1137391 L1.93826087,14.6342609 C0.743478261,14.0994783 0,12.9970435 0,11.757913 C0,10.4968696 0.72573913,9.38869565 1.89495652,8.86643478 L2.96086957,8.38591304 C3.1533913,8.29773913 3.24573913,8.0786087 3.17321739,7.87773913 L2.76208696,6.80869565 C2.3906087,5.83565217 2.52469565,4.776 3.12991304,3.90104348 C3.75913043,3.03391304 4.75095652,2.5226087 5.78973913,2.5226087 C6.18365217,2.5226087 6.57078261,2.59252174 6.94017391,2.73078261 L8.03686957,3.13878261 C8.07391304,3.15391304 8.1146087,3.16382609 8.17721739,3.16382609 C8.33321739,3.16382609 8.47669565,3.07095652 8.54243478,2.92747826 L9.03234783,1.87565217 C9.56034783,0.736695652 10.7321739,0 12.0177391,0 C13.2996522,0 14.4266087,0.71373913 14.9582609,1.86313043 L15.4471304,2.91234783 C15.5113043,3.05791304 15.6568696,3.14921739 15.8128696,3.14921739 C15.8827826,3.14921739 15.9114783,3.1413913 15.9302609,3.13304348 L17.049913,2.71565217 C17.4203478,2.5773913 17.8074783,2.50747826 18.2003478,2.50747826 C19.2683478,2.50747826 20.2627826,3.02243478 20.8601739,3.88486957 C21.4690435,4.72382609 21.6057391,5.78608696 21.2295652,6.79043478 L20.8132174,7.87356522 C20.7438261,8.06452174 20.8366957,8.2826087 21.0323478,8.37234783 L22.0966957,8.85234783 C23.2643478,9.37408696 23.9906087,10.4817391 23.9906087,11.7433043 C23.9906087,13.0043478 23.2643478,14.1125217 22.0956522,14.6347826 L22.0956522,14.6347826 Z M21.6594783,9.79408696 L20.5904348,9.312 C19.8965217,8.99426087 19.5683478,8.22313043 19.8250435,7.51669565 L20.2429565,6.42834783 C20.4954783,5.75478261 20.4067826,5.04156522 19.9961739,4.47704348 C19.4384348,3.67147826 18.357913,3.336 17.4229565,3.68347826 L16.3262609,4.09252174 C16.1864348,4.152 16.0158261,4.18434783 15.8128696,4.18434783 C15.2353043,4.18434783 14.714087,3.85095652 14.4855652,3.33443478 L14.0008696,2.29304348 C13.6413913,1.51721739 12.8812174,1.03513043 12.0177391,1.03513043 C11.1438261,1.03513043 10.3481739,1.53443478 9.99026087,2.30608696 L9.50086957,3.35634783 C9.26452174,3.86765217 8.74486957,4.19895652 8.17721739,4.19895652 C8.04156522,4.19895652 7.8386087,4.18121739 7.6413913,4.09826087 L6.56713043,3.6986087 C5.65773913,3.35843478 4.58034783,3.68504348 3.9933913,4.49269565 C3.5906087,5.076 3.49826087,5.79026087 3.74765217,6.44347826 L4.16191304,7.52191304 C4.42069565,8.23826087 4.092,9.0093913 3.40226087,9.32556522 L2.33217391,9.80817391 C1.54226087,10.1608696 1.05286957,10.908 1.05286957,11.757913 C1.05286957,12.585913 1.55947826,13.3273043 2.37547826,13.6925217 L3.44452174,14.174087 C4.1373913,14.4918261 4.46556522,15.2624348 4.21043478,15.9693913 L3.79147826,17.0577391 C3.53895652,17.7318261 3.62921739,18.4445217 4.03878261,19.0090435 C4.44626087,19.598087 5.11513043,19.944 5.8346087,19.944 C6.10121739,19.944 6.36208696,19.8965217 6.6093913,19.8031304 L7.70973913,19.394087 C7.84904348,19.334087 8.01913043,19.3017391 8.22208696,19.3017391 C8.80017391,19.3017391 9.32086957,19.6356522 9.5493913,20.1521739 L10.034087,21.1935652 C10.3935652,21.9693913 11.1532174,22.4509565 12.0177391,22.4509565 C12.8812174,22.4509565 13.6413913,21.9693913 14.0003478,21.1946087 L14.4897391,20.1433043 C14.7250435,19.6330435 15.2446957,19.3017391 15.8128696,19.3017391 C15.9485217,19.3017391 16.1514783,19.3194783 16.3486957,19.4029565 L17.4286957,19.8193043 C17.7005217,19.9205217 17.9624348,19.9732174 18.2003478,19.9732174 C18.8916522,19.9732174 19.5636522,19.617913 19.9972174,19.0226087 C20.3994783,18.4408696 20.4907826,17.7193043 20.2413913,17.054087 L19.8281739,15.9787826 C19.5683478,15.2634783 19.8965217,14.4923478 20.5878261,14.1756522 L21.657913,13.6930435 C22.4483478,13.3398261 22.9377391,12.5926957 22.9377391,11.7433043 C22.9377391,10.8933913 22.4483478,10.1462609 21.6594783,9.79408696 L21.6594783,9.79408696 Z M11.9953043,16.6528696 C9.24156522,16.6528696 7.00173913,14.4506087 7.00173913,11.7433043 C7.00173913,9.036 9.24156522,6.83321739 11.9953043,6.83321739 C14.7485217,6.83321739 16.9888696,9.036 16.9888696,11.7433043 C16.9888696,14.4506087 14.7485217,16.6528696 11.9953043,16.6528696 L11.9953043,16.6528696 Z M11.9953043,7.86834783 C9.82226087,7.86834783 8.0546087,9.60678261 8.0546087,11.7433043 C8.0546087,13.8793043 9.82226087,15.6177391 11.9953043,15.6177391 C14.1678261,15.6177391 15.936,13.8793043 15.936,11.7433043 C15.936,9.60678261 14.1678261,7.86834783 11.9953043,7.86834783 L11.9953043,7.86834783 Z"></path>
                    </g>
                </g>
            </g>
        </g>
    </g>
</svg>