<?xml version="1.0" encoding="UTF-8"?>
<svg width="14px" height="11px" viewBox="0 0 14 11" version="1.1" xmlns="http://www.w3.org/2000/svg" xmlns:xlink="http://www.w3.org/1999/xlink">
    <!-- Generator: Sketch 51.2 (57519) - http://www.bohemiancoding.com/sketch -->
    <title>Envelope</title>
    <desc>Created with Sketch.</desc>
    <defs></defs>
    <g id="Page-1" stroke="none" stroke-width="1" fill="none" fill-rule="evenodd">
        <g id="Контакты---Desktop" transform="translate(-219.000000, -453.000000)" fill="#FFC80A">
            <g id="Info-block" transform="translate(217.000000, 300.000000)">
                <g id="Email" transform="translate(2.000000, 145.000000)">
                    <g id="Envelope" transform="translate(0.000000, 8.000000)">
                        <path d="M13.6325073,10.6555851 C13.3875122,10.8855053 13.0935181,11 12.749545,11 L1.24947501,11 C0.90648187,11 0.61150777,10.8855053 0.36749265,10.6555851 C0.12249755,10.4256649 0,10.1492021 0,9.82619681 L0,4 C0.229315414,4.23922872 0.491950161,4.45239362 0.788884222,4.63856383 C2.67436651,5.8412234 3.96892062,6.68550532 4.67156657,7.16954787 C4.96850063,7.37526596 5.20957581,7.53537234 5.3947921,7.65079787 C5.57902842,7.76529255 5.8250035,7.88257979 6.13271735,8.00265957 C6.43945121,8.12273936 6.72658547,8.18231383 6.99216016,8.18231383 L7,8.18231383 L7.00783984,8.18231383 C7.27341453,8.18231383 7.55956881,8.12273936 7.86728265,8.00265957 C8.17401652,7.88257979 8.4199916,7.76529255 8.6052079,7.65079787 C8.79042419,7.53537234 9.03149937,7.37526596 9.32745345,7.16954787 C10.2133557,6.56821809 11.5098698,5.72393617 13.2179756,4.63856383 C13.5149097,4.44773936 13.7755845,4.23457447 14,4 L14,9.82619681 C14,10.1492021 13.8775024,10.424734 13.6325073,10.6555851 L13.6325073,10.6555851 Z M12.6633067,3.39048563 C10.7053059,4.75024777 9.48621028,5.59663033 9.00797984,5.9296333 C8.95604088,5.96630327 8.84432311,6.04558969 8.67576648,6.16749257 C8.50622988,6.29038652 8.36609268,6.38949455 8.25339493,6.46481665 C8.14167717,6.54013875 8.00643987,6.62438057 7.84768305,6.7185332 C7.68892622,6.81268583 7.53898922,6.88305253 7.39787204,6.9296333 C7.25773485,6.97621407 7.12739745,7 7.00783984,7 L7,7 L6.99216016,7 C6.87260255,7 6.74226515,6.97621407 6.60114798,6.9296333 C6.46101078,6.88305253 6.31107378,6.81268583 6.15231695,6.7185332 C5.99356013,6.62537166 5.85734285,6.54013875 5.74562509,6.46481665 C5.63390732,6.38949455 5.49279014,6.29038652 5.32423352,6.16749257 C5.15469691,6.04558969 5.04395912,5.96630327 4.99202016,5.9296333 C4.51770965,5.59663033 3.83564329,5.12091179 2.9448411,4.50346878 C2.05403892,3.88701685 1.52092958,3.51536174 1.34355313,3.39048563 C1.02113958,3.17145689 0.716365673,2.87115956 0.429231415,2.48860258 C0.143077138,2.10505451 0,1.75024777 0,1.4222002 C0,1.01585728 0.107797844,0.67690783 0.324373513,0.406342914 C0.539969201,0.135777998 0.848663027,0 1.24947501,0 L12.749545,0 C13.0876382,0 13.3806524,0.121902874 13.6285874,0.367690783 C13.8755425,0.611496531 14,0.905847374 14,1.24975223 C14,1.66105055 13.8726025,2.05450942 13.6168277,2.42913776 C13.3620328,2.80475719 13.0435391,3.12487611 12.6633067,3.39048563 L12.6633067,3.39048563 Z" id="Shape"></path>
                    </g>
                </g>
            </g>
        </g>
    </g>
</svg>