<?xml version="1.0" encoding="UTF-8"?>
<svg width="15px" height="15px" viewBox="0 0 15 15" version="1.1" xmlns="http://www.w3.org/2000/svg" xmlns:xlink="http://www.w3.org/1999/xlink">
    <!-- Generator: Sketch 51.2 (57519) - http://www.bohemiancoding.com/sketch -->
    <title>Phone</title>
    <desc>Created with Sketch.</desc>
    <defs></defs>
    <g id="Page-1" stroke="none" stroke-width="1" fill="none" fill-rule="evenodd">
        <g id="Контакты---Desktop" transform="translate(-219.000000, -716.000000)" fill="#FFC80A">
            <g id="Info-block" transform="translate(217.000000, 300.000000)">
                <g id="Phone" transform="translate(2.000000, 409.000000)">
                    <g transform="translate(0.000000, 7.000000)" id="Shape">
                        <path d="M14.9931391,11.8380939 C15.0241385,12.082189 14.9501398,12.293326 14.7701432,12.473565 L12.6581821,14.5715463 C12.5631838,14.6776298 12.4391861,14.7672343 12.2851889,14.8413897 C12.1321917,14.9155452 11.9811945,14.9629223 11.8331972,14.9845509 C11.8221975,14.9845509 11.790198,14.9876408 11.737199,14.9927904 C11.6842,14.9979401 11.6162012,15 11.5312028,15 C11.3302065,15 11.0042125,14.9660121 10.5542208,14.8970063 C10.1042291,14.8280005 9.55423922,14.6590909 8.90325121,14.3882175 C8.2522632,14.1183741 7.51327681,13.7136089 6.688292,13.1728921 C5.86230721,12.6332052 4.9833234,11.8916506 4.05234055,10.9482285 C3.31135419,10.2169734 2.6973655,9.51764625 2.21037447,8.85127712 C1.72338344,8.18387806 1.33139066,7.56694589 1.03539611,6.9994507 C0.738401576,6.43298544 0.516405665,5.91904697 0.36840839,5.4586652 C0.219411134,4.9972535 0.119412976,4.59969789 0.0664139521,4.26599835 C0.0134149282,3.93229882 -0.00758468509,3.67069486 0.00241513075,3.48015655 C0.0134149282,3.28961824 0.0184148361,3.18353474 0.0184148361,3.16190607 C0.0394144494,3.01359517 0.0874135654,2.86322439 0.161412203,2.70873386 C0.23541084,2.55527328 0.325409182,2.43065092 0.43140723,2.33589673 L2.54336834,0.222466355 C2.69136561,0.0741554518 2.86136248,0 3.05135898,0 C3.18935644,0 3.31135419,0.0401675364 3.41635226,0.119472672 C3.52235031,0.198777808 3.61234865,0.296621807 3.68634729,0.413004669 L5.38631598,3.63876682 C5.48131423,3.8087064 5.50731375,3.99409503 5.46531452,4.19493271 C5.4233153,4.39680033 5.33331695,4.56570997 5.1953195,4.70372151 L4.41733382,5.48235375 C4.39633421,5.50295249 4.37733456,5.53797034 4.36133485,5.58534743 C4.34533515,5.63272453 4.3373353,5.67289206 4.3373353,5.7048201 C4.3803345,5.92728646 4.47533276,6.18168086 4.62333003,6.46697336 C4.75032769,6.72136776 4.94632408,7.03137874 5.2113192,7.39700632 C5.47531434,7.76263389 5.85130741,8.18387806 6.33829845,8.65970887 C6.81528966,9.14686899 7.23828187,9.52588575 7.60927504,9.79675913 C7.97926823,10.0666026 8.28926252,10.2653804 8.53825793,10.3920626 C8.78625336,10.5197748 8.97724985,10.5959901 9.10924741,10.6227685 L9.30824375,10.6619061 C9.32924336,10.6619061 9.36324274,10.6546965 9.41124185,10.6382175 C9.45924097,10.6227685 9.49324034,10.6042296 9.51423996,10.5826009 L10.4192233,9.66080747 C10.6102198,9.49189783 10.8322157,9.40744301 11.086211,9.40744301 C11.2662077,9.40744301 11.4092051,9.43834112 11.5152031,9.5021972 L11.5312028,9.5021972 L14.5951464,11.3138561 C14.8181423,11.4518676 14.9501398,11.6259269 14.9931391,11.8380939 L14.9931391,11.8380939 Z"></path>
                    </g>
                </g>
            </g>
        </g>
    </g>
</svg>