<?xml version="1.0" encoding="UTF-8"?>
<svg width="28px" height="41px" viewBox="0 0 28 41" version="1.1" xmlns="http://www.w3.org/2000/svg" xmlns:xlink="http://www.w3.org/1999/xlink">
    <!-- Generator: Sketch 51.2 (57519) - http://www.bohemiancoding.com/sketch -->
    <title>pin-map-office</title>
    <desc>Created with Sketch.</desc>
    <defs></defs>
    <g id="Page-1" stroke="none" stroke-width="1" fill="none" fill-rule="evenodd">
        <g id="Контакты---Desktop" transform="translate(-516.000000, -1412.000000)">
            <g id="Map" transform="translate(0.000000, 1207.000000)">
                <g id="Map-Icon" transform="translate(516.000000, 205.000000)">
                    <g>
                        <g id="icon_" fill="#FFC80A">
                            <path d="M21.93,29.27 C26.014,22.007 28,16.977 28,13.892 C28,6.232 21.719,0 14,0 C6.28,0 0,6.232 0,13.892 C0,16.977 1.985,22.007 6.069,29.27 C8.958,34.407 10.799,37.689 10.919,37.869 C10.919,37.869 12.148,40.869 13.946,40.869 C15.718,40.869 17.081,37.869 17.081,37.869 C17.2,37.689 19.042,34.407 21.93,29.27 Z" id="Shape"></path>
                        </g>
                        <g id="icon" transform="translate(7.000000, 6.000000)" fill="#FBFBFB">
                            <circle id="Oval" cx="7.25" cy="8.203" r="7.25"></circle>
                        </g>
                    </g>
                </g>
            </g>
        </g>
    </g>
</svg>