<?xml version="1.0" encoding="UTF-8"?>
<svg width="15px" height="14px" viewBox="0 0 15 14" version="1.1" xmlns="http://www.w3.org/2000/svg" xmlns:xlink="http://www.w3.org/1999/xlink">
    <!-- Generator: Sketch 51.2 (57519) - http://www.bohemiancoding.com/sketch -->
    <title>Skype</title>
    <desc>Created with Sketch.</desc>
    <defs></defs>
    <g id="Page-1" stroke="none" stroke-width="1" fill="none" fill-rule="evenodd">
        <g id="Контакты---Desktop" transform="translate(-219.000000, -756.000000)" fill="#FFC80A" fill-rule="nonzero">
            <g id="Info-block" transform="translate(217.000000, 300.000000)">
                <g id="Email" transform="translate(2.000000, 449.000000)">
                    <g id="Skype" transform="translate(0.000000, 7.000000)">
                        <path d="M14.3925935,7.70719451 C14.1546509,7.37831671 14.0443766,6.97664589 14.0448254,6.57071072 C14.0448628,6.56835411 14.0448628,6.56599751 14.0448628,6.56360349 C14.0448628,2.94830424 11.1140648,0.0175062344 7.49876559,0.0175062344 C6.7078803,0.0175062344 5.95006234,0.158266833 5.24831671,0.415511222 C4.8686783,0.554663342 4.45279302,0.581408978 4.06357855,0.471770574 C3.71977556,0.374925187 3.3525187,0.334077307 2.97205736,0.360261845 C1.37386534,0.470236908 0.0872319202,1.78002494 0.00441396509,3.37986284 C-0.0351246883,4.1434788 0.193877805,4.85184539 0.604900249,5.41997506 C0.842842893,5.74885287 0.953117207,6.15052369 0.952630923,6.55645885 C0.952630923,6.55881546 0.952630923,6.56117207 0.952630923,6.56356608 C0.952630923,10.1788653 3.88339152,13.1096633 7.49872818,13.1096633 C8.28965087,13.1096633 9.04746883,12.9689027 9.74917706,12.7116584 C10.1288155,12.5725062 10.5447007,12.5457606 10.9339152,12.655399 C11.2777182,12.7522444 11.6449377,12.7930923 12.0254364,12.7669077 C13.6236284,12.6569327 14.9102244,11.347182 14.9930798,9.74738155 C15.0326185,8.98376559 14.803616,8.2753616 14.3925935,7.70719451 Z M7.73839152,5.39001247 C9.05831671,5.70389027 11.0529052,6.17820449 11.0529052,8.37527431 C11.0529052,9.45759352 10.5199002,10.2832294 9.55200748,10.7000499 C8.86133416,10.9975062 8.07965087,11.0376434 7.40607232,11.0376434 C5.33614713,11.0376434 4.02879052,9.42811721 3.97413965,9.35958853 C3.63516209,8.93442643 3.70492519,8.31490025 4.13012469,7.97592269 C4.55521197,7.63679551 5.17473815,7.70674564 5.51379052,8.13179551 C5.51682045,8.13542394 6.29865337,9.03332918 7.40607232,9.06845387 C8.73961347,9.1107606 9.04428928,8.71399002 9.0836783,8.37531172 C9.13182045,7.96167082 8.76385287,7.65800499 7.28270574,7.30578554 C6.02726933,7.00720698 4.12982544,6.55600998 4.12982544,4.53258105 C4.12982544,3.90246883 4.38609726,1.84653367 7.68392768,1.84653367 C9.76627182,1.84653367 10.9954115,3.48602244 11.0467332,3.55582294 C11.368803,3.99396509 11.2747631,4.61027431 10.8366209,4.93230673 C10.4003865,5.25295511 9.78796758,5.16119701 9.46466334,4.72836658 C9.44147132,4.69855362 8.73789277,3.91578554 7.68392768,3.81572319 C6.88642145,3.73997506 6.09901496,4.02755611 6.09901496,4.45238155 C6.09901496,4.90249377 6.32513716,5.05391521 7.73839152,5.39001247 Z" id="Shape"></path>
                    </g>
                </g>
            </g>
        </g>
    </g>
</svg>