<?xml version="1.0" encoding="UTF-8"?>
<svg width="35px" height="35px" viewBox="0 0 35 35" version="1.1" xmlns="http://www.w3.org/2000/svg" xmlns:xlink="http://www.w3.org/1999/xlink">
    <!-- Generator: Sketch 51.2 (57519) - http://www.bohemiancoding.com/sketch -->
    <title>Behance</title>
    <desc>Created with Sketch.</desc>
    <defs></defs>
    <g id="Page-1" stroke="none" stroke-width="1" fill="none" fill-rule="evenodd">
        <g id="Style-Guide-/-UI-Kit" transform="translate(-292.000000, -4843.000000)" fill="#9FA3A7">
            <g id="07.-Icons-🎲" transform="translate(38.000000, 4548.000000)">
                <g id="Behance" transform="translate(254.000000, 294.000000)">
                    <path d="M17.492,36.008 C7.848,36.008 0,28.154 0,18.5 C0,8.848 7.848,0.993 17.492,0.993 C27.139,0.993 34.988,8.848 34.988,18.5 C34.988,28.154 27.139,36.008 17.492,36.008 L17.492,36.008 Z M15.493,17.835 C15.493,17.835 17.457,17.687 17.457,15.383 C17.457,13.075 15.847,11.95 13.811,11.95 L7.112,11.95 L7.112,24.838 L13.811,24.838 C13.811,24.838 17.901,24.965 17.901,21.033 C17.901,21.033 18.08,17.835 15.493,17.835 L15.493,17.835 Z M25.901,12.711 L20.589,12.711 L20.589,14.298 L25.901,14.298 L25.901,12.711 L25.901,12.711 Z M23.358,15.228 C18.407,15.228 18.411,20.179 18.411,20.179 C18.411,20.179 18.074,25.107 23.358,25.107 C23.358,25.107 27.766,25.358 27.766,21.68 L25.499,21.68 C25.499,21.68 25.574,23.065 23.434,23.065 C23.434,23.065 21.167,23.216 21.167,20.823 L27.842,20.823 C27.842,20.823 28.571,15.228 23.358,15.228 L23.358,15.228 Z M23.407,17.118 C25.399,17.118 25.371,19.101 25.371,19.101 L21.143,19.101 C21.143,19.101 21.421,17.118 23.407,17.118 L23.407,17.118 Z M13.621,22.55 L13.383,22.55 L10.064,22.55 L10.064,19.101 L13.811,19.101 C13.811,19.101 15.17,19.084 15.17,20.871 C15.17,22.379 14.154,22.534 13.621,22.55 L13.621,22.55 Z M13.58,17.118 L10.064,17.118 L10.064,14.24 L13.811,14.24 C13.811,14.24 14.722,14.24 14.722,15.579 C14.722,16.922 14.185,17.118 13.58,17.118 L13.58,17.118 Z" id="Shape"></path>
                </g>
            </g>
        </g>
    </g>
</svg>