<?xml version="1.0" encoding="UTF-8"?>
<svg width="35px" height="35px" viewBox="0 0 35 35" version="1.1" xmlns="http://www.w3.org/2000/svg" xmlns:xlink="http://www.w3.org/1999/xlink">
    <!-- Generator: Sketch 51.2 (57519) - http://www.bohemiancoding.com/sketch -->
    <title>Dribble</title>
    <desc>Created with Sketch.</desc>
    <defs></defs>
    <g id="Page-1" stroke="none" stroke-width="1" fill="none" fill-rule="evenodd">
        <g id="Style-Guide-/-UI-Kit" transform="translate(-372.000000, -4844.000000)" fill="#9FA3A7">
            <g id="07.-Icons-🎲" transform="translate(38.000000, 4548.000000)">
                <g id="Dribble" transform="translate(334.000000, 296.000000)">
                    <path d="M17.5,35 C7.835,35 0,27.165 0,17.5 C0,7.835 7.835,0 17.5,0 C27.165,0 35,7.835 35,17.5 C35,27.165 27.165,35 17.5,35 L17.5,35 Z M17.5,6.484 C11.414,6.485 6.484,11.413 6.484,17.501 C6.484,23.586 11.414,28.515 17.5,28.515 C23.586,28.515 28.516,23.586 28.516,17.501 C28.516,11.413 23.586,6.485 17.5,6.484 L17.5,6.484 Z M22.363,24.574 C21.929,22.443 21.376,20.51 20.774,18.792 C21.335,18.71 21.927,18.666 22.538,18.666 L22.573,18.666 C23.59,18.666 24.724,18.793 25.937,19.072 C25.52,21.348 24.196,23.306 22.363,24.574 L22.363,24.574 Z M22.558,16.703 C21.677,16.703 20.852,16.787 20.066,16.92 C19.884,16.457 19.692,16.011 19.499,15.584 C21.227,14.823 22.9,13.736 24.253,12.196 C25.327,13.56 25.996,15.251 26.082,17.093 C24.836,16.833 23.657,16.703 22.573,16.703 L22.558,16.703 L22.558,16.703 Z M18.639,13.809 C17.511,11.626 16.421,10.066 15.673,9.111 C16.264,8.981 16.874,8.906 17.5,8.906 C19.525,8.906 21.389,9.616 22.857,10.797 C21.735,12.142 20.249,13.122 18.639,13.809 L18.639,13.809 Z M9.982,15.433 C9.937,15.433 9.894,15.433 9.851,15.431 L9.849,15.431 C9.582,15.431 9.354,15.425 9.162,15.415 C9.778,12.951 11.467,10.906 13.704,9.801 C14.297,10.509 15.496,12.057 16.77,14.478 C14.176,15.251 11.563,15.433 9.982,15.433 L9.982,15.433 Z M9.852,17.392 C11.58,17.382 14.595,17.24 17.65,16.272 C17.814,16.637 17.98,17.016 18.145,17.411 C16.103,18.096 14.498,19.179 13.306,20.258 C12.162,21.307 11.389,22.341 10.937,23.029 C9.671,21.528 8.906,19.609 8.905,17.501 C8.905,17.465 8.906,17.415 8.913,17.373 C9.154,17.389 9.472,17.392 9.85,17.392 L9.852,17.392 L9.852,17.392 Z M18.853,19.241 C19.505,21.073 20.101,23.175 20.553,25.529 C19.604,25.893 18.574,26.101 17.5,26.101 C15.586,26.101 13.823,25.462 12.398,24.403 C12.701,23.906 13.348,22.941 14.39,21.95 C15.456,20.922 16.929,19.868 18.853,19.241 L18.853,19.241 Z" id="Shape"></path>
                </g>
            </g>
        </g>
    </g>
</svg>