<?xml version="1.0" encoding="UTF-8"?>
<svg width="35px" height="35px" viewBox="0 0 35 35" version="1.1" xmlns="http://www.w3.org/2000/svg" xmlns:xlink="http://www.w3.org/1999/xlink">
    <!-- Generator: Sketch 51.2 (57519) - http://www.bohemiancoding.com/sketch -->
    <title>Instagram</title>
    <desc>Created with Sketch.</desc>
    <defs></defs>
    <g id="Page-1" stroke="none" stroke-width="1" fill="none" fill-rule="evenodd">
        <g id="Style-Guide-/-UI-Kit" transform="translate(-532.000000, -4846.000000)" fill="#9FA3A7">
            <g id="07.-Icons-🎲" transform="translate(38.000000, 4548.000000)">
                <g id="Instagram" transform="translate(494.000000, 297.000000)">
                    <path d="M17.494,36.007 C7.85,36.007 0.002,28.153 0.002,18.498 C0.002,8.847 7.85,0.991 17.494,0.991 C27.141,0.991 34.99,8.847 34.99,18.498 C34.99,28.153 27.141,36.007 17.494,36.007 L17.494,36.007 Z M27.445,16.456 L27.445,12.393 C27.445,10.268 25.721,8.543 23.598,8.543 L11.391,8.543 C9.271,8.543 7.547,10.268 7.547,12.393 L7.547,24.61 C7.547,26.731 9.271,28.456 11.391,28.456 L23.598,28.456 C25.721,28.456 27.445,26.731 27.445,24.61 L27.445,16.456 L27.445,16.456 Z M23.598,26.515 L11.391,26.515 C10.337,26.515 9.485,25.663 9.485,24.61 L9.485,16.456 L12.454,16.456 C12.199,17.086 12.055,17.778 12.055,18.498 C12.055,21.5 14.494,23.945 17.494,23.945 C20.498,23.945 22.937,21.5 22.937,18.498 C22.937,17.778 22.79,17.086 22.535,16.456 L25.504,16.456 L25.504,24.61 C25.504,25.663 24.651,26.515 23.598,26.515 L23.598,26.515 Z M21.768,10.847 L24.703,10.836 L25.143,10.836 L25.143,14.211 L21.781,14.221 L21.768,10.847 L21.768,10.847 Z M17.494,22.003 C15.564,22.003 13.992,20.433 13.992,18.498 C13.995,17.736 14.239,17.032 14.656,16.456 C15.292,15.571 16.328,14.996 17.494,14.996 C18.664,14.996 19.7,15.574 20.336,16.456 C20.749,17.032 20.997,17.736 20.997,18.498 C20.997,20.433 19.424,22.003 17.494,22.003 L17.494,22.003 Z" id="Shape"></path>
                </g>
            </g>
        </g>
    </g>
</svg>