<?xml version="1.0" encoding="UTF-8"?>
<svg width="35px" height="35px" viewBox="0 0 35 35" version="1.1" xmlns="http://www.w3.org/2000/svg" xmlns:xlink="http://www.w3.org/1999/xlink">
    <!-- Generator: Sketch 51.2 (57519) - http://www.bohemiancoding.com/sketch -->
    <title>Linkedin</title>
    <desc>Created with Sketch.</desc>
    <defs></defs>
    <g id="Page-1" stroke="none" stroke-width="1" fill="none" fill-rule="evenodd">
        <g id="Style-Guide-/-UI-Kit" transform="translate(-212.000000, -4844.000000)" fill="#9FA3A7">
            <g id="07.-Icons-🎲" transform="translate(38.000000, 4548.000000)">
                <g id="Linkedin" transform="translate(174.000000, 296.000000)">
                    <path d="M17.5,35 C7.835,35 0,27.165 0,17.5 C0,7.835 7.835,0 17.5,0 C27.165,0 35,7.835 35,17.5 C35,27.165 27.165,35 17.5,35 L17.5,35 Z M9.211,26.017 L13.071,26.017 L13.071,15.195 L9.211,15.195 L9.211,26.017 L9.211,26.017 Z M11.167,9.98 C9.846,9.98 8.983,10.787 8.983,11.849 C8.983,12.888 9.821,13.719 11.116,13.719 L11.141,13.719 C12.487,13.719 13.325,12.888 13.325,11.849 C13.3,10.787 12.487,9.98 11.167,9.98 L11.167,9.98 Z M26.989,19.813 C26.989,16.488 25.084,14.941 22.546,14.941 C20.495,14.941 19.58,15.991 19.067,16.729 L19.067,15.195 L15.206,15.195 C15.257,16.212 15.206,26.017 15.206,26.017 L19.067,26.017 L19.067,19.974 C19.067,19.651 19.092,19.327 19.194,19.097 C19.472,18.45 20.108,17.781 21.174,17.781 C22.571,17.781 23.13,18.774 23.13,20.229 L23.13,26.017 L26.989,26.017 L26.989,19.813 L26.989,19.813 Z M19.041,16.765 C19.049,16.753 19.059,16.74 19.067,16.729 L19.067,16.765 L19.041,16.765 L19.041,16.765 Z" id="Shape"></path>
                </g>
            </g>
        </g>
    </g>
</svg>