<?xml version="1.0" encoding="UTF-8"?>
<svg width="35px" height="35px" viewBox="0 0 35 35" version="1.1" xmlns="http://www.w3.org/2000/svg" xmlns:xlink="http://www.w3.org/1999/xlink">
    <!-- Generator: Sketch 51.2 (57519) - http://www.bohemiancoding.com/sketch -->
    <title>Youtube</title>
    <desc>Created with Sketch.</desc>
    <defs></defs>
    <g id="Page-1" stroke="none" stroke-width="1" fill="none" fill-rule="evenodd">
        <g id="Style-Guide-/-UI-Kit" transform="translate(-453.000000, -4844.000000)" fill="#9FA3A7">
            <g id="07.-Icons-🎲" transform="translate(38.000000, 4548.000000)">
                <g id="Youtube" transform="translate(414.000000, 295.000000)">
                    <path d="M18.499,35.996 C8.831,35.996 0.996,28.161 0.996,18.496 C0.996,8.829 8.831,0.994 18.499,0.994 C28.164,0.994 35.999,8.829 35.999,18.496 C35.999,28.161 28.164,35.996 18.499,35.996 L18.499,35.996 Z M14.592,6.93 L13.69,10.397 L12.751,6.93 L11.359,6.93 C11.639,7.748 11.929,8.57 12.208,9.39 C12.632,10.623 12.896,11.551 13.017,12.184 L13.017,15.761 L14.339,15.761 L14.339,12.184 L15.93,6.93 L14.592,6.93 L14.592,6.93 Z M19.464,11.325 C19.464,10.623 19.343,10.107 19.093,9.775 C18.764,9.325 18.299,9.1 17.703,9.1 C17.108,9.1 16.643,9.325 16.313,9.775 C16.059,10.109 15.941,10.623 15.941,11.325 L15.941,13.63 C15.941,14.329 16.059,14.848 16.313,15.178 C16.643,15.627 17.108,15.852 17.703,15.852 C18.299,15.852 18.764,15.627 19.093,15.178 C19.343,14.848 19.464,14.329 19.464,13.63 L19.464,11.325 L19.464,11.325 Z M23.873,9.18 L22.681,9.18 L22.681,14.21 C22.417,14.583 22.167,14.768 21.927,14.768 C21.768,14.768 21.674,14.674 21.647,14.488 C21.633,14.45 21.633,14.305 21.633,14.025 L21.633,9.18 L20.444,9.18 L20.444,14.383 C20.444,14.848 20.485,15.163 20.549,15.363 C20.67,15.695 20.934,15.852 21.319,15.852 C21.754,15.852 22.205,15.588 22.681,15.043 L22.681,15.761 L23.873,15.761 L23.873,9.18 L23.873,9.18 Z M27.924,18.641 C27.685,17.602 26.835,16.837 25.812,16.721 C23.391,16.452 20.941,16.45 18.5,16.452 C16.061,16.45 13.61,16.452 11.188,16.721 C10.167,16.837 9.317,17.602 9.08,18.641 C8.739,20.12 8.735,21.734 8.735,23.257 C8.735,24.778 8.735,26.394 9.074,27.871 C9.314,28.91 10.162,29.675 11.185,29.791 C13.606,30.061 16.057,30.062 18.497,30.061 C20.938,30.062 23.387,30.061 25.809,29.791 C26.832,29.675 27.68,28.91 27.919,27.871 C28.26,26.394 28.26,24.778 28.26,23.257 C28.26,21.734 28.263,20.12 27.924,18.641 L27.924,18.641 Z M26.505,26.68 C26.178,27.154 25.695,27.387 25.078,27.387 C24.461,27.387 23.99,27.165 23.649,26.719 C23.399,26.394 23.272,25.88 23.272,25.189 L23.272,22.907 C23.272,22.211 23.385,21.703 23.635,21.372 C23.976,20.926 24.445,20.704 25.048,20.704 C25.641,20.704 26.111,20.926 26.44,21.372 C26.688,21.703 26.805,22.211 26.805,22.907 L26.805,24.255 L24.445,24.255 L24.445,25.411 C24.445,26.013 24.644,26.313 25.048,26.313 C25.34,26.313 25.508,26.156 25.576,25.841 C25.587,25.777 25.602,25.514 25.602,25.042 L26.805,25.042 L26.805,25.213 C26.805,25.595 26.791,25.855 26.781,25.974 C26.741,26.235 26.648,26.472 26.505,26.68 L26.505,26.68 Z M24.447,23.273 L25.627,23.273 L25.627,22.672 C25.627,22.068 25.429,21.767 25.038,21.767 C24.644,21.767 24.447,22.068 24.447,22.672 L24.447,23.273 L24.447,23.273 Z M21.291,27.387 C20.871,27.387 20.465,27.153 20.07,26.666 L20.07,27.298 L18.89,27.298 L18.89,18.557 L20.07,18.557 L20.07,21.411 C20.451,20.942 20.857,20.704 21.291,20.704 C21.759,20.704 22.076,20.952 22.233,21.441 C22.312,21.703 22.352,22.133 22.352,22.75 L22.352,25.343 C22.352,25.944 22.312,26.378 22.233,26.654 C22.076,27.138 21.759,27.387 21.291,27.387 L21.291,27.387 Z M21.172,22.656 C21.172,22.068 20.999,21.767 20.66,21.767 C20.465,21.767 20.268,21.86 20.07,22.054 L20.07,26.023 C20.268,26.221 20.465,26.313 20.66,26.313 C21,26.313 21.172,26.023 21.172,25.436 L21.172,22.656 L21.172,22.656 Z M16.689,26.586 C16.22,27.124 15.775,27.387 15.341,27.387 C14.961,27.387 14.699,27.231 14.58,26.902 C14.515,26.705 14.475,26.394 14.475,25.934 L14.475,20.785 L15.655,20.785 L15.655,25.579 C15.655,25.855 15.655,25.999 15.666,26.037 C15.696,26.221 15.785,26.313 15.942,26.313 C16.18,26.313 16.427,26.131 16.689,25.761 L16.689,20.785 L17.871,20.785 L17.871,27.298 L16.689,27.298 L16.689,26.586 L16.689,26.586 Z M12.891,27.298 L11.578,27.298 L11.578,19.786 L10.19,19.786 L10.19,18.557 L14.304,18.557 L14.304,19.786 L12.891,19.786 L12.891,27.298 L12.891,27.298 Z M17.703,14.768 C17.318,14.768 17.133,14.464 17.133,13.853 L17.133,11.086 C17.133,10.478 17.318,10.173 17.703,10.173 C18.086,10.173 18.271,10.478 18.271,11.086 L18.271,13.853 C18.271,14.464 18.086,14.768 17.703,14.768 L17.703,14.768 Z" id="Shape"></path>
                </g>
            </g>
        </g>
    </g>
</svg>