<?xml version="1.0" encoding="UTF-8"?>
<svg width="43px" height="43px" viewBox="0 0 43 43" version="1.1" xmlns="http://www.w3.org/2000/svg" xmlns:xlink="http://www.w3.org/1999/xlink">
    <!-- Generator: Sketch 51.2 (57519) - http://www.bohemiancoding.com/sketch -->
    <title>Pencil</title>
    <desc>Created with Sketch.</desc>
    <defs></defs>
    <g id="Page-1" stroke="none" stroke-width="1" fill="none" fill-rule="evenodd">
        <g id="О-журнале---Desktop" transform="translate(-926.000000, -654.000000)" fill="#212121">
            <g id="Section-comande" transform="translate(239.000000, 498.000000)">
                <g id="Infografica" transform="translate(0.000000, 149.000000)">
                    <g id="Pencil" transform="translate(687.000000, 6.000000)">
                        <path d="M41.393,11.037 L37.647,14.823 C37.647,14.823 37.647,14.824 37.646,14.824 C37.646,14.825 37.645,14.825 37.645,14.826 L11.987,40.755 C11.149,41.602 3.412,43.994 1.508,43.994 C1.194,43.994 0.736,43.953 0.394,43.609 C-0.006,43.204 -0.459,42.746 1.101,37.444 C1.436,36.305 2.579,32.536 3.217,31.892 L32.623,2.174 C33.373,1.416 34.37,0.999 35.429,0.999 C36.489,0.999 37.485,1.417 38.235,2.174 L41.393,5.365 C42.143,6.122 42.556,7.13 42.556,8.201 C42.556,9.273 42.143,10.28 41.393,11.037 L41.393,11.037 Z M2.04,41.942 C3.25,41.77 5.454,41.141 7.34,40.526 L3.437,36.581 C2.824,38.53 2.209,40.797 2.04,41.942 L2.04,41.942 Z M4.151,34.467 L9.429,39.801 C10.011,39.583 10.449,39.399 10.631,39.289 L35.541,14.115 L29.577,8.088 L4.667,33.263 C4.54,33.471 4.359,33.906 4.151,34.467 L4.151,34.467 Z M39.99,6.783 L36.832,3.592 C36.082,2.834 34.776,2.835 34.026,3.592 L30.98,6.67 L36.944,12.697 L39.99,9.619 C40.365,9.24 40.572,8.737 40.572,8.201 C40.572,7.666 40.365,7.162 39.99,6.783 L39.99,6.783 Z M38.375,16.67 C38.763,16.278 39.39,16.278 39.778,16.67 C40.166,17.062 40.166,17.696 39.778,18.088 L31.071,26.887 C30.877,27.083 30.623,27.181 30.369,27.181 C30.115,27.181 29.861,27.083 29.668,26.887 C29.28,26.495 29.28,25.861 29.668,25.469 L38.375,16.67 L38.375,16.67 Z" id="Shape"></path>
                    </g>
                </g>
            </g>
        </g>
    </g>
</svg>